G04 Layer: TopLayer*
G04 EasyEDA v6.5.39, 2024-01-10 21:05:38*
G04 9cfd073529b94999841d5e3d22f50bd2,208856bd7ad64deca1bfdec547b981c7,10*
G04 Gerber Generator version 0.2*
G04 Scale: 100 percent, Rotated: No, Reflected: No *
G04 Dimensions in millimeters *
G04 leading zeros omitted , absolute positions ,4 integer and 5 decimal *
%FSLAX45Y45*%
%MOMM*%

%AMMACRO1*21,1,$1,$2,0,0,$3*%
%ADD10C,0.2540*%
%ADD11C,0.5000*%
%ADD12C,0.6000*%
%ADD13C,1.1000*%
%ADD14C,2.0000*%
%ADD15R,0.8000X0.8000*%
%ADD16MACRO1,0.54X0.5656X0.0000*%
%ADD17R,0.5400X0.5657*%
%ADD18MACRO1,1.35X1.41X90.0000*%
%ADD19MACRO1,1.35X1.41X-90.0000*%
%ADD20MACRO1,0.864X0.8065X0.0000*%
%ADD21R,0.8640X0.8065*%
%ADD22MACRO1,0.864X0.8065X-90.0000*%
%ADD23MACRO1,0.864X0.8065X90.0000*%
%ADD24O,1.3240004X0.30800039999999995*%
%ADD25R,1.0000X0.8000*%
%ADD26R,2.8000X1.1000*%
%ADD27R,1.5748X1.5748*%
%ADD28C,1.5748*%
%ADD29C,1.6764*%
%ADD30C,1.5240*%
%ADD31C,1.4000*%
%ADD32C,2.3000*%
%ADD33C,0.6200*%
%ADD34C,0.0136*%

%LPD*%
D10*
X7290511Y-1270000D02*
G01*
X7620000Y-1270000D01*
X7874000Y-1016000D01*
X7454900Y-1118463D02*
G01*
X7467600Y-1105763D01*
X7467600Y-1016000D01*
X6756400Y749300D02*
G01*
X6819900Y749300D01*
X6883400Y812800D01*
X6883400Y837437D01*
X6756400Y-88900D02*
G01*
X6845300Y-178562D01*
X6755714Y-679704D02*
G01*
X6756400Y-679018D01*
X6756400Y-584200D01*
X6870700Y-1194663D02*
G01*
X6870700Y-794689D01*
X6755714Y-679704D01*
X7188200Y-623163D02*
G01*
X7189063Y-622300D01*
X7416800Y-622300D01*
X7188200Y-623161D02*
G01*
X7188200Y-177800D01*
X7239000Y-127000D01*
X7327036Y-127000D01*
X7442200Y-242163D01*
D11*
X7874000Y-254000D02*
G01*
X7875270Y304800D01*
X7886700Y1524000D02*
G01*
X8102600Y1308100D01*
X8102600Y406400D01*
X8001000Y304800D01*
X7556500Y304800D01*
X7416038Y445262D01*
X7391400Y445262D01*
D10*
X7442200Y-242163D02*
G01*
X7454036Y-254000D01*
X7848600Y-254000D01*
X7874000Y-254000D01*
X6540500Y-699363D02*
G01*
X6560159Y-679704D01*
X6755714Y-679704D01*
X6985711Y-774700D02*
G01*
X6998411Y-762000D01*
X7874000Y-762000D01*
X6540500Y-850036D02*
G01*
X6560159Y-869695D01*
X6755688Y-869695D01*
X5925311Y381000D02*
G01*
X5925311Y-234848D01*
X6540500Y-850036D01*
X6870700Y-1345336D02*
G01*
X5671311Y-145948D01*
X5671311Y381000D01*
X6845300Y-178663D02*
G01*
X6864959Y-159004D01*
X7060514Y-159004D01*
X6845300Y-329336D02*
G01*
X6179311Y336651D01*
X6179311Y381000D01*
X7060488Y-348995D02*
G01*
X7040829Y-329336D01*
X6845300Y-329336D01*
X6883400Y686663D02*
G01*
X5722975Y686663D01*
X5417311Y381000D01*
X6870700Y-1345336D02*
G01*
X6890359Y-1364995D01*
X7060488Y-1364995D01*
X6870700Y-1194663D02*
G01*
X6890359Y-1175004D01*
X7060514Y-1175004D01*
X7290511Y-254000D02*
G01*
X7544511Y-508000D01*
X7874000Y-508000D01*
D11*
X7391400Y1586636D02*
G01*
X6934200Y1586636D01*
X6705600Y1358036D01*
X5727700Y1244600D02*
G01*
X5841136Y1358036D01*
X6705600Y1358036D01*
X3315563Y2286000D02*
G01*
X4510227Y1091336D01*
X6248400Y1091336D01*
X2286000Y2286000D02*
G01*
X3315563Y2286000D01*
D10*
X6248400Y940663D02*
G01*
X5722975Y940663D01*
X5163311Y381000D01*
X6883400Y1207363D02*
G01*
X6870700Y1194663D01*
X6870700Y1092200D01*
D11*
X7886700Y1524000D02*
G01*
X7824063Y1586636D01*
X7391400Y1586636D01*
D10*
X6883400Y837336D02*
G01*
X6711873Y837336D01*
X6438214Y1110995D01*
X6438214Y1110995D02*
G01*
X6438214Y1155014D01*
X6565900Y1282700D01*
X6808063Y1282700D01*
X6883400Y1358036D01*
X6248400Y940661D02*
G01*
X6268057Y921004D01*
X6438193Y921004D01*
X6248400Y1091338D02*
G01*
X6268057Y1110995D01*
X6438216Y1110995D01*
X6668206Y1016000D02*
G01*
X6692900Y1040693D01*
X6692900Y1207361D01*
X6705600Y1207361D01*
X6668206Y1016000D02*
G01*
X7886700Y1016000D01*
X6883400Y1207361D02*
G01*
X6915757Y1175004D01*
X7085893Y1175004D01*
X6883400Y1358038D02*
G01*
X6890357Y1364995D01*
X7085916Y1364995D01*
X7315906Y1270000D02*
G01*
X7315906Y1360482D01*
X7391400Y1435961D01*
X7315906Y1270000D02*
G01*
X7886700Y1270000D01*
X7303206Y762000D02*
G01*
X7303206Y684217D01*
X7391400Y596038D01*
X7303206Y762000D02*
G01*
X7886700Y762000D01*
X6883400Y686661D02*
G01*
X6903057Y667004D01*
X7073193Y667004D01*
X6883400Y837338D02*
G01*
X6903057Y856995D01*
X7073216Y856995D01*
X3315563Y1524000D02*
G01*
X3302863Y1511300D01*
X2501900Y1511300D01*
X1861306Y870712D01*
X1861306Y381000D01*
D12*
X5283200Y-2895600D02*
G01*
X5486400Y-2895600D01*
X5753100Y-3162300D01*
X7823200Y-3162300D01*
X7810500Y-2197100D02*
G01*
X5803900Y-2197100D01*
X5486400Y-2514600D01*
X5283200Y-2514600D01*
D13*
X4164647Y-3225800D02*
G01*
X4000500Y-3403600D01*
X4000500Y-4114800D01*
X2809620Y-5305679D01*
X2809620Y-5334000D01*
X4164634Y-3225800D02*
G01*
X4418634Y-2971800D01*
X4775200Y-2971800D01*
X4927600Y-2819400D01*
X4927600Y-2387600D01*
X4787900Y-2247900D01*
X4572000Y-2247900D01*
D14*
X7061200Y-5346700D02*
G01*
X7895386Y-5346700D01*
X7899400Y-5342686D01*
X3721100Y-5334000D02*
G01*
X4753813Y-4301286D01*
X7899400Y-4301286D01*
X342900Y-5329986D02*
G01*
X1177086Y-5329986D01*
X1181100Y-5334000D01*
D10*
X1358544Y2327859D02*
G01*
X1739562Y2327866D01*
X1739900Y1910079D02*
G01*
X1740154Y2167889D01*
X1739900Y1823618D02*
G01*
X1739900Y1435100D01*
D11*
X1587500Y1435100D02*
G01*
X1955800Y1435100D01*
X1955800Y1955800D01*
X2286000Y2286000D01*
D10*
X1861299Y-1143000D02*
G01*
X3133890Y-2415590D01*
X4609490Y-2415590D01*
X1607299Y-1143000D02*
G01*
X2944888Y-2480589D01*
X4609490Y-2480589D01*
X845299Y-1143000D02*
G01*
X2507907Y-2805607D01*
X4609490Y-2805607D01*
X591299Y-1143000D02*
G01*
X2318905Y-2870606D01*
X4609490Y-2870606D01*
X3175000Y-2082800D02*
G01*
X3175000Y-1960981D01*
X3175000Y-1874520D02*
G01*
X3175254Y-1705610D01*
X1353299Y-1143000D02*
G01*
X2820885Y-2610586D01*
X4609490Y-2610586D01*
X2115299Y-1143000D02*
G01*
X3322891Y-2350592D01*
X4609490Y-2350592D01*
X5321909Y-2350592D02*
G01*
X5321909Y-2415590D01*
X5321909Y-2675610D02*
G01*
X5321909Y-2610586D01*
X5321909Y-2480589D02*
G01*
X5321909Y-2545587D01*
X1099299Y-1143000D02*
G01*
X2696908Y-2740609D01*
X4609490Y-2740609D01*
X5321909Y-2415590D02*
G01*
X5319318Y-2413000D01*
X5168900Y-2413000D01*
X4609490Y-2545587D02*
G01*
X4616602Y-2552700D01*
X4762500Y-2552700D01*
X5168900Y-2413000D02*
G01*
X5168900Y-2641600D01*
X5267909Y-2740609D01*
X5321909Y-2740609D01*
X1092200Y1823618D02*
G01*
X1099299Y1816519D01*
X1099299Y381000D01*
X1353299Y381000D02*
G01*
X1358900Y386600D01*
X1358900Y1823618D01*
X1358900Y1910079D02*
G01*
X1359154Y2167889D01*
X1092200Y1910079D02*
G01*
X1092454Y2167889D01*
X1217368Y2327866D02*
G01*
X1358562Y2327866D01*
X1091862Y2327866D02*
G01*
X1217368Y2327866D01*
X5321909Y-2740609D02*
G01*
X5321909Y-2805607D01*
D12*
X5321909Y-2870606D02*
G01*
X5321909Y-2935604D01*
X7823200Y-2908300D02*
G01*
X5753100Y-2908300D01*
X5486400Y-2641600D01*
X5321808Y-2641600D01*
X5283200Y-2641600D01*
D14*
X1181100Y-5334000D02*
G01*
X2895600Y-5334000D01*
X3175000Y-5613400D01*
X4254500Y-5613400D01*
X4521200Y-5346700D01*
D10*
X2286000Y2032000D02*
G01*
X2285136Y2031136D01*
X2285136Y1625600D01*
X3315568Y2032000D02*
G01*
X3315563Y2031994D01*
X3315563Y1524000D01*
X2285136Y1625600D02*
G01*
X2285136Y1548536D01*
X1607312Y870712D01*
X1607312Y381000D01*
D11*
X845299Y381000D02*
G01*
X850900Y386600D01*
X850900Y1193800D01*
D12*
X5321907Y-2250442D02*
G01*
X5458518Y-2250386D01*
X5765805Y-1943100D01*
X7810500Y-1943100D01*
X5321808Y-2250439D02*
G01*
X5319268Y-2247900D01*
X5283200Y-2247900D01*
D13*
X3706875Y-3225800D02*
G01*
X3822700Y-3225800D01*
X4000500Y-3403600D01*
D10*
X4419600Y-2679700D02*
G01*
X4423689Y-2675610D01*
X4609490Y-2675610D01*
X3893299Y-1143000D02*
G01*
X3887800Y-1148499D01*
X3887800Y-2159000D01*
D15*
G01*
X1739544Y2327859D03*
G01*
X1740255Y2167966D03*
D16*
G01*
X1739900Y1910182D03*
D17*
G01*
X1739900Y1823618D03*
D18*
G01*
X4087802Y-2159000D03*
G01*
X3887797Y-2159000D03*
D19*
G01*
X3506797Y-3225800D03*
G01*
X3706802Y-3225800D03*
D15*
G01*
X1091844Y2327859D03*
G01*
X1092555Y2167966D03*
G01*
X1358544Y2327859D03*
G01*
X1359255Y2167966D03*
G01*
X3187344Y-1532940D03*
G01*
X3188055Y-1692833D03*
D20*
G01*
X6883400Y686675D03*
D21*
G01*
X6883400Y837336D03*
D20*
G01*
X7391400Y596024D03*
D21*
G01*
X7391400Y445363D03*
D20*
G01*
X6705600Y1207375D03*
D21*
G01*
X6705600Y1358036D03*
D20*
G01*
X6248400Y940675D03*
D21*
G01*
X6248400Y1091336D03*
D20*
G01*
X7391400Y1435975D03*
D21*
G01*
X7391400Y1586636D03*
D20*
G01*
X6883400Y1207375D03*
D21*
G01*
X6883400Y1358036D03*
D20*
G01*
X6845300Y-329324D03*
D21*
G01*
X6845300Y-178663D03*
D20*
G01*
X7442200Y-392824D03*
D21*
G01*
X7442200Y-242163D03*
D20*
G01*
X6540500Y-850024D03*
D21*
G01*
X6540500Y-699363D03*
D20*
G01*
X7188200Y-773824D03*
D21*
G01*
X7188200Y-623163D03*
D20*
G01*
X7454900Y-1269124D03*
D21*
G01*
X7454900Y-1118463D03*
D20*
G01*
X6870700Y-1345324D03*
D21*
G01*
X6870700Y-1194663D03*
D22*
G01*
X2134475Y1625600D03*
G01*
X2285124Y1625600D03*
D23*
G01*
X3466224Y1524000D03*
G01*
X3315575Y1524000D03*
D16*
G01*
X1092200Y1910182D03*
D17*
G01*
X1092200Y1823618D03*
D16*
G01*
X1358900Y1910182D03*
D17*
G01*
X1358900Y1823618D03*
D16*
G01*
X3175000Y-1874417D03*
D17*
G01*
X3175000Y-1960981D03*
D24*
G01*
X5321909Y-2935604D03*
G01*
X5321909Y-2870606D03*
G01*
X5321909Y-2805607D03*
G01*
X5321909Y-2740609D03*
G01*
X5321909Y-2675610D03*
G01*
X5321909Y-2610586D03*
G01*
X5321909Y-2545587D03*
G01*
X5321909Y-2480589D03*
G01*
X5321909Y-2415590D03*
G01*
X5321909Y-2350592D03*
G01*
X5321909Y-2285593D03*
G01*
X5321909Y-2220595D03*
G01*
X4609490Y-2935604D03*
G01*
X4609490Y-2870606D03*
G01*
X4609490Y-2805607D03*
G01*
X4609490Y-2740609D03*
G01*
X4609490Y-2675610D03*
G01*
X4609490Y-2610586D03*
G01*
X4609490Y-2545587D03*
G01*
X4609490Y-2480589D03*
G01*
X4609490Y-2415590D03*
G01*
X4609490Y-2350592D03*
G01*
X4609490Y-2285593D03*
G01*
X4609490Y-2220595D03*
D25*
G01*
X6438188Y921004D03*
G01*
X6668211Y1016000D03*
G01*
X6438214Y1110995D03*
G01*
X7085888Y1175004D03*
G01*
X7315911Y1270000D03*
G01*
X7085914Y1364995D03*
G01*
X7060488Y-348995D03*
G01*
X7290511Y-254000D03*
G01*
X7060514Y-159004D03*
G01*
X6755688Y-869695D03*
G01*
X6985711Y-774700D03*
G01*
X6755714Y-679704D03*
G01*
X7060488Y-1364995D03*
G01*
X7290511Y-1270000D03*
G01*
X7060514Y-1175004D03*
G01*
X7073188Y667004D03*
G01*
X7303211Y762000D03*
G01*
X7073214Y856995D03*
D26*
G01*
X4164634Y-3225800D03*
G01*
X4496765Y-3225800D03*
D27*
G01*
X7823200Y-2908300D03*
D28*
G01*
X7823200Y-3162300D03*
D27*
G01*
X7810500Y-1943100D03*
D28*
G01*
X7810500Y-2197100D03*
D27*
G01*
X2286000Y2286000D03*
D28*
G01*
X2286000Y2032000D03*
D27*
G01*
X3315563Y2286000D03*
D28*
G01*
X3315563Y2032000D03*
G01*
X7874000Y-254000D03*
G01*
X7874000Y-508000D03*
G01*
X7874000Y-762000D03*
G01*
X7874000Y-1016000D03*
D27*
G01*
X7874000Y-1270000D03*
D28*
G01*
X7886700Y1524000D03*
G01*
X7886700Y1270000D03*
G01*
X7886700Y1016000D03*
G01*
X7886700Y762000D03*
D27*
G01*
X7886700Y508000D03*
D29*
G01*
X1181100Y-3810000D03*
G01*
X1181100Y-5334000D03*
G01*
X3721100Y-5334000D03*
G01*
X3721100Y-3810000D03*
G01*
X4521200Y-3822700D03*
G01*
X4521200Y-5346700D03*
G01*
X7061200Y-5346700D03*
G01*
X7061200Y-3822700D03*
D30*
G01*
X6179311Y-1143000D03*
G01*
X5671311Y-1143000D03*
G01*
X5417311Y-1143000D03*
G01*
X5925311Y-1143000D03*
G01*
X5163311Y-1143000D03*
G01*
X5925311Y381000D03*
G01*
X6179311Y381000D03*
G01*
X4909311Y-1143000D03*
G01*
X4909311Y-889000D03*
G01*
X4909311Y-635000D03*
G01*
X4909311Y-381000D03*
G01*
X4909311Y-127000D03*
G01*
X4909311Y127000D03*
G01*
X4909311Y381000D03*
G01*
X5163311Y381000D03*
G01*
X5417311Y381000D03*
G01*
X5671311Y381000D03*
G01*
X4655311Y-1143000D03*
G01*
X4147286Y-1143000D03*
G01*
X3893286Y-1143000D03*
G01*
X3639286Y-1143000D03*
G01*
X3385286Y-1143000D03*
G01*
X3131286Y-1143000D03*
G01*
X2877286Y-1143000D03*
G01*
X2623286Y-1143000D03*
G01*
X2369286Y-1143000D03*
G01*
X2115286Y-1143000D03*
G01*
X1861286Y-1143000D03*
G01*
X1607312Y-1143000D03*
G01*
X1353312Y-1143000D03*
G01*
X1099312Y-1143000D03*
G01*
X845312Y-1143000D03*
G01*
X591312Y-1143000D03*
G01*
X337312Y-1143000D03*
G01*
X337312Y381000D03*
G01*
X591312Y381000D03*
G01*
X845312Y381000D03*
G01*
X1099312Y381000D03*
G01*
X1353312Y381000D03*
G01*
X1607312Y381000D03*
G01*
X1861286Y381000D03*
G01*
X2115286Y381000D03*
G01*
X2369286Y381000D03*
G01*
X2623286Y381000D03*
G01*
X2877286Y381000D03*
G01*
X3131286Y381000D03*
G01*
X3385286Y381000D03*
G01*
X3639286Y381000D03*
G01*
X3893286Y381000D03*
G01*
X4147286Y381000D03*
G01*
X4655311Y381000D03*
G01*
X591312Y127000D03*
D31*
G01*
X1634312Y-59004D03*
G01*
X1834311Y140995D03*
G01*
X1634312Y140995D03*
D30*
G01*
X4401311Y381000D03*
G01*
X4401311Y-1143000D03*
G01*
X398322Y-508000D03*
G01*
X398322Y-254000D03*
G01*
X972312Y-843000D03*
G01*
X1226312Y-843000D03*
G01*
X1480312Y-843000D03*
G01*
X1734312Y-843000D03*
G01*
X1988286Y-843000D03*
D31*
G01*
X1634312Y-259003D03*
G01*
X1834311Y-59004D03*
G01*
X1834311Y-259003D03*
D32*
G01*
X342900Y-5329986D03*
G01*
X342900Y-4829987D03*
G01*
X7899400Y-4842687D03*
G01*
X7899400Y-5342686D03*
G01*
X7899400Y-3801287D03*
G01*
X7899400Y-4301286D03*
D33*
G01*
X3175000Y-2082800D03*
G01*
X2286000Y-2082800D03*
G01*
X5168900Y-2413000D03*
G01*
X4762500Y-2552700D03*
G01*
X3898900Y-2159000D03*
G01*
X4419600Y-2679700D03*
G01*
X3174669Y-1545640D03*
G01*
X1217371Y2327859D03*
G01*
X4087799Y-2159000D03*
G01*
X3467100Y1524000D03*
G01*
X2133600Y1625600D03*
G01*
X850900Y1193800D03*
G01*
X1587500Y1435100D03*
G01*
X4495800Y-3238500D03*
G01*
X3505200Y-3225800D03*
G01*
X6870700Y1092200D03*
G01*
X5727700Y1244600D03*
G01*
X7416800Y-622300D03*
G01*
X6756400Y-584200D03*
G01*
X6756400Y-88900D03*
G01*
X6756400Y749300D03*
G01*
X7467600Y-1016000D03*
M02*
