G04 Layer: BottomLayer*
G04 EasyEDA v6.5.39, 2024-01-10 21:05:38*
G04 9cfd073529b94999841d5e3d22f50bd2,208856bd7ad64deca1bfdec547b981c7,10*
G04 Gerber Generator version 0.2*
G04 Scale: 100 percent, Rotated: No, Reflected: No *
G04 Dimensions in millimeters *
G04 leading zeros omitted , absolute positions ,4 integer and 5 decimal *
%FSLAX45Y45*%
%MOMM*%

%ADD10C,0.2540*%
%ADD11C,0.5000*%
%ADD12R,1.5748X1.5748*%
%ADD13C,1.5748*%
%ADD14C,1.6764*%
%ADD15C,1.5240*%
%ADD16C,1.4000*%
%ADD17C,2.3000*%
%ADD18C,0.6200*%
%ADD19C,0.0117*%

%LPD*%
G36*
X-90932Y-5794400D02*
G01*
X-94843Y-5793587D01*
X-98094Y-5791403D01*
X-100330Y-5788101D01*
X-101092Y-5784240D01*
X-101092Y2643632D01*
X-100330Y2647543D01*
X-98094Y2650794D01*
X-94843Y2653030D01*
X-90932Y2653792D01*
X8336940Y2653792D01*
X8340801Y2653030D01*
X8344103Y2650794D01*
X8346287Y2647543D01*
X8347100Y2643632D01*
X8347100Y-5784240D01*
X8346287Y-5788101D01*
X8344103Y-5791403D01*
X8340801Y-5793587D01*
X8336940Y-5794400D01*
G37*

%LPC*%
G36*
X7899400Y-5483606D02*
G01*
X7915452Y-5482691D01*
X7931302Y-5479948D01*
X7946745Y-5475376D01*
X7961579Y-5469128D01*
X7975549Y-5461203D01*
X7988604Y-5451754D01*
X8000441Y-5440883D01*
X8010956Y-5428742D01*
X8020050Y-5415432D01*
X8027568Y-5401208D01*
X8033410Y-5386222D01*
X8037474Y-5370677D01*
X8039760Y-5354777D01*
X8040217Y-5338673D01*
X8038846Y-5322671D01*
X8035645Y-5306872D01*
X8030667Y-5291582D01*
X8024012Y-5276951D01*
X8015681Y-5263184D01*
X8005876Y-5250434D01*
X7994650Y-5238902D01*
X7982203Y-5228691D01*
X7968691Y-5220004D01*
X7954264Y-5212943D01*
X7939074Y-5207508D01*
X7923428Y-5203850D01*
X7907426Y-5202021D01*
X7891373Y-5202021D01*
X7875371Y-5203850D01*
X7859725Y-5207508D01*
X7844536Y-5212943D01*
X7830108Y-5220004D01*
X7816596Y-5228691D01*
X7804150Y-5238902D01*
X7792923Y-5250434D01*
X7783118Y-5263184D01*
X7774787Y-5276951D01*
X7768132Y-5291582D01*
X7763154Y-5306872D01*
X7759953Y-5322671D01*
X7758582Y-5338673D01*
X7759039Y-5354777D01*
X7761325Y-5370677D01*
X7765389Y-5386222D01*
X7771231Y-5401208D01*
X7778750Y-5415432D01*
X7787843Y-5428742D01*
X7798358Y-5440883D01*
X7810195Y-5451754D01*
X7823250Y-5461203D01*
X7837220Y-5469128D01*
X7852054Y-5475376D01*
X7867497Y-5479948D01*
X7883347Y-5482691D01*
G37*
G36*
X334873Y-5470652D02*
G01*
X350926Y-5470652D01*
X366928Y-5468823D01*
X382574Y-5465165D01*
X397764Y-5459780D01*
X412191Y-5452668D01*
X425704Y-5443982D01*
X438150Y-5433822D01*
X449376Y-5422239D01*
X459181Y-5409539D01*
X467512Y-5395772D01*
X474167Y-5381091D01*
X479145Y-5365800D01*
X482346Y-5350052D01*
X483717Y-5334000D01*
X483260Y-5317947D01*
X480974Y-5301996D01*
X476910Y-5286451D01*
X471068Y-5271465D01*
X463550Y-5257241D01*
X454456Y-5243982D01*
X443941Y-5231790D01*
X432104Y-5220919D01*
X419049Y-5211470D01*
X405079Y-5203545D01*
X390245Y-5197297D01*
X374802Y-5192776D01*
X358952Y-5190032D01*
X342900Y-5189118D01*
X326847Y-5190032D01*
X310997Y-5192776D01*
X295554Y-5197297D01*
X280720Y-5203545D01*
X266750Y-5211470D01*
X253695Y-5220919D01*
X241858Y-5231790D01*
X231343Y-5243982D01*
X222250Y-5257241D01*
X214731Y-5271465D01*
X208889Y-5286451D01*
X204825Y-5301996D01*
X202539Y-5317947D01*
X202082Y-5334000D01*
X203454Y-5350052D01*
X206654Y-5365800D01*
X211632Y-5381091D01*
X218287Y-5395772D01*
X226618Y-5409539D01*
X236423Y-5422239D01*
X247650Y-5433822D01*
X260096Y-5443982D01*
X273608Y-5452668D01*
X288036Y-5459780D01*
X303225Y-5465165D01*
X318871Y-5468823D01*
G37*
G36*
X4524705Y-5456326D02*
G01*
X4538726Y-5455005D01*
X4552391Y-5451856D01*
X4565599Y-5447030D01*
X4578096Y-5440527D01*
X4589576Y-5432450D01*
X4599990Y-5423001D01*
X4609134Y-5412333D01*
X4616805Y-5400548D01*
X4622901Y-5387848D01*
X4627321Y-5374538D01*
X4630013Y-5360720D01*
X4630928Y-5346700D01*
X4630013Y-5332679D01*
X4627321Y-5318861D01*
X4622901Y-5305552D01*
X4616805Y-5292852D01*
X4609134Y-5281066D01*
X4599990Y-5270398D01*
X4589576Y-5260949D01*
X4578096Y-5252872D01*
X4565599Y-5246370D01*
X4552391Y-5241544D01*
X4538726Y-5238394D01*
X4524705Y-5237073D01*
X4510684Y-5237480D01*
X4496765Y-5239766D01*
X4483303Y-5243728D01*
X4470450Y-5249418D01*
X4458411Y-5256733D01*
X4447438Y-5265470D01*
X4437684Y-5275580D01*
X4429252Y-5286857D01*
X4422343Y-5299100D01*
X4417060Y-5312105D01*
X4413504Y-5325719D01*
X4411726Y-5339689D01*
X4411726Y-5353710D01*
X4413504Y-5367680D01*
X4417060Y-5381294D01*
X4422343Y-5394299D01*
X4429252Y-5406542D01*
X4437684Y-5417820D01*
X4447438Y-5427929D01*
X4458411Y-5436666D01*
X4470450Y-5443982D01*
X4483303Y-5449671D01*
X4496765Y-5453634D01*
X4510684Y-5455920D01*
G37*
G36*
X7064705Y-5456326D02*
G01*
X7078725Y-5455005D01*
X7092391Y-5451856D01*
X7105599Y-5447030D01*
X7118096Y-5440527D01*
X7129576Y-5432450D01*
X7139990Y-5423001D01*
X7149134Y-5412333D01*
X7156805Y-5400548D01*
X7162901Y-5387848D01*
X7167321Y-5374538D01*
X7170013Y-5360720D01*
X7170928Y-5346700D01*
X7170013Y-5332679D01*
X7167321Y-5318861D01*
X7162901Y-5305552D01*
X7156805Y-5292852D01*
X7149134Y-5281066D01*
X7139990Y-5270398D01*
X7129576Y-5260949D01*
X7118096Y-5252872D01*
X7105599Y-5246370D01*
X7092391Y-5241544D01*
X7078725Y-5238394D01*
X7064705Y-5237073D01*
X7050684Y-5237480D01*
X7036765Y-5239766D01*
X7023303Y-5243728D01*
X7010450Y-5249418D01*
X6998411Y-5256733D01*
X6987438Y-5265470D01*
X6977684Y-5275580D01*
X6969252Y-5286857D01*
X6962343Y-5299100D01*
X6957059Y-5312105D01*
X6953503Y-5325719D01*
X6951725Y-5339689D01*
X6951725Y-5353710D01*
X6953503Y-5367680D01*
X6957059Y-5381294D01*
X6962343Y-5394299D01*
X6969252Y-5406542D01*
X6977684Y-5417820D01*
X6987438Y-5427929D01*
X6998411Y-5436666D01*
X7010450Y-5443982D01*
X7023303Y-5449671D01*
X7036765Y-5453634D01*
X7050684Y-5455920D01*
G37*
G36*
X1184605Y-5443626D02*
G01*
X1198626Y-5442305D01*
X1212291Y-5439156D01*
X1225499Y-5434330D01*
X1237996Y-5427827D01*
X1249476Y-5419750D01*
X1259890Y-5410301D01*
X1269034Y-5399633D01*
X1276705Y-5387848D01*
X1282801Y-5375148D01*
X1287221Y-5361838D01*
X1289913Y-5348020D01*
X1290828Y-5334000D01*
X1289913Y-5319979D01*
X1287221Y-5306161D01*
X1282801Y-5292852D01*
X1276705Y-5280152D01*
X1269034Y-5268366D01*
X1259890Y-5257698D01*
X1249476Y-5248249D01*
X1237996Y-5240172D01*
X1225499Y-5233670D01*
X1212291Y-5228844D01*
X1198626Y-5225694D01*
X1184605Y-5224373D01*
X1170584Y-5224780D01*
X1156665Y-5227066D01*
X1143203Y-5231028D01*
X1130350Y-5236718D01*
X1118311Y-5244033D01*
X1107338Y-5252770D01*
X1097584Y-5262880D01*
X1089152Y-5274157D01*
X1082243Y-5286400D01*
X1076960Y-5299405D01*
X1073404Y-5313019D01*
X1071626Y-5326989D01*
X1071626Y-5341010D01*
X1073404Y-5354980D01*
X1076960Y-5368594D01*
X1082243Y-5381599D01*
X1089152Y-5393842D01*
X1097584Y-5405120D01*
X1107338Y-5415229D01*
X1118311Y-5423966D01*
X1130350Y-5431282D01*
X1143203Y-5436971D01*
X1156665Y-5440934D01*
X1170584Y-5443220D01*
G37*
G36*
X3724605Y-5443626D02*
G01*
X3738626Y-5442305D01*
X3752291Y-5439156D01*
X3765499Y-5434330D01*
X3777996Y-5427827D01*
X3789476Y-5419750D01*
X3799890Y-5410301D01*
X3809034Y-5399633D01*
X3816705Y-5387848D01*
X3822801Y-5375148D01*
X3827221Y-5361838D01*
X3829913Y-5348020D01*
X3830828Y-5334000D01*
X3829913Y-5319979D01*
X3827221Y-5306161D01*
X3822801Y-5292852D01*
X3816705Y-5280152D01*
X3809034Y-5268366D01*
X3799890Y-5257698D01*
X3789476Y-5248249D01*
X3777996Y-5240172D01*
X3765499Y-5233670D01*
X3752291Y-5228844D01*
X3738626Y-5225694D01*
X3724605Y-5224373D01*
X3710584Y-5224780D01*
X3696665Y-5227066D01*
X3683203Y-5231028D01*
X3670350Y-5236718D01*
X3658311Y-5244033D01*
X3647338Y-5252770D01*
X3637584Y-5262880D01*
X3629151Y-5274157D01*
X3622243Y-5286400D01*
X3616960Y-5299405D01*
X3613404Y-5313019D01*
X3611626Y-5326989D01*
X3611626Y-5341010D01*
X3613404Y-5354980D01*
X3616960Y-5368594D01*
X3622243Y-5381599D01*
X3629151Y-5393842D01*
X3637584Y-5405120D01*
X3647338Y-5415229D01*
X3658311Y-5423966D01*
X3670350Y-5431282D01*
X3683203Y-5436971D01*
X3696665Y-5440934D01*
X3710584Y-5443220D01*
G37*
G36*
X7835544Y-4968189D02*
G01*
X7835544Y-4906568D01*
X7774025Y-4906568D01*
X7778750Y-4915458D01*
X7787843Y-4928717D01*
X7798358Y-4940909D01*
X7810195Y-4951780D01*
X7823250Y-4961229D01*
G37*
G36*
X7963255Y-4968189D02*
G01*
X7975549Y-4961229D01*
X7988604Y-4951780D01*
X8000441Y-4940909D01*
X8010956Y-4928717D01*
X8020050Y-4915458D01*
X8024774Y-4906568D01*
X7963255Y-4906568D01*
G37*
G36*
X279044Y-4955336D02*
G01*
X279044Y-4893868D01*
X217424Y-4893868D01*
X218287Y-4895748D01*
X226618Y-4909515D01*
X236423Y-4922266D01*
X247650Y-4933797D01*
X260096Y-4944008D01*
X273608Y-4952695D01*
G37*
G36*
X406755Y-4955336D02*
G01*
X412191Y-4952695D01*
X425704Y-4944008D01*
X438150Y-4933797D01*
X449376Y-4922266D01*
X459181Y-4909515D01*
X467512Y-4895748D01*
X468376Y-4893868D01*
X406755Y-4893868D01*
G37*
G36*
X7773924Y-4778857D02*
G01*
X7835544Y-4778857D01*
X7835544Y-4717338D01*
X7830108Y-4720031D01*
X7816596Y-4728718D01*
X7804150Y-4738878D01*
X7792923Y-4750460D01*
X7783118Y-4763160D01*
X7774787Y-4776927D01*
G37*
G36*
X7963255Y-4778857D02*
G01*
X8024875Y-4778857D01*
X8024012Y-4776927D01*
X8015681Y-4763160D01*
X8005876Y-4750460D01*
X7994650Y-4738878D01*
X7982203Y-4728718D01*
X7968691Y-4720031D01*
X7963255Y-4717338D01*
G37*
G36*
X406755Y-4766157D02*
G01*
X468274Y-4766157D01*
X463550Y-4757267D01*
X454456Y-4743958D01*
X443941Y-4731816D01*
X432104Y-4720945D01*
X419049Y-4711496D01*
X406755Y-4704537D01*
G37*
G36*
X217525Y-4766157D02*
G01*
X279044Y-4766157D01*
X279044Y-4704537D01*
X266750Y-4711496D01*
X253695Y-4720945D01*
X241858Y-4731816D01*
X231343Y-4743958D01*
X222250Y-4757267D01*
G37*
G36*
X7899400Y-4442206D02*
G01*
X7915452Y-4441291D01*
X7931302Y-4438548D01*
X7946745Y-4433976D01*
X7961579Y-4427728D01*
X7975549Y-4419803D01*
X7988604Y-4410354D01*
X8000441Y-4399483D01*
X8010956Y-4387342D01*
X8020050Y-4374032D01*
X8027568Y-4359808D01*
X8033410Y-4344822D01*
X8037474Y-4329277D01*
X8039760Y-4313377D01*
X8040217Y-4297273D01*
X8038846Y-4281271D01*
X8035645Y-4265472D01*
X8030667Y-4250182D01*
X8024012Y-4235551D01*
X8015681Y-4221784D01*
X8005876Y-4209034D01*
X7994650Y-4197502D01*
X7982203Y-4187291D01*
X7968691Y-4178604D01*
X7954264Y-4171543D01*
X7939074Y-4166108D01*
X7923428Y-4162450D01*
X7907426Y-4160621D01*
X7891373Y-4160621D01*
X7875371Y-4162450D01*
X7859725Y-4166108D01*
X7844536Y-4171543D01*
X7830108Y-4178604D01*
X7816596Y-4187291D01*
X7804150Y-4197502D01*
X7792923Y-4209034D01*
X7783118Y-4221784D01*
X7774787Y-4235551D01*
X7768132Y-4250182D01*
X7763154Y-4265472D01*
X7759953Y-4281271D01*
X7758582Y-4297273D01*
X7759039Y-4313377D01*
X7761325Y-4329277D01*
X7765389Y-4344822D01*
X7771231Y-4359808D01*
X7778750Y-4374032D01*
X7787843Y-4387342D01*
X7798358Y-4399483D01*
X7810195Y-4410354D01*
X7823250Y-4419803D01*
X7837220Y-4427728D01*
X7852054Y-4433976D01*
X7867497Y-4438548D01*
X7883347Y-4441291D01*
G37*
G36*
X227533Y-4246118D02*
G01*
X245567Y-4244746D01*
X263398Y-4241495D01*
X280771Y-4236415D01*
X297586Y-4229608D01*
X313537Y-4221073D01*
X328574Y-4210964D01*
X342493Y-4199382D01*
X355142Y-4186428D01*
X366369Y-4172204D01*
X376072Y-4156913D01*
X384149Y-4140708D01*
X390550Y-4123791D01*
X395173Y-4106265D01*
X397967Y-4088384D01*
X398881Y-4070299D01*
X397967Y-4052214D01*
X395173Y-4034332D01*
X390550Y-4016806D01*
X384149Y-3999839D01*
X376072Y-3983634D01*
X366369Y-3968394D01*
X355142Y-3954170D01*
X342493Y-3941216D01*
X328574Y-3929583D01*
X313537Y-3919474D01*
X297586Y-3910990D01*
X280771Y-3904183D01*
X263398Y-3899103D01*
X245567Y-3895851D01*
X227533Y-3894480D01*
X209448Y-3894937D01*
X191465Y-3897223D01*
X173837Y-3901389D01*
X156718Y-3907332D01*
X140309Y-3915054D01*
X124815Y-3924350D01*
X110337Y-3935222D01*
X97028Y-3947515D01*
X85090Y-3961129D01*
X74574Y-3975912D01*
X65684Y-3991660D01*
X58419Y-4008221D01*
X52882Y-4025493D01*
X49225Y-4043222D01*
X47345Y-4061256D01*
X47345Y-4079341D01*
X49225Y-4097375D01*
X52882Y-4115104D01*
X58419Y-4132326D01*
X65684Y-4148937D01*
X74574Y-4164685D01*
X85090Y-4179468D01*
X97028Y-4193032D01*
X110337Y-4205376D01*
X124815Y-4216247D01*
X140309Y-4225544D01*
X156718Y-4233214D01*
X173837Y-4239158D01*
X191465Y-4243324D01*
X209448Y-4245660D01*
G37*
G36*
X7835544Y-3926789D02*
G01*
X7835544Y-3865168D01*
X7774025Y-3865168D01*
X7778750Y-3874058D01*
X7787843Y-3887317D01*
X7798358Y-3899509D01*
X7810195Y-3910380D01*
X7823250Y-3919829D01*
G37*
G36*
X7963255Y-3926789D02*
G01*
X7975549Y-3919829D01*
X7988604Y-3910380D01*
X8000441Y-3899509D01*
X8010956Y-3887317D01*
X8020050Y-3874058D01*
X8024774Y-3865168D01*
X7963255Y-3865168D01*
G37*
G36*
X7012940Y-3921048D02*
G01*
X7012940Y-3870960D01*
X6962749Y-3870960D01*
X6969252Y-3882542D01*
X6977684Y-3893820D01*
X6987438Y-3903929D01*
X6998411Y-3912666D01*
X7010450Y-3919982D01*
G37*
G36*
X4472940Y-3921048D02*
G01*
X4472940Y-3870960D01*
X4422749Y-3870960D01*
X4429252Y-3882542D01*
X4437684Y-3893820D01*
X4447438Y-3903929D01*
X4458411Y-3912666D01*
X4470450Y-3919982D01*
G37*
G36*
X4569460Y-3920998D02*
G01*
X4578096Y-3916527D01*
X4589576Y-3908450D01*
X4599990Y-3899001D01*
X4609134Y-3888333D01*
X4616805Y-3876548D01*
X4619498Y-3870960D01*
X4569460Y-3870960D01*
G37*
G36*
X7109459Y-3920998D02*
G01*
X7118096Y-3916527D01*
X7129576Y-3908450D01*
X7139990Y-3899001D01*
X7149134Y-3888333D01*
X7156805Y-3876548D01*
X7159498Y-3870960D01*
X7109459Y-3870960D01*
G37*
G36*
X1132840Y-3908348D02*
G01*
X1132840Y-3858260D01*
X1082649Y-3858260D01*
X1089152Y-3869842D01*
X1097584Y-3881120D01*
X1107338Y-3891229D01*
X1118311Y-3899966D01*
X1130350Y-3907282D01*
G37*
G36*
X3672840Y-3908348D02*
G01*
X3672840Y-3858260D01*
X3622649Y-3858260D01*
X3629151Y-3869842D01*
X3637584Y-3881120D01*
X3647338Y-3891229D01*
X3658311Y-3899966D01*
X3670350Y-3907282D01*
G37*
G36*
X1229360Y-3908298D02*
G01*
X1237996Y-3903827D01*
X1249476Y-3895750D01*
X1259890Y-3886301D01*
X1269034Y-3875633D01*
X1276705Y-3863848D01*
X1279398Y-3858260D01*
X1229360Y-3858260D01*
G37*
G36*
X3769360Y-3908298D02*
G01*
X3777996Y-3903827D01*
X3789476Y-3895750D01*
X3799890Y-3886301D01*
X3809034Y-3875633D01*
X3816705Y-3863848D01*
X3819398Y-3858260D01*
X3769360Y-3858260D01*
G37*
G36*
X4569460Y-3774440D02*
G01*
X4619498Y-3774440D01*
X4616805Y-3768851D01*
X4609134Y-3757066D01*
X4599990Y-3746398D01*
X4589576Y-3736949D01*
X4578096Y-3728872D01*
X4569460Y-3724401D01*
G37*
G36*
X7109459Y-3774440D02*
G01*
X7159498Y-3774440D01*
X7156805Y-3768851D01*
X7149134Y-3757066D01*
X7139990Y-3746398D01*
X7129576Y-3736949D01*
X7118096Y-3728872D01*
X7109459Y-3724401D01*
G37*
G36*
X6962749Y-3774440D02*
G01*
X7012940Y-3774440D01*
X7012940Y-3724351D01*
X7010450Y-3725418D01*
X6998411Y-3732733D01*
X6987438Y-3741470D01*
X6977684Y-3751579D01*
X6969252Y-3762857D01*
G37*
G36*
X4422749Y-3774440D02*
G01*
X4472940Y-3774440D01*
X4472940Y-3724351D01*
X4470450Y-3725418D01*
X4458411Y-3732733D01*
X4447438Y-3741470D01*
X4437684Y-3751579D01*
X4429252Y-3762857D01*
G37*
G36*
X1229360Y-3761740D02*
G01*
X1279398Y-3761740D01*
X1276705Y-3756151D01*
X1269034Y-3744366D01*
X1259890Y-3733698D01*
X1249476Y-3724249D01*
X1237996Y-3716172D01*
X1229360Y-3711701D01*
G37*
G36*
X3769360Y-3761740D02*
G01*
X3819398Y-3761740D01*
X3816705Y-3756151D01*
X3809034Y-3744366D01*
X3799890Y-3733698D01*
X3789476Y-3724249D01*
X3777996Y-3716172D01*
X3769360Y-3711701D01*
G37*
G36*
X1082649Y-3761740D02*
G01*
X1132840Y-3761740D01*
X1132840Y-3711651D01*
X1130350Y-3712718D01*
X1118311Y-3720033D01*
X1107338Y-3728770D01*
X1097584Y-3738879D01*
X1089152Y-3750157D01*
G37*
G36*
X3622649Y-3761740D02*
G01*
X3672840Y-3761740D01*
X3672840Y-3711651D01*
X3670350Y-3712718D01*
X3658311Y-3720033D01*
X3647338Y-3728770D01*
X3637584Y-3738879D01*
X3629151Y-3750157D01*
G37*
G36*
X7773924Y-3737457D02*
G01*
X7835544Y-3737457D01*
X7835544Y-3675938D01*
X7830108Y-3678631D01*
X7816596Y-3687318D01*
X7804150Y-3697478D01*
X7792923Y-3709060D01*
X7783118Y-3721760D01*
X7774787Y-3735527D01*
G37*
G36*
X7963255Y-3737457D02*
G01*
X8024875Y-3737457D01*
X8024012Y-3735527D01*
X8015681Y-3721760D01*
X8005876Y-3709060D01*
X7994650Y-3697478D01*
X7982203Y-3687318D01*
X7968691Y-3678631D01*
X7963255Y-3675938D01*
G37*
G36*
X7823200Y-3266948D02*
G01*
X7836865Y-3266033D01*
X7850276Y-3263341D01*
X7863230Y-3258972D01*
X7875524Y-3252927D01*
X7886903Y-3245307D01*
X7897164Y-3236264D01*
X7906207Y-3226003D01*
X7913827Y-3214624D01*
X7919872Y-3202330D01*
X7924241Y-3189376D01*
X7926933Y-3175965D01*
X7927848Y-3162300D01*
X7926933Y-3148634D01*
X7924241Y-3135223D01*
X7919872Y-3122269D01*
X7913827Y-3109976D01*
X7906207Y-3098596D01*
X7897164Y-3088335D01*
X7886903Y-3079292D01*
X7875524Y-3071672D01*
X7863230Y-3065627D01*
X7850276Y-3061258D01*
X7836865Y-3058566D01*
X7823200Y-3057652D01*
X7809534Y-3058566D01*
X7796123Y-3061258D01*
X7783169Y-3065627D01*
X7770875Y-3071672D01*
X7759496Y-3079292D01*
X7749235Y-3088335D01*
X7740192Y-3098596D01*
X7732572Y-3109976D01*
X7726527Y-3122269D01*
X7722158Y-3135223D01*
X7719466Y-3148634D01*
X7718552Y-3162300D01*
X7719466Y-3175965D01*
X7722158Y-3189376D01*
X7726527Y-3202330D01*
X7732572Y-3214624D01*
X7740192Y-3226003D01*
X7749235Y-3236264D01*
X7759496Y-3245307D01*
X7770875Y-3252927D01*
X7783169Y-3258972D01*
X7796123Y-3263341D01*
X7809534Y-3266033D01*
G37*
G36*
X7745018Y-3012948D02*
G01*
X7901381Y-3012948D01*
X7907680Y-3012236D01*
X7913166Y-3010306D01*
X7918043Y-3007258D01*
X7922158Y-3003143D01*
X7925206Y-2998266D01*
X7927136Y-2992780D01*
X7927848Y-2986481D01*
X7927848Y-2830118D01*
X7927136Y-2823819D01*
X7925206Y-2818333D01*
X7922158Y-2813456D01*
X7918043Y-2809341D01*
X7913166Y-2806293D01*
X7907680Y-2804363D01*
X7901381Y-2803652D01*
X7745018Y-2803652D01*
X7738719Y-2804363D01*
X7733233Y-2806293D01*
X7728356Y-2809341D01*
X7724241Y-2813456D01*
X7721193Y-2818333D01*
X7719263Y-2823819D01*
X7718552Y-2830118D01*
X7718552Y-2986481D01*
X7719263Y-2992780D01*
X7721193Y-2998266D01*
X7724241Y-3003143D01*
X7728356Y-3007258D01*
X7733233Y-3010306D01*
X7738719Y-3012236D01*
G37*
G36*
X227533Y-2746146D02*
G01*
X245617Y-2744724D01*
X263398Y-2741472D01*
X280822Y-2736443D01*
X297586Y-2729585D01*
X313537Y-2721102D01*
X328574Y-2710992D01*
X342493Y-2699359D01*
X355142Y-2686405D01*
X366369Y-2672232D01*
X376072Y-2656941D01*
X384200Y-2640736D01*
X390550Y-2623769D01*
X395173Y-2606294D01*
X397967Y-2588361D01*
X398881Y-2570276D01*
X397967Y-2552192D01*
X395173Y-2534310D01*
X390550Y-2516784D01*
X384200Y-2499868D01*
X376072Y-2483662D01*
X366369Y-2468372D01*
X355142Y-2454198D01*
X342493Y-2441194D01*
X328574Y-2429611D01*
X313537Y-2419502D01*
X297586Y-2410968D01*
X280822Y-2404160D01*
X263398Y-2399080D01*
X245617Y-2395880D01*
X227533Y-2394458D01*
X209448Y-2394915D01*
X191465Y-2397252D01*
X173837Y-2401417D01*
X156768Y-2407361D01*
X140360Y-2415032D01*
X124815Y-2424379D01*
X110337Y-2435250D01*
X97028Y-2447544D01*
X85090Y-2461158D01*
X74574Y-2475890D01*
X65684Y-2491638D01*
X58419Y-2508250D01*
X52933Y-2525522D01*
X49225Y-2543251D01*
X47345Y-2561234D01*
X47345Y-2579370D01*
X49225Y-2597353D01*
X52933Y-2615082D01*
X58419Y-2632354D01*
X65684Y-2648915D01*
X74574Y-2664714D01*
X85090Y-2679446D01*
X97028Y-2693060D01*
X110337Y-2705354D01*
X124815Y-2716225D01*
X140360Y-2725572D01*
X156768Y-2733243D01*
X173837Y-2739186D01*
X191465Y-2743352D01*
X209448Y-2745689D01*
G37*
G36*
X6027521Y-2746146D02*
G01*
X6045555Y-2744724D01*
X6063386Y-2741472D01*
X6080760Y-2736443D01*
X6097574Y-2729585D01*
X6113526Y-2721102D01*
X6128562Y-2710992D01*
X6142482Y-2699410D01*
X6155131Y-2686405D01*
X6166358Y-2672232D01*
X6176060Y-2656941D01*
X6184138Y-2640736D01*
X6190538Y-2623769D01*
X6195161Y-2606294D01*
X6197955Y-2588412D01*
X6198870Y-2570327D01*
X6197955Y-2552192D01*
X6195161Y-2534310D01*
X6190538Y-2516835D01*
X6184138Y-2499868D01*
X6176060Y-2483662D01*
X6166358Y-2468372D01*
X6155131Y-2454198D01*
X6142482Y-2441194D01*
X6128562Y-2429611D01*
X6113526Y-2419502D01*
X6097574Y-2411018D01*
X6080760Y-2404160D01*
X6063386Y-2399131D01*
X6045555Y-2395880D01*
X6027521Y-2394458D01*
X6009436Y-2394915D01*
X5991453Y-2397252D01*
X5973826Y-2401417D01*
X5956706Y-2407361D01*
X5940298Y-2415032D01*
X5924804Y-2424379D01*
X5910326Y-2435250D01*
X5897016Y-2447544D01*
X5885078Y-2461158D01*
X5874562Y-2475890D01*
X5865672Y-2491638D01*
X5858408Y-2508250D01*
X5852871Y-2525522D01*
X5849213Y-2543251D01*
X5847334Y-2561234D01*
X5847334Y-2579370D01*
X5849213Y-2597353D01*
X5852871Y-2615082D01*
X5858408Y-2632354D01*
X5865672Y-2648966D01*
X5874562Y-2664714D01*
X5885078Y-2679446D01*
X5897016Y-2693060D01*
X5910326Y-2705354D01*
X5924804Y-2716225D01*
X5940298Y-2725572D01*
X5956706Y-2733243D01*
X5973826Y-2739186D01*
X5991453Y-2743352D01*
X6009436Y-2745689D01*
G37*
G36*
X7027519Y-2746146D02*
G01*
X7045553Y-2744724D01*
X7063384Y-2741472D01*
X7080758Y-2736443D01*
X7097572Y-2729585D01*
X7113524Y-2721102D01*
X7128560Y-2710992D01*
X7142480Y-2699359D01*
X7155129Y-2686405D01*
X7166356Y-2672232D01*
X7176058Y-2656941D01*
X7184136Y-2640736D01*
X7190536Y-2623769D01*
X7195159Y-2606294D01*
X7197953Y-2588361D01*
X7198868Y-2570276D01*
X7197953Y-2552192D01*
X7195159Y-2534310D01*
X7190536Y-2516784D01*
X7184136Y-2499868D01*
X7176058Y-2483662D01*
X7166356Y-2468372D01*
X7155129Y-2454198D01*
X7142480Y-2441194D01*
X7128560Y-2429611D01*
X7113524Y-2419502D01*
X7097572Y-2410968D01*
X7080758Y-2404160D01*
X7063384Y-2399080D01*
X7045553Y-2395880D01*
X7027519Y-2394458D01*
X7009434Y-2394915D01*
X6991451Y-2397252D01*
X6973824Y-2401417D01*
X6956704Y-2407361D01*
X6940296Y-2415032D01*
X6924802Y-2424379D01*
X6910324Y-2435250D01*
X6897014Y-2447544D01*
X6885076Y-2461158D01*
X6874560Y-2475890D01*
X6865670Y-2491638D01*
X6858406Y-2508250D01*
X6852869Y-2525522D01*
X6849211Y-2543251D01*
X6847331Y-2561234D01*
X6847331Y-2579370D01*
X6849211Y-2597353D01*
X6852869Y-2615082D01*
X6858406Y-2632354D01*
X6865670Y-2648915D01*
X6874560Y-2664714D01*
X6885076Y-2679446D01*
X6897014Y-2693060D01*
X6910324Y-2705354D01*
X6924802Y-2716225D01*
X6940296Y-2725572D01*
X6956704Y-2733243D01*
X6973824Y-2739186D01*
X6991451Y-2743352D01*
X7009434Y-2745689D01*
G37*
G36*
X4422038Y-2736545D02*
G01*
X4431588Y-2735275D01*
X4440783Y-2732481D01*
X4449419Y-2728112D01*
X4457192Y-2722372D01*
X4463846Y-2715412D01*
X4469231Y-2707436D01*
X4473244Y-2698648D01*
X4475632Y-2689301D01*
X4476496Y-2679700D01*
X4475632Y-2670098D01*
X4473244Y-2660751D01*
X4469231Y-2651963D01*
X4463846Y-2643987D01*
X4457192Y-2637028D01*
X4449419Y-2631287D01*
X4440783Y-2626918D01*
X4431588Y-2624124D01*
X4417923Y-2622194D01*
X4414418Y-2619908D01*
X3958590Y-2164130D01*
X3956558Y-2161184D01*
X3955643Y-2157780D01*
X3954932Y-2149398D01*
X3952544Y-2140051D01*
X3948531Y-2131263D01*
X3943146Y-2123287D01*
X3936492Y-2116328D01*
X3928719Y-2110587D01*
X3920083Y-2106218D01*
X3910888Y-2103424D01*
X3901338Y-2102154D01*
X3891686Y-2102612D01*
X3882237Y-2104644D01*
X3873296Y-2108200D01*
X3865067Y-2113280D01*
X3857853Y-2119630D01*
X3851757Y-2127148D01*
X3847084Y-2135581D01*
X3843883Y-2144674D01*
X3842258Y-2154174D01*
X3842258Y-2163826D01*
X3843883Y-2173325D01*
X3847084Y-2182418D01*
X3851757Y-2190851D01*
X3857853Y-2198370D01*
X3865067Y-2204720D01*
X3873296Y-2209800D01*
X3882237Y-2213356D01*
X3891686Y-2215388D01*
X3897172Y-2215642D01*
X3900830Y-2216505D01*
X3903929Y-2218588D01*
X4359960Y-2674670D01*
X4362145Y-2677972D01*
X4362958Y-2681833D01*
X4362958Y-2684526D01*
X4364583Y-2694025D01*
X4367784Y-2703118D01*
X4372457Y-2711551D01*
X4378553Y-2719070D01*
X4385767Y-2725420D01*
X4393996Y-2730500D01*
X4402937Y-2734056D01*
X4412386Y-2736088D01*
G37*
G36*
X7810500Y-2301748D02*
G01*
X7824165Y-2300833D01*
X7837576Y-2298141D01*
X7850530Y-2293772D01*
X7862824Y-2287727D01*
X7874203Y-2280107D01*
X7884464Y-2271064D01*
X7893507Y-2260803D01*
X7901127Y-2249424D01*
X7907172Y-2237130D01*
X7911541Y-2224176D01*
X7914233Y-2210765D01*
X7915148Y-2197100D01*
X7914233Y-2183434D01*
X7911541Y-2170023D01*
X7907172Y-2157069D01*
X7901127Y-2144776D01*
X7893507Y-2133396D01*
X7884464Y-2123135D01*
X7874203Y-2114092D01*
X7862824Y-2106472D01*
X7850530Y-2100427D01*
X7837576Y-2096058D01*
X7824165Y-2093366D01*
X7810500Y-2092452D01*
X7796834Y-2093366D01*
X7783423Y-2096058D01*
X7770469Y-2100427D01*
X7758175Y-2106472D01*
X7746796Y-2114092D01*
X7736535Y-2123135D01*
X7727492Y-2133396D01*
X7719872Y-2144776D01*
X7713827Y-2157069D01*
X7709458Y-2170023D01*
X7706766Y-2183434D01*
X7705852Y-2197100D01*
X7706766Y-2210765D01*
X7709458Y-2224176D01*
X7713827Y-2237130D01*
X7719872Y-2249424D01*
X7727492Y-2260803D01*
X7736535Y-2271064D01*
X7746796Y-2280107D01*
X7758175Y-2287727D01*
X7770469Y-2293772D01*
X7783423Y-2298141D01*
X7796834Y-2300833D01*
G37*
G36*
X2288438Y-2139645D02*
G01*
X2297988Y-2138375D01*
X2307183Y-2135581D01*
X2315819Y-2131212D01*
X2327859Y-2122220D01*
X2331821Y-2121408D01*
X3129280Y-2121408D01*
X3132836Y-2122068D01*
X3135985Y-2123948D01*
X3141167Y-2128520D01*
X3149396Y-2133600D01*
X3158337Y-2137156D01*
X3167786Y-2139188D01*
X3177438Y-2139645D01*
X3186988Y-2138375D01*
X3196183Y-2135581D01*
X3204819Y-2131212D01*
X3212592Y-2125472D01*
X3219246Y-2118512D01*
X3224631Y-2110536D01*
X3228644Y-2101748D01*
X3231032Y-2092401D01*
X3231896Y-2082800D01*
X3231032Y-2073198D01*
X3228644Y-2063851D01*
X3224631Y-2055063D01*
X3219246Y-2047087D01*
X3212592Y-2040128D01*
X3204819Y-2034387D01*
X3196183Y-2030018D01*
X3186988Y-2027224D01*
X3177438Y-2025954D01*
X3167786Y-2026412D01*
X3158337Y-2028443D01*
X3149396Y-2032000D01*
X3141167Y-2037080D01*
X3135985Y-2041652D01*
X3132836Y-2043531D01*
X3129280Y-2044192D01*
X2331821Y-2044192D01*
X2327859Y-2043379D01*
X2315819Y-2034387D01*
X2307183Y-2030018D01*
X2297988Y-2027224D01*
X2288438Y-2025954D01*
X2278786Y-2026412D01*
X2269337Y-2028443D01*
X2260396Y-2032000D01*
X2252167Y-2037080D01*
X2244953Y-2043430D01*
X2238857Y-2050948D01*
X2234184Y-2059381D01*
X2230983Y-2068474D01*
X2229358Y-2077974D01*
X2229358Y-2087625D01*
X2230983Y-2097125D01*
X2234184Y-2106218D01*
X2238857Y-2114651D01*
X2244953Y-2122170D01*
X2252167Y-2128520D01*
X2260396Y-2133600D01*
X2269337Y-2137156D01*
X2278786Y-2139188D01*
G37*
G36*
X7732318Y-2047748D02*
G01*
X7888681Y-2047748D01*
X7894980Y-2047036D01*
X7900466Y-2045106D01*
X7905343Y-2042058D01*
X7909458Y-2037943D01*
X7912506Y-2033066D01*
X7914436Y-2027580D01*
X7915148Y-2021281D01*
X7915148Y-1864918D01*
X7914436Y-1858619D01*
X7912506Y-1853133D01*
X7909458Y-1848256D01*
X7905343Y-1844141D01*
X7900466Y-1841093D01*
X7894980Y-1839163D01*
X7888681Y-1838452D01*
X7732318Y-1838452D01*
X7726019Y-1839163D01*
X7720533Y-1841093D01*
X7715656Y-1844141D01*
X7711541Y-1848256D01*
X7708493Y-1853133D01*
X7706563Y-1858619D01*
X7705852Y-1864918D01*
X7705852Y-2021281D01*
X7706563Y-2027580D01*
X7708493Y-2033066D01*
X7711541Y-2037943D01*
X7715656Y-2042058D01*
X7720533Y-2045106D01*
X7726019Y-2047036D01*
G37*
G36*
X7795818Y-1374648D02*
G01*
X7828280Y-1374648D01*
X7828280Y-1315720D01*
X7769352Y-1315720D01*
X7769352Y-1348181D01*
X7770063Y-1354480D01*
X7771993Y-1359966D01*
X7775041Y-1364843D01*
X7779156Y-1368958D01*
X7784033Y-1372006D01*
X7789519Y-1373936D01*
G37*
G36*
X7919720Y-1374648D02*
G01*
X7952181Y-1374648D01*
X7958480Y-1373936D01*
X7963966Y-1372006D01*
X7968843Y-1368958D01*
X7972958Y-1364843D01*
X7976006Y-1359966D01*
X7977936Y-1354480D01*
X7978648Y-1348181D01*
X7978648Y-1315720D01*
X7919720Y-1315720D01*
G37*
G36*
X1356715Y-1245006D02*
G01*
X1370279Y-1243685D01*
X1383538Y-1240485D01*
X1396288Y-1235608D01*
X1408226Y-1229055D01*
X1419199Y-1220978D01*
X1429004Y-1211478D01*
X1437487Y-1200759D01*
X1444396Y-1189024D01*
X1449730Y-1176477D01*
X1453337Y-1163320D01*
X1455166Y-1149807D01*
X1455166Y-1136192D01*
X1453337Y-1122680D01*
X1449730Y-1109522D01*
X1444396Y-1096975D01*
X1437487Y-1085240D01*
X1429004Y-1074521D01*
X1419199Y-1065022D01*
X1408226Y-1056944D01*
X1396288Y-1050391D01*
X1383538Y-1045514D01*
X1370279Y-1042314D01*
X1356715Y-1040993D01*
X1343101Y-1041450D01*
X1329639Y-1043686D01*
X1316634Y-1047750D01*
X1304239Y-1053490D01*
X1292758Y-1060805D01*
X1282344Y-1069594D01*
X1273200Y-1079754D01*
X1265478Y-1090980D01*
X1259332Y-1103122D01*
X1254861Y-1116025D01*
X1252118Y-1129385D01*
X1251204Y-1143000D01*
X1252118Y-1156614D01*
X1254861Y-1169974D01*
X1259332Y-1182878D01*
X1265478Y-1195019D01*
X1273200Y-1206246D01*
X1282344Y-1216406D01*
X1292758Y-1225194D01*
X1304239Y-1232509D01*
X1316634Y-1238250D01*
X1329639Y-1242314D01*
X1343101Y-1244549D01*
G37*
G36*
X1102715Y-1245006D02*
G01*
X1116279Y-1243685D01*
X1129538Y-1240485D01*
X1142288Y-1235608D01*
X1154226Y-1229055D01*
X1165199Y-1220978D01*
X1175004Y-1211478D01*
X1183487Y-1200759D01*
X1190396Y-1189024D01*
X1195730Y-1176477D01*
X1199337Y-1163320D01*
X1201166Y-1149807D01*
X1201166Y-1136192D01*
X1199337Y-1122680D01*
X1195730Y-1109522D01*
X1190396Y-1096975D01*
X1183487Y-1085240D01*
X1175004Y-1074521D01*
X1165199Y-1065022D01*
X1154226Y-1056944D01*
X1142288Y-1050391D01*
X1129538Y-1045514D01*
X1116279Y-1042314D01*
X1102715Y-1040993D01*
X1089101Y-1041450D01*
X1075639Y-1043686D01*
X1062634Y-1047750D01*
X1050239Y-1053490D01*
X1038758Y-1060805D01*
X1028344Y-1069594D01*
X1019200Y-1079754D01*
X1011478Y-1090980D01*
X1005332Y-1103122D01*
X1000861Y-1116025D01*
X998118Y-1129385D01*
X997203Y-1143000D01*
X998118Y-1156614D01*
X1000861Y-1169974D01*
X1005332Y-1182878D01*
X1011478Y-1195019D01*
X1019200Y-1206246D01*
X1028344Y-1216406D01*
X1038758Y-1225194D01*
X1050239Y-1232509D01*
X1062634Y-1238250D01*
X1075639Y-1242314D01*
X1089101Y-1244549D01*
G37*
G36*
X1610715Y-1245006D02*
G01*
X1624279Y-1243685D01*
X1637538Y-1240485D01*
X1650288Y-1235608D01*
X1662226Y-1229055D01*
X1673199Y-1220978D01*
X1683004Y-1211478D01*
X1691487Y-1200759D01*
X1698396Y-1189024D01*
X1703730Y-1176477D01*
X1707337Y-1163320D01*
X1709166Y-1149807D01*
X1709166Y-1136192D01*
X1707337Y-1122680D01*
X1703730Y-1109522D01*
X1698396Y-1096975D01*
X1691487Y-1085240D01*
X1683004Y-1074521D01*
X1673199Y-1065022D01*
X1662226Y-1056944D01*
X1650288Y-1050391D01*
X1637538Y-1045514D01*
X1624279Y-1042314D01*
X1610715Y-1040993D01*
X1597101Y-1041450D01*
X1583639Y-1043686D01*
X1570634Y-1047750D01*
X1558239Y-1053490D01*
X1546758Y-1060805D01*
X1536344Y-1069594D01*
X1527200Y-1079754D01*
X1519478Y-1090980D01*
X1513332Y-1103122D01*
X1508861Y-1116025D01*
X1506118Y-1129385D01*
X1505204Y-1143000D01*
X1506118Y-1156614D01*
X1508861Y-1169974D01*
X1513332Y-1182878D01*
X1519478Y-1195019D01*
X1527200Y-1206246D01*
X1536344Y-1216406D01*
X1546758Y-1225194D01*
X1558239Y-1232509D01*
X1570634Y-1238250D01*
X1583639Y-1242314D01*
X1597101Y-1244549D01*
G37*
G36*
X848715Y-1245006D02*
G01*
X862279Y-1243685D01*
X875537Y-1240485D01*
X888288Y-1235608D01*
X900226Y-1229055D01*
X911199Y-1220978D01*
X921003Y-1211478D01*
X929487Y-1200759D01*
X936396Y-1189024D01*
X941730Y-1176477D01*
X945337Y-1163320D01*
X947166Y-1149807D01*
X947166Y-1136192D01*
X945337Y-1122680D01*
X941730Y-1109522D01*
X936396Y-1096975D01*
X929487Y-1085240D01*
X921003Y-1074521D01*
X911199Y-1065022D01*
X900226Y-1056944D01*
X888288Y-1050391D01*
X875537Y-1045514D01*
X862279Y-1042314D01*
X848715Y-1040993D01*
X835101Y-1041450D01*
X821639Y-1043686D01*
X808634Y-1047750D01*
X796239Y-1053490D01*
X784758Y-1060805D01*
X774344Y-1069594D01*
X765200Y-1079754D01*
X757478Y-1090980D01*
X751332Y-1103122D01*
X746861Y-1116025D01*
X744118Y-1129385D01*
X743204Y-1143000D01*
X744118Y-1156614D01*
X746861Y-1169974D01*
X751332Y-1182878D01*
X757478Y-1195019D01*
X765200Y-1206246D01*
X774344Y-1216406D01*
X784758Y-1225194D01*
X796239Y-1232509D01*
X808634Y-1238250D01*
X821639Y-1242314D01*
X835101Y-1244549D01*
G37*
G36*
X594715Y-1245006D02*
G01*
X608279Y-1243685D01*
X621538Y-1240485D01*
X634288Y-1235608D01*
X646226Y-1229055D01*
X657199Y-1220978D01*
X667004Y-1211478D01*
X675487Y-1200759D01*
X682396Y-1189024D01*
X687730Y-1176477D01*
X691337Y-1163320D01*
X693166Y-1149807D01*
X693166Y-1136192D01*
X691337Y-1122680D01*
X687730Y-1109522D01*
X682396Y-1096975D01*
X675487Y-1085240D01*
X667004Y-1074521D01*
X657199Y-1065022D01*
X646226Y-1056944D01*
X634288Y-1050391D01*
X621538Y-1045514D01*
X608279Y-1042314D01*
X594715Y-1040993D01*
X581101Y-1041450D01*
X567639Y-1043686D01*
X554634Y-1047750D01*
X542239Y-1053490D01*
X530758Y-1060805D01*
X520344Y-1069594D01*
X511200Y-1079754D01*
X503478Y-1090980D01*
X497332Y-1103122D01*
X492861Y-1116025D01*
X490118Y-1129385D01*
X489204Y-1143000D01*
X490118Y-1156614D01*
X492861Y-1169974D01*
X497332Y-1182878D01*
X503478Y-1195019D01*
X511200Y-1206246D01*
X520344Y-1216406D01*
X530758Y-1225194D01*
X542239Y-1232509D01*
X554634Y-1238250D01*
X567639Y-1242314D01*
X581101Y-1244549D01*
G37*
G36*
X1864715Y-1245006D02*
G01*
X1878279Y-1243685D01*
X1891538Y-1240485D01*
X1904288Y-1235608D01*
X1916226Y-1229055D01*
X1927199Y-1220978D01*
X1937004Y-1211478D01*
X1945487Y-1200759D01*
X1952396Y-1189024D01*
X1957730Y-1176477D01*
X1961337Y-1163320D01*
X1963166Y-1149807D01*
X1963166Y-1136192D01*
X1961337Y-1122680D01*
X1957730Y-1109522D01*
X1952396Y-1096975D01*
X1945487Y-1085240D01*
X1937004Y-1074521D01*
X1927199Y-1065022D01*
X1916226Y-1056944D01*
X1904288Y-1050391D01*
X1891538Y-1045514D01*
X1878279Y-1042314D01*
X1864715Y-1040993D01*
X1851101Y-1041450D01*
X1837639Y-1043686D01*
X1824634Y-1047750D01*
X1812239Y-1053490D01*
X1800758Y-1060805D01*
X1790344Y-1069594D01*
X1781200Y-1079754D01*
X1773478Y-1090980D01*
X1767332Y-1103122D01*
X1762861Y-1116025D01*
X1760118Y-1129385D01*
X1759204Y-1143000D01*
X1760118Y-1156614D01*
X1762861Y-1169974D01*
X1767332Y-1182878D01*
X1773478Y-1195019D01*
X1781200Y-1206246D01*
X1790344Y-1216406D01*
X1800758Y-1225194D01*
X1812239Y-1232509D01*
X1824634Y-1238250D01*
X1837639Y-1242314D01*
X1851101Y-1244549D01*
G37*
G36*
X2372715Y-1245006D02*
G01*
X2386279Y-1243685D01*
X2399538Y-1240485D01*
X2412288Y-1235608D01*
X2424226Y-1229055D01*
X2435199Y-1220978D01*
X2445004Y-1211478D01*
X2453487Y-1200759D01*
X2460396Y-1189024D01*
X2465730Y-1176477D01*
X2469337Y-1163320D01*
X2471166Y-1149807D01*
X2471166Y-1136192D01*
X2469337Y-1122680D01*
X2465730Y-1109522D01*
X2460396Y-1096975D01*
X2453487Y-1085240D01*
X2445004Y-1074521D01*
X2435199Y-1065022D01*
X2424226Y-1056944D01*
X2412288Y-1050391D01*
X2399538Y-1045514D01*
X2386279Y-1042314D01*
X2372715Y-1040993D01*
X2359101Y-1041450D01*
X2345639Y-1043686D01*
X2332634Y-1047750D01*
X2320239Y-1053490D01*
X2308758Y-1060805D01*
X2298344Y-1069594D01*
X2289200Y-1079754D01*
X2281478Y-1090980D01*
X2275332Y-1103122D01*
X2270861Y-1116025D01*
X2268118Y-1129385D01*
X2267204Y-1143000D01*
X2268118Y-1156614D01*
X2270861Y-1169974D01*
X2275332Y-1182878D01*
X2281478Y-1195019D01*
X2289200Y-1206246D01*
X2298344Y-1216406D01*
X2308758Y-1225194D01*
X2320239Y-1232509D01*
X2332634Y-1238250D01*
X2345639Y-1242314D01*
X2359101Y-1244549D01*
G37*
G36*
X4404715Y-1245006D02*
G01*
X4418279Y-1243685D01*
X4431538Y-1240485D01*
X4444288Y-1235608D01*
X4456226Y-1229055D01*
X4467199Y-1220978D01*
X4477004Y-1211478D01*
X4485487Y-1200759D01*
X4492396Y-1189024D01*
X4497730Y-1176477D01*
X4501337Y-1163320D01*
X4503166Y-1149807D01*
X4503166Y-1136192D01*
X4501337Y-1122680D01*
X4497730Y-1109522D01*
X4492396Y-1096975D01*
X4485487Y-1085240D01*
X4477004Y-1074521D01*
X4467199Y-1065022D01*
X4456226Y-1056944D01*
X4444288Y-1050391D01*
X4431538Y-1045514D01*
X4418279Y-1042314D01*
X4404715Y-1040993D01*
X4391101Y-1041450D01*
X4377639Y-1043686D01*
X4364634Y-1047750D01*
X4352239Y-1053490D01*
X4340758Y-1060805D01*
X4330344Y-1069594D01*
X4321200Y-1079754D01*
X4313478Y-1090980D01*
X4307332Y-1103122D01*
X4302861Y-1116025D01*
X4300118Y-1129385D01*
X4299204Y-1143000D01*
X4300118Y-1156614D01*
X4302861Y-1169974D01*
X4307332Y-1182878D01*
X4313478Y-1195019D01*
X4321200Y-1206246D01*
X4330344Y-1216406D01*
X4340758Y-1225194D01*
X4352239Y-1232509D01*
X4364634Y-1238250D01*
X4377639Y-1242314D01*
X4391101Y-1244549D01*
G37*
G36*
X2118715Y-1245006D02*
G01*
X2132279Y-1243685D01*
X2145538Y-1240485D01*
X2158288Y-1235608D01*
X2170226Y-1229055D01*
X2181199Y-1220978D01*
X2191004Y-1211478D01*
X2199487Y-1200759D01*
X2206396Y-1189024D01*
X2211730Y-1176477D01*
X2215337Y-1163320D01*
X2217166Y-1149807D01*
X2217166Y-1136192D01*
X2215337Y-1122680D01*
X2211730Y-1109522D01*
X2206396Y-1096975D01*
X2199487Y-1085240D01*
X2191004Y-1074521D01*
X2181199Y-1065022D01*
X2170226Y-1056944D01*
X2158288Y-1050391D01*
X2145538Y-1045514D01*
X2132279Y-1042314D01*
X2118715Y-1040993D01*
X2105101Y-1041450D01*
X2091639Y-1043686D01*
X2078634Y-1047750D01*
X2066239Y-1053490D01*
X2054758Y-1060805D01*
X2044344Y-1069594D01*
X2035200Y-1079754D01*
X2027478Y-1090980D01*
X2021332Y-1103122D01*
X2016861Y-1116025D01*
X2014118Y-1129385D01*
X2013204Y-1143000D01*
X2014118Y-1156614D01*
X2016861Y-1169974D01*
X2021332Y-1182878D01*
X2027478Y-1195019D01*
X2035200Y-1206246D01*
X2044344Y-1216406D01*
X2054758Y-1225194D01*
X2066239Y-1232509D01*
X2078634Y-1238250D01*
X2091639Y-1242314D01*
X2105101Y-1244549D01*
G37*
G36*
X4658715Y-1245006D02*
G01*
X4672279Y-1243685D01*
X4685538Y-1240485D01*
X4698288Y-1235608D01*
X4710226Y-1229055D01*
X4721199Y-1220978D01*
X4731004Y-1211478D01*
X4739487Y-1200759D01*
X4746396Y-1189024D01*
X4751730Y-1176477D01*
X4755337Y-1163320D01*
X4757166Y-1149807D01*
X4757166Y-1136192D01*
X4755337Y-1122680D01*
X4751730Y-1109522D01*
X4746396Y-1096975D01*
X4739487Y-1085240D01*
X4731004Y-1074521D01*
X4721199Y-1065022D01*
X4710226Y-1056944D01*
X4698288Y-1050391D01*
X4685538Y-1045514D01*
X4672279Y-1042314D01*
X4658715Y-1040993D01*
X4645101Y-1041450D01*
X4631639Y-1043686D01*
X4618634Y-1047750D01*
X4606239Y-1053490D01*
X4594758Y-1060805D01*
X4584344Y-1069594D01*
X4575200Y-1079754D01*
X4567478Y-1090980D01*
X4561332Y-1103122D01*
X4556861Y-1116025D01*
X4554118Y-1129385D01*
X4553204Y-1143000D01*
X4554118Y-1156614D01*
X4556861Y-1169974D01*
X4561332Y-1182878D01*
X4567478Y-1195019D01*
X4575200Y-1206246D01*
X4584344Y-1216406D01*
X4594758Y-1225194D01*
X4606239Y-1232509D01*
X4618634Y-1238250D01*
X4631639Y-1242314D01*
X4645101Y-1244549D01*
G37*
G36*
X3896715Y-1245006D02*
G01*
X3910279Y-1243685D01*
X3923537Y-1240485D01*
X3936288Y-1235608D01*
X3948226Y-1229055D01*
X3959199Y-1220978D01*
X3969004Y-1211478D01*
X3977487Y-1200759D01*
X3984396Y-1189024D01*
X3989730Y-1176477D01*
X3993337Y-1163320D01*
X3995165Y-1149807D01*
X3995165Y-1136192D01*
X3993337Y-1122680D01*
X3989730Y-1109522D01*
X3984396Y-1096975D01*
X3977487Y-1085240D01*
X3969004Y-1074521D01*
X3959199Y-1065022D01*
X3948226Y-1056944D01*
X3936288Y-1050391D01*
X3923537Y-1045514D01*
X3910279Y-1042314D01*
X3896715Y-1040993D01*
X3883101Y-1041450D01*
X3869639Y-1043686D01*
X3856634Y-1047750D01*
X3844239Y-1053490D01*
X3832758Y-1060805D01*
X3822344Y-1069594D01*
X3813200Y-1079754D01*
X3805478Y-1090980D01*
X3799332Y-1103122D01*
X3794861Y-1116025D01*
X3792118Y-1129385D01*
X3791204Y-1143000D01*
X3792118Y-1156614D01*
X3794861Y-1169974D01*
X3799332Y-1182878D01*
X3805478Y-1195019D01*
X3813200Y-1206246D01*
X3822344Y-1216406D01*
X3832758Y-1225194D01*
X3844239Y-1232509D01*
X3856634Y-1238250D01*
X3869639Y-1242314D01*
X3883101Y-1244549D01*
G37*
G36*
X2880715Y-1245006D02*
G01*
X2894279Y-1243685D01*
X2907538Y-1240485D01*
X2920288Y-1235608D01*
X2932226Y-1229055D01*
X2943199Y-1220978D01*
X2953004Y-1211478D01*
X2961487Y-1200759D01*
X2968396Y-1189024D01*
X2973730Y-1176477D01*
X2977337Y-1163320D01*
X2979166Y-1149807D01*
X2979166Y-1136192D01*
X2977337Y-1122680D01*
X2973730Y-1109522D01*
X2968396Y-1096975D01*
X2961487Y-1085240D01*
X2953004Y-1074521D01*
X2943199Y-1065022D01*
X2932226Y-1056944D01*
X2920288Y-1050391D01*
X2907538Y-1045514D01*
X2894279Y-1042314D01*
X2880715Y-1040993D01*
X2867101Y-1041450D01*
X2853639Y-1043686D01*
X2840634Y-1047750D01*
X2828239Y-1053490D01*
X2816758Y-1060805D01*
X2806344Y-1069594D01*
X2797200Y-1079754D01*
X2789478Y-1090980D01*
X2783332Y-1103122D01*
X2778861Y-1116025D01*
X2776118Y-1129385D01*
X2775204Y-1143000D01*
X2776118Y-1156614D01*
X2778861Y-1169974D01*
X2783332Y-1182878D01*
X2789478Y-1195019D01*
X2797200Y-1206246D01*
X2806344Y-1216406D01*
X2816758Y-1225194D01*
X2828239Y-1232509D01*
X2840634Y-1238250D01*
X2853639Y-1242314D01*
X2867101Y-1244549D01*
G37*
G36*
X4912715Y-1245006D02*
G01*
X4926279Y-1243685D01*
X4939538Y-1240485D01*
X4952288Y-1235608D01*
X4964226Y-1229055D01*
X4975199Y-1220978D01*
X4985004Y-1211478D01*
X4993487Y-1200759D01*
X5000396Y-1189024D01*
X5005730Y-1176477D01*
X5009337Y-1163320D01*
X5011166Y-1149807D01*
X5011166Y-1136192D01*
X5009337Y-1122680D01*
X5005730Y-1109522D01*
X5000396Y-1096975D01*
X4993487Y-1085240D01*
X4985004Y-1074521D01*
X4975199Y-1065022D01*
X4964226Y-1056944D01*
X4952288Y-1050391D01*
X4939538Y-1045514D01*
X4926279Y-1042314D01*
X4912715Y-1040993D01*
X4899101Y-1041450D01*
X4885639Y-1043686D01*
X4872634Y-1047750D01*
X4860239Y-1053490D01*
X4848758Y-1060805D01*
X4838344Y-1069594D01*
X4829200Y-1079754D01*
X4821478Y-1090980D01*
X4815332Y-1103122D01*
X4810861Y-1116025D01*
X4808118Y-1129385D01*
X4807204Y-1143000D01*
X4808118Y-1156614D01*
X4810861Y-1169974D01*
X4815332Y-1182878D01*
X4821478Y-1195019D01*
X4829200Y-1206246D01*
X4838344Y-1216406D01*
X4848758Y-1225194D01*
X4860239Y-1232509D01*
X4872634Y-1238250D01*
X4885639Y-1242314D01*
X4899101Y-1244549D01*
G37*
G36*
X3642715Y-1245006D02*
G01*
X3656279Y-1243685D01*
X3669537Y-1240485D01*
X3682288Y-1235608D01*
X3694226Y-1229055D01*
X3705199Y-1220978D01*
X3715004Y-1211478D01*
X3723487Y-1200759D01*
X3730396Y-1189024D01*
X3735730Y-1176477D01*
X3739337Y-1163320D01*
X3741165Y-1149807D01*
X3741165Y-1136192D01*
X3739337Y-1122680D01*
X3735730Y-1109522D01*
X3730396Y-1096975D01*
X3723487Y-1085240D01*
X3715004Y-1074521D01*
X3705199Y-1065022D01*
X3694226Y-1056944D01*
X3682288Y-1050391D01*
X3669537Y-1045514D01*
X3656279Y-1042314D01*
X3642715Y-1040993D01*
X3629101Y-1041450D01*
X3615639Y-1043686D01*
X3602634Y-1047750D01*
X3590239Y-1053490D01*
X3578758Y-1060805D01*
X3568344Y-1069594D01*
X3559200Y-1079754D01*
X3551478Y-1090980D01*
X3545332Y-1103122D01*
X3540861Y-1116025D01*
X3538118Y-1129385D01*
X3537204Y-1143000D01*
X3538118Y-1156614D01*
X3540861Y-1169974D01*
X3545332Y-1182878D01*
X3551478Y-1195019D01*
X3559200Y-1206246D01*
X3568344Y-1216406D01*
X3578758Y-1225194D01*
X3590239Y-1232509D01*
X3602634Y-1238250D01*
X3615639Y-1242314D01*
X3629101Y-1244549D01*
G37*
G36*
X3134715Y-1245006D02*
G01*
X3148279Y-1243685D01*
X3161538Y-1240485D01*
X3174288Y-1235608D01*
X3186226Y-1229055D01*
X3197199Y-1220978D01*
X3207004Y-1211478D01*
X3215487Y-1200759D01*
X3222396Y-1189024D01*
X3227730Y-1176477D01*
X3231337Y-1163320D01*
X3233166Y-1149807D01*
X3233166Y-1136192D01*
X3231337Y-1122680D01*
X3227730Y-1109522D01*
X3222396Y-1096975D01*
X3215487Y-1085240D01*
X3207004Y-1074521D01*
X3197199Y-1065022D01*
X3186226Y-1056944D01*
X3174288Y-1050391D01*
X3161538Y-1045514D01*
X3148279Y-1042314D01*
X3134715Y-1040993D01*
X3121101Y-1041450D01*
X3107639Y-1043686D01*
X3094634Y-1047750D01*
X3082239Y-1053490D01*
X3070758Y-1060805D01*
X3060344Y-1069594D01*
X3051200Y-1079754D01*
X3043478Y-1090980D01*
X3037332Y-1103122D01*
X3032861Y-1116025D01*
X3030118Y-1129385D01*
X3029204Y-1143000D01*
X3030118Y-1156614D01*
X3032861Y-1169974D01*
X3037332Y-1182878D01*
X3043478Y-1195019D01*
X3051200Y-1206246D01*
X3060344Y-1216406D01*
X3070758Y-1225194D01*
X3082239Y-1232509D01*
X3094634Y-1238250D01*
X3107639Y-1242314D01*
X3121101Y-1244549D01*
G37*
G36*
X4150715Y-1245006D02*
G01*
X4164279Y-1243685D01*
X4177537Y-1240485D01*
X4190288Y-1235608D01*
X4202226Y-1229055D01*
X4213199Y-1220978D01*
X4223004Y-1211478D01*
X4231487Y-1200759D01*
X4238396Y-1189024D01*
X4243730Y-1176477D01*
X4247337Y-1163320D01*
X4249166Y-1149807D01*
X4249166Y-1136192D01*
X4247337Y-1122680D01*
X4243730Y-1109522D01*
X4238396Y-1096975D01*
X4231487Y-1085240D01*
X4223004Y-1074521D01*
X4213199Y-1065022D01*
X4202226Y-1056944D01*
X4190288Y-1050391D01*
X4177537Y-1045514D01*
X4164279Y-1042314D01*
X4150715Y-1040993D01*
X4137101Y-1041450D01*
X4123639Y-1043686D01*
X4110634Y-1047750D01*
X4098239Y-1053490D01*
X4086758Y-1060805D01*
X4076344Y-1069594D01*
X4067200Y-1079754D01*
X4059478Y-1090980D01*
X4053332Y-1103122D01*
X4048861Y-1116025D01*
X4046118Y-1129385D01*
X4045204Y-1143000D01*
X4046118Y-1156614D01*
X4048861Y-1169974D01*
X4053332Y-1182878D01*
X4059478Y-1195019D01*
X4067200Y-1206246D01*
X4076344Y-1216406D01*
X4086758Y-1225194D01*
X4098239Y-1232509D01*
X4110634Y-1238250D01*
X4123639Y-1242314D01*
X4137101Y-1244549D01*
G37*
G36*
X2626715Y-1245006D02*
G01*
X2640279Y-1243685D01*
X2653538Y-1240485D01*
X2666288Y-1235608D01*
X2678226Y-1229055D01*
X2689199Y-1220978D01*
X2699004Y-1211478D01*
X2707487Y-1200759D01*
X2714396Y-1189024D01*
X2719730Y-1176477D01*
X2723337Y-1163320D01*
X2725166Y-1149807D01*
X2725166Y-1136192D01*
X2723337Y-1122680D01*
X2719730Y-1109522D01*
X2714396Y-1096975D01*
X2707487Y-1085240D01*
X2699004Y-1074521D01*
X2689199Y-1065022D01*
X2678226Y-1056944D01*
X2666288Y-1050391D01*
X2653538Y-1045514D01*
X2640279Y-1042314D01*
X2626715Y-1040993D01*
X2613101Y-1041450D01*
X2599639Y-1043686D01*
X2586634Y-1047750D01*
X2574239Y-1053490D01*
X2562758Y-1060805D01*
X2552344Y-1069594D01*
X2543200Y-1079754D01*
X2535478Y-1090980D01*
X2529332Y-1103122D01*
X2524861Y-1116025D01*
X2522118Y-1129385D01*
X2521204Y-1143000D01*
X2522118Y-1156614D01*
X2524861Y-1169974D01*
X2529332Y-1182878D01*
X2535478Y-1195019D01*
X2543200Y-1206246D01*
X2552344Y-1216406D01*
X2562758Y-1225194D01*
X2574239Y-1232509D01*
X2586634Y-1238250D01*
X2599639Y-1242314D01*
X2613101Y-1244549D01*
G37*
G36*
X5166715Y-1245006D02*
G01*
X5180279Y-1243685D01*
X5193538Y-1240485D01*
X5206288Y-1235608D01*
X5218226Y-1229055D01*
X5229199Y-1220978D01*
X5239004Y-1211478D01*
X5247487Y-1200759D01*
X5254396Y-1189024D01*
X5259730Y-1176477D01*
X5263337Y-1163320D01*
X5265166Y-1149807D01*
X5265166Y-1136192D01*
X5263337Y-1122680D01*
X5259730Y-1109522D01*
X5254396Y-1096975D01*
X5247487Y-1085240D01*
X5239004Y-1074521D01*
X5229199Y-1065022D01*
X5218226Y-1056944D01*
X5206288Y-1050391D01*
X5193538Y-1045514D01*
X5180279Y-1042314D01*
X5166715Y-1040993D01*
X5153101Y-1041450D01*
X5139639Y-1043686D01*
X5126634Y-1047750D01*
X5114239Y-1053490D01*
X5102758Y-1060805D01*
X5092344Y-1069594D01*
X5083200Y-1079754D01*
X5075478Y-1090980D01*
X5069332Y-1103122D01*
X5064861Y-1116025D01*
X5062118Y-1129385D01*
X5061204Y-1143000D01*
X5062118Y-1156614D01*
X5064861Y-1169974D01*
X5069332Y-1182878D01*
X5075478Y-1195019D01*
X5083200Y-1206246D01*
X5092344Y-1216406D01*
X5102758Y-1225194D01*
X5114239Y-1232509D01*
X5126634Y-1238250D01*
X5139639Y-1242314D01*
X5153101Y-1244549D01*
G37*
G36*
X5928715Y-1245006D02*
G01*
X5942279Y-1243685D01*
X5955538Y-1240485D01*
X5968288Y-1235608D01*
X5980226Y-1229055D01*
X5991199Y-1220978D01*
X6001004Y-1211478D01*
X6009487Y-1200759D01*
X6016396Y-1189024D01*
X6021730Y-1176477D01*
X6025337Y-1163320D01*
X6027166Y-1149807D01*
X6027166Y-1136192D01*
X6025337Y-1122680D01*
X6021730Y-1109522D01*
X6016396Y-1096975D01*
X6009487Y-1085240D01*
X6001004Y-1074521D01*
X5991199Y-1065022D01*
X5980226Y-1056944D01*
X5968288Y-1050391D01*
X5955538Y-1045514D01*
X5942279Y-1042314D01*
X5928715Y-1040993D01*
X5915101Y-1041450D01*
X5901639Y-1043686D01*
X5888634Y-1047750D01*
X5876239Y-1053490D01*
X5864758Y-1060805D01*
X5854344Y-1069594D01*
X5845200Y-1079754D01*
X5837478Y-1090980D01*
X5831332Y-1103122D01*
X5826861Y-1116025D01*
X5824118Y-1129385D01*
X5823204Y-1143000D01*
X5824118Y-1156614D01*
X5826861Y-1169974D01*
X5831332Y-1182878D01*
X5837478Y-1195019D01*
X5845200Y-1206246D01*
X5854344Y-1216406D01*
X5864758Y-1225194D01*
X5876239Y-1232509D01*
X5888634Y-1238250D01*
X5901639Y-1242314D01*
X5915101Y-1244549D01*
G37*
G36*
X3388715Y-1245006D02*
G01*
X3402279Y-1243685D01*
X3415537Y-1240485D01*
X3428288Y-1235608D01*
X3440226Y-1229055D01*
X3451199Y-1220978D01*
X3461004Y-1211478D01*
X3469487Y-1200759D01*
X3476396Y-1189024D01*
X3481730Y-1176477D01*
X3485337Y-1163320D01*
X3487165Y-1149807D01*
X3487165Y-1136192D01*
X3485337Y-1122680D01*
X3481730Y-1109522D01*
X3476396Y-1096975D01*
X3469487Y-1085240D01*
X3461004Y-1074521D01*
X3451199Y-1065022D01*
X3440226Y-1056944D01*
X3428288Y-1050391D01*
X3415537Y-1045514D01*
X3402279Y-1042314D01*
X3388715Y-1040993D01*
X3375101Y-1041450D01*
X3361639Y-1043686D01*
X3348634Y-1047750D01*
X3336239Y-1053490D01*
X3324758Y-1060805D01*
X3314344Y-1069594D01*
X3305200Y-1079754D01*
X3297478Y-1090980D01*
X3291332Y-1103122D01*
X3286861Y-1116025D01*
X3284118Y-1129385D01*
X3283204Y-1143000D01*
X3284118Y-1156614D01*
X3286861Y-1169974D01*
X3291332Y-1182878D01*
X3297478Y-1195019D01*
X3305200Y-1206246D01*
X3314344Y-1216406D01*
X3324758Y-1225194D01*
X3336239Y-1232509D01*
X3348634Y-1238250D01*
X3361639Y-1242314D01*
X3375101Y-1244549D01*
G37*
G36*
X5674715Y-1245006D02*
G01*
X5688279Y-1243685D01*
X5701538Y-1240485D01*
X5714288Y-1235608D01*
X5726226Y-1229055D01*
X5737199Y-1220978D01*
X5747004Y-1211478D01*
X5755487Y-1200759D01*
X5762396Y-1189024D01*
X5767730Y-1176477D01*
X5771337Y-1163320D01*
X5773166Y-1149807D01*
X5773166Y-1136192D01*
X5771337Y-1122680D01*
X5767730Y-1109522D01*
X5762396Y-1096975D01*
X5755487Y-1085240D01*
X5747004Y-1074521D01*
X5737199Y-1065022D01*
X5726226Y-1056944D01*
X5714288Y-1050391D01*
X5701538Y-1045514D01*
X5688279Y-1042314D01*
X5674715Y-1040993D01*
X5661101Y-1041450D01*
X5647639Y-1043686D01*
X5634634Y-1047750D01*
X5622239Y-1053490D01*
X5610758Y-1060805D01*
X5600344Y-1069594D01*
X5591200Y-1079754D01*
X5583478Y-1090980D01*
X5577332Y-1103122D01*
X5572861Y-1116025D01*
X5570118Y-1129385D01*
X5569204Y-1143000D01*
X5570118Y-1156614D01*
X5572861Y-1169974D01*
X5577332Y-1182878D01*
X5583478Y-1195019D01*
X5591200Y-1206246D01*
X5600344Y-1216406D01*
X5610758Y-1225194D01*
X5622239Y-1232509D01*
X5634634Y-1238250D01*
X5647639Y-1242314D01*
X5661101Y-1244549D01*
G37*
G36*
X5420715Y-1245006D02*
G01*
X5434279Y-1243685D01*
X5447538Y-1240485D01*
X5460288Y-1235608D01*
X5472226Y-1229055D01*
X5483199Y-1220978D01*
X5493004Y-1211478D01*
X5501487Y-1200759D01*
X5508396Y-1189024D01*
X5513730Y-1176477D01*
X5517337Y-1163320D01*
X5519166Y-1149807D01*
X5519166Y-1136192D01*
X5517337Y-1122680D01*
X5513730Y-1109522D01*
X5508396Y-1096975D01*
X5501487Y-1085240D01*
X5493004Y-1074521D01*
X5483199Y-1065022D01*
X5472226Y-1056944D01*
X5460288Y-1050391D01*
X5447538Y-1045514D01*
X5434279Y-1042314D01*
X5420715Y-1040993D01*
X5407101Y-1041450D01*
X5393639Y-1043686D01*
X5380634Y-1047750D01*
X5368239Y-1053490D01*
X5356758Y-1060805D01*
X5346344Y-1069594D01*
X5337200Y-1079754D01*
X5329478Y-1090980D01*
X5323332Y-1103122D01*
X5318861Y-1116025D01*
X5316118Y-1129385D01*
X5315204Y-1143000D01*
X5316118Y-1156614D01*
X5318861Y-1169974D01*
X5323332Y-1182878D01*
X5329478Y-1195019D01*
X5337200Y-1206246D01*
X5346344Y-1216406D01*
X5356758Y-1225194D01*
X5368239Y-1232509D01*
X5380634Y-1238250D01*
X5393639Y-1242314D01*
X5407101Y-1244549D01*
G37*
G36*
X6182715Y-1245006D02*
G01*
X6196279Y-1243685D01*
X6209538Y-1240485D01*
X6222288Y-1235608D01*
X6234226Y-1229055D01*
X6245199Y-1220978D01*
X6255004Y-1211478D01*
X6263487Y-1200759D01*
X6270396Y-1189024D01*
X6275730Y-1176477D01*
X6279337Y-1163320D01*
X6281166Y-1149807D01*
X6281166Y-1136192D01*
X6279337Y-1122680D01*
X6275730Y-1109522D01*
X6270396Y-1096975D01*
X6263487Y-1085240D01*
X6255004Y-1074521D01*
X6245199Y-1065022D01*
X6234226Y-1056944D01*
X6222288Y-1050391D01*
X6209538Y-1045514D01*
X6196279Y-1042314D01*
X6182715Y-1040993D01*
X6169101Y-1041450D01*
X6155639Y-1043686D01*
X6142634Y-1047750D01*
X6130239Y-1053490D01*
X6118758Y-1060805D01*
X6108344Y-1069594D01*
X6099200Y-1079754D01*
X6091478Y-1090980D01*
X6085332Y-1103122D01*
X6080861Y-1116025D01*
X6078118Y-1129385D01*
X6077204Y-1143000D01*
X6078118Y-1156614D01*
X6080861Y-1169974D01*
X6085332Y-1182878D01*
X6091478Y-1195019D01*
X6099200Y-1206246D01*
X6108344Y-1216406D01*
X6118758Y-1225194D01*
X6130239Y-1232509D01*
X6142634Y-1238250D01*
X6155639Y-1242314D01*
X6169101Y-1244549D01*
G37*
G36*
X381762Y-1234795D02*
G01*
X392226Y-1229055D01*
X403199Y-1220978D01*
X413004Y-1211478D01*
X421487Y-1200759D01*
X428396Y-1189024D01*
X429107Y-1187450D01*
X381762Y-1187450D01*
G37*
G36*
X292862Y-1234643D02*
G01*
X292862Y-1187450D01*
X245617Y-1187450D01*
X249478Y-1195019D01*
X257200Y-1206246D01*
X266344Y-1216406D01*
X276758Y-1225194D01*
X288239Y-1232509D01*
G37*
G36*
X7769352Y-1224280D02*
G01*
X7828280Y-1224280D01*
X7828280Y-1165352D01*
X7795818Y-1165352D01*
X7789519Y-1166063D01*
X7784033Y-1167993D01*
X7779156Y-1171041D01*
X7775041Y-1175156D01*
X7771993Y-1180033D01*
X7770063Y-1185519D01*
X7769352Y-1191818D01*
G37*
G36*
X7919720Y-1224280D02*
G01*
X7978648Y-1224280D01*
X7978648Y-1191818D01*
X7977936Y-1185519D01*
X7976006Y-1180033D01*
X7972958Y-1175156D01*
X7968843Y-1171041D01*
X7963966Y-1167993D01*
X7958480Y-1166063D01*
X7952181Y-1165352D01*
X7919720Y-1165352D01*
G37*
G36*
X7874000Y-1120648D02*
G01*
X7887665Y-1119733D01*
X7901076Y-1117041D01*
X7914030Y-1112672D01*
X7926324Y-1106627D01*
X7937703Y-1099007D01*
X7947964Y-1089964D01*
X7957007Y-1079703D01*
X7964627Y-1068324D01*
X7970672Y-1056030D01*
X7975041Y-1043076D01*
X7977733Y-1029665D01*
X7978648Y-1016000D01*
X7977733Y-1002334D01*
X7975041Y-988923D01*
X7970672Y-975969D01*
X7964627Y-963676D01*
X7957007Y-952296D01*
X7947964Y-942035D01*
X7937703Y-932992D01*
X7926324Y-925372D01*
X7914030Y-919327D01*
X7901076Y-914958D01*
X7887665Y-912266D01*
X7874000Y-911352D01*
X7860334Y-912266D01*
X7846923Y-914958D01*
X7833969Y-919327D01*
X7821675Y-925372D01*
X7810296Y-932992D01*
X7800035Y-942035D01*
X7790992Y-952296D01*
X7783372Y-963676D01*
X7777327Y-975969D01*
X7772958Y-988923D01*
X7770266Y-1002334D01*
X7769352Y-1016000D01*
X7770266Y-1029665D01*
X7772958Y-1043076D01*
X7777327Y-1056030D01*
X7783372Y-1068324D01*
X7790992Y-1079703D01*
X7800035Y-1089964D01*
X7810296Y-1099007D01*
X7821675Y-1106627D01*
X7833969Y-1112672D01*
X7846923Y-1117041D01*
X7860334Y-1119733D01*
G37*
G36*
X245617Y-1098550D02*
G01*
X292862Y-1098550D01*
X292862Y-1051356D01*
X288239Y-1053490D01*
X276758Y-1060805D01*
X266344Y-1069594D01*
X257200Y-1079754D01*
X249478Y-1090980D01*
G37*
G36*
X381762Y-1098550D02*
G01*
X429107Y-1098550D01*
X428396Y-1096975D01*
X421487Y-1085240D01*
X413004Y-1074521D01*
X403199Y-1065022D01*
X392226Y-1056944D01*
X381762Y-1051204D01*
G37*
G36*
X7470038Y-1072845D02*
G01*
X7479588Y-1071575D01*
X7488783Y-1068781D01*
X7497419Y-1064412D01*
X7505192Y-1058672D01*
X7511846Y-1051712D01*
X7517231Y-1043736D01*
X7521244Y-1034948D01*
X7523632Y-1025601D01*
X7524496Y-1016000D01*
X7523632Y-1006398D01*
X7521244Y-997051D01*
X7517231Y-988263D01*
X7511846Y-980287D01*
X7509052Y-977341D01*
X7506919Y-974090D01*
X7506208Y-970280D01*
X7506208Y-673608D01*
X7505395Y-665581D01*
X7503210Y-658368D01*
X7499654Y-651662D01*
X7494524Y-645464D01*
X7476490Y-627430D01*
X7474458Y-624484D01*
X7473543Y-621080D01*
X7472832Y-612698D01*
X7470444Y-603351D01*
X7466431Y-594563D01*
X7461046Y-586587D01*
X7454392Y-579628D01*
X7446619Y-573887D01*
X7437983Y-569518D01*
X7428788Y-566724D01*
X7419238Y-565454D01*
X7409586Y-565912D01*
X7400137Y-567944D01*
X7391196Y-571500D01*
X7382967Y-576580D01*
X7375753Y-582930D01*
X7369657Y-590448D01*
X7364984Y-598881D01*
X7361783Y-607974D01*
X7360158Y-617474D01*
X7360158Y-627126D01*
X7361783Y-636625D01*
X7364984Y-645718D01*
X7369657Y-654151D01*
X7375753Y-661670D01*
X7382967Y-668020D01*
X7391196Y-673100D01*
X7400137Y-676656D01*
X7409586Y-678688D01*
X7415072Y-678942D01*
X7418730Y-679805D01*
X7421829Y-681888D01*
X7425994Y-686104D01*
X7428230Y-689406D01*
X7428992Y-693318D01*
X7428992Y-970026D01*
X7428433Y-973429D01*
X7426756Y-976426D01*
X7420457Y-984148D01*
X7415784Y-992581D01*
X7412583Y-1001674D01*
X7410958Y-1011174D01*
X7410958Y-1020826D01*
X7412583Y-1030325D01*
X7415784Y-1039418D01*
X7420457Y-1047851D01*
X7426553Y-1055370D01*
X7433767Y-1061720D01*
X7441996Y-1066800D01*
X7450937Y-1070356D01*
X7460386Y-1072388D01*
G37*
G36*
X4912715Y-991006D02*
G01*
X4926279Y-989685D01*
X4939538Y-986485D01*
X4952288Y-981608D01*
X4964226Y-975055D01*
X4975199Y-966978D01*
X4985004Y-957478D01*
X4993487Y-946759D01*
X5000396Y-935024D01*
X5005730Y-922477D01*
X5009337Y-909319D01*
X5011166Y-895807D01*
X5011166Y-882192D01*
X5009337Y-868680D01*
X5005730Y-855522D01*
X5000396Y-842975D01*
X4993487Y-831240D01*
X4985004Y-820521D01*
X4975199Y-811022D01*
X4964226Y-802944D01*
X4952288Y-796391D01*
X4939538Y-791514D01*
X4926279Y-788314D01*
X4912715Y-786993D01*
X4899101Y-787450D01*
X4885639Y-789686D01*
X4872634Y-793750D01*
X4860239Y-799490D01*
X4848758Y-806805D01*
X4838344Y-815594D01*
X4829200Y-825753D01*
X4821478Y-836980D01*
X4815332Y-849121D01*
X4810861Y-862025D01*
X4808118Y-875385D01*
X4807204Y-889000D01*
X4808118Y-902614D01*
X4810861Y-915974D01*
X4815332Y-928878D01*
X4821478Y-941019D01*
X4829200Y-952246D01*
X4838344Y-962406D01*
X4848758Y-971194D01*
X4860239Y-978509D01*
X4872634Y-984250D01*
X4885639Y-988314D01*
X4899101Y-990549D01*
G37*
G36*
X1483715Y-945032D02*
G01*
X1497279Y-943660D01*
X1510538Y-940511D01*
X1523288Y-935634D01*
X1535226Y-929081D01*
X1546199Y-920953D01*
X1556004Y-911504D01*
X1564487Y-900785D01*
X1571396Y-889050D01*
X1576730Y-876503D01*
X1580337Y-863346D01*
X1582166Y-849833D01*
X1582166Y-836168D01*
X1580337Y-822655D01*
X1576730Y-809548D01*
X1571396Y-796950D01*
X1564487Y-785215D01*
X1556004Y-774547D01*
X1546199Y-765048D01*
X1535226Y-756970D01*
X1523288Y-750417D01*
X1510538Y-745490D01*
X1497279Y-742340D01*
X1483715Y-740968D01*
X1470101Y-741426D01*
X1456639Y-743712D01*
X1443634Y-747725D01*
X1431239Y-753465D01*
X1419758Y-760831D01*
X1409344Y-769620D01*
X1400200Y-779729D01*
X1392478Y-791006D01*
X1386332Y-803148D01*
X1381861Y-816051D01*
X1379118Y-829411D01*
X1378204Y-843026D01*
X1379118Y-856640D01*
X1381861Y-870000D01*
X1386332Y-882853D01*
X1392478Y-895045D01*
X1400200Y-906271D01*
X1409344Y-916381D01*
X1419758Y-925220D01*
X1431239Y-932535D01*
X1443634Y-938276D01*
X1456639Y-942340D01*
X1470101Y-944575D01*
G37*
G36*
X975715Y-945032D02*
G01*
X989279Y-943660D01*
X1002537Y-940511D01*
X1015288Y-935634D01*
X1027226Y-929081D01*
X1038199Y-920953D01*
X1048003Y-911504D01*
X1056487Y-900785D01*
X1063396Y-889050D01*
X1068730Y-876503D01*
X1072337Y-863346D01*
X1074166Y-849833D01*
X1074166Y-836168D01*
X1072337Y-822655D01*
X1068730Y-809548D01*
X1063396Y-796950D01*
X1056487Y-785215D01*
X1048003Y-774547D01*
X1038199Y-765048D01*
X1027226Y-756970D01*
X1015288Y-750417D01*
X1002537Y-745490D01*
X989279Y-742340D01*
X975715Y-740968D01*
X962101Y-741426D01*
X948639Y-743712D01*
X935634Y-747725D01*
X923239Y-753465D01*
X911758Y-760831D01*
X901344Y-769620D01*
X892200Y-779729D01*
X884478Y-791006D01*
X878332Y-803148D01*
X873861Y-816051D01*
X871118Y-829411D01*
X870203Y-843026D01*
X871118Y-856640D01*
X873861Y-870000D01*
X878332Y-882853D01*
X884478Y-895045D01*
X892200Y-906271D01*
X901344Y-916381D01*
X911758Y-925220D01*
X923239Y-932535D01*
X935634Y-938276D01*
X948639Y-942340D01*
X962101Y-944575D01*
G37*
G36*
X1229715Y-945032D02*
G01*
X1243279Y-943660D01*
X1256538Y-940511D01*
X1269288Y-935634D01*
X1281226Y-929081D01*
X1292199Y-920953D01*
X1302004Y-911504D01*
X1310487Y-900785D01*
X1317396Y-889050D01*
X1322730Y-876503D01*
X1326337Y-863346D01*
X1328166Y-849833D01*
X1328166Y-836168D01*
X1326337Y-822655D01*
X1322730Y-809548D01*
X1317396Y-796950D01*
X1310487Y-785215D01*
X1302004Y-774547D01*
X1292199Y-765048D01*
X1281226Y-756970D01*
X1269288Y-750417D01*
X1256538Y-745490D01*
X1243279Y-742340D01*
X1229715Y-740968D01*
X1216101Y-741426D01*
X1202639Y-743712D01*
X1189634Y-747725D01*
X1177239Y-753465D01*
X1165758Y-760831D01*
X1155344Y-769620D01*
X1146200Y-779729D01*
X1138478Y-791006D01*
X1132332Y-803148D01*
X1127861Y-816051D01*
X1125118Y-829411D01*
X1124204Y-843026D01*
X1125118Y-856640D01*
X1127861Y-870000D01*
X1132332Y-882853D01*
X1138478Y-895045D01*
X1146200Y-906271D01*
X1155344Y-916381D01*
X1165758Y-925220D01*
X1177239Y-932535D01*
X1189634Y-938276D01*
X1202639Y-942340D01*
X1216101Y-944575D01*
G37*
G36*
X1737715Y-945032D02*
G01*
X1751279Y-943660D01*
X1764538Y-940511D01*
X1777288Y-935634D01*
X1789226Y-929081D01*
X1800199Y-920953D01*
X1810004Y-911504D01*
X1818487Y-900785D01*
X1825396Y-889050D01*
X1830730Y-876503D01*
X1834337Y-863346D01*
X1836166Y-849833D01*
X1836166Y-836168D01*
X1834337Y-822655D01*
X1830730Y-809548D01*
X1825396Y-796950D01*
X1818487Y-785215D01*
X1810004Y-774547D01*
X1800199Y-765048D01*
X1789226Y-756970D01*
X1777288Y-750417D01*
X1764538Y-745490D01*
X1751279Y-742340D01*
X1737715Y-740968D01*
X1724101Y-741426D01*
X1710639Y-743712D01*
X1697634Y-747725D01*
X1685239Y-753465D01*
X1673758Y-760831D01*
X1663344Y-769620D01*
X1654200Y-779729D01*
X1646478Y-791006D01*
X1640332Y-803148D01*
X1635861Y-816051D01*
X1633118Y-829411D01*
X1632204Y-843026D01*
X1633118Y-856640D01*
X1635861Y-870000D01*
X1640332Y-882853D01*
X1646478Y-895045D01*
X1654200Y-906271D01*
X1663344Y-916381D01*
X1673758Y-925220D01*
X1685239Y-932535D01*
X1697634Y-938276D01*
X1710639Y-942340D01*
X1724101Y-944575D01*
G37*
G36*
X1991715Y-945032D02*
G01*
X2005279Y-943660D01*
X2018538Y-940511D01*
X2031288Y-935634D01*
X2043226Y-929081D01*
X2054199Y-920953D01*
X2064004Y-911504D01*
X2072487Y-900785D01*
X2079396Y-889050D01*
X2084730Y-876503D01*
X2088337Y-863346D01*
X2090166Y-849833D01*
X2090166Y-836168D01*
X2088337Y-822655D01*
X2084730Y-809548D01*
X2079396Y-796950D01*
X2072487Y-785215D01*
X2064004Y-774547D01*
X2054199Y-765048D01*
X2043226Y-756970D01*
X2031288Y-750417D01*
X2018538Y-745490D01*
X2005279Y-742340D01*
X1991715Y-740968D01*
X1978101Y-741426D01*
X1964639Y-743712D01*
X1951634Y-747725D01*
X1939239Y-753465D01*
X1927758Y-760831D01*
X1917344Y-769620D01*
X1908200Y-779729D01*
X1900478Y-791006D01*
X1894332Y-803148D01*
X1889861Y-816051D01*
X1887118Y-829411D01*
X1886204Y-843026D01*
X1887118Y-856640D01*
X1889861Y-870000D01*
X1894332Y-882853D01*
X1900478Y-895045D01*
X1908200Y-906271D01*
X1917344Y-916381D01*
X1927758Y-925220D01*
X1939239Y-932535D01*
X1951634Y-938276D01*
X1964639Y-942340D01*
X1978101Y-944575D01*
G37*
G36*
X7874000Y-866648D02*
G01*
X7887665Y-865733D01*
X7901076Y-863041D01*
X7914030Y-858672D01*
X7926324Y-852627D01*
X7937703Y-845007D01*
X7947964Y-835964D01*
X7957007Y-825703D01*
X7964627Y-814324D01*
X7970672Y-802030D01*
X7975041Y-789076D01*
X7977733Y-775665D01*
X7978648Y-762000D01*
X7977733Y-748334D01*
X7975041Y-734923D01*
X7970672Y-721969D01*
X7964627Y-709676D01*
X7957007Y-698296D01*
X7947964Y-688035D01*
X7937703Y-678992D01*
X7926324Y-671372D01*
X7914030Y-665327D01*
X7901076Y-660958D01*
X7887665Y-658266D01*
X7874000Y-657352D01*
X7860334Y-658266D01*
X7846923Y-660958D01*
X7833969Y-665327D01*
X7821675Y-671372D01*
X7810296Y-678992D01*
X7800035Y-688035D01*
X7790992Y-698296D01*
X7783372Y-709676D01*
X7777327Y-721969D01*
X7772958Y-734923D01*
X7770266Y-748334D01*
X7769352Y-762000D01*
X7770266Y-775665D01*
X7772958Y-789076D01*
X7777327Y-802030D01*
X7783372Y-814324D01*
X7790992Y-825703D01*
X7800035Y-835964D01*
X7810296Y-845007D01*
X7821675Y-852627D01*
X7833969Y-858672D01*
X7846923Y-863041D01*
X7860334Y-865733D01*
G37*
G36*
X4912715Y-737006D02*
G01*
X4926279Y-735685D01*
X4939538Y-732485D01*
X4952288Y-727608D01*
X4964226Y-721055D01*
X4975199Y-712978D01*
X4985004Y-703478D01*
X4993487Y-692759D01*
X5000396Y-681024D01*
X5005730Y-668477D01*
X5009337Y-655320D01*
X5011166Y-641807D01*
X5011166Y-628192D01*
X5009337Y-614680D01*
X5005730Y-601522D01*
X5000396Y-588975D01*
X4993487Y-577240D01*
X4985004Y-566521D01*
X4975199Y-557022D01*
X4964226Y-548944D01*
X4952288Y-542391D01*
X4939538Y-537514D01*
X4926279Y-534314D01*
X4912715Y-532993D01*
X4899101Y-533450D01*
X4885639Y-535686D01*
X4872634Y-539750D01*
X4860239Y-545490D01*
X4848758Y-552805D01*
X4838344Y-561594D01*
X4829200Y-571754D01*
X4821478Y-582980D01*
X4815332Y-595122D01*
X4810861Y-608025D01*
X4808118Y-621385D01*
X4807204Y-635000D01*
X4808118Y-648614D01*
X4810861Y-661974D01*
X4815332Y-674878D01*
X4821478Y-687019D01*
X4829200Y-698246D01*
X4838344Y-708406D01*
X4848758Y-717194D01*
X4860239Y-724509D01*
X4872634Y-730250D01*
X4885639Y-734314D01*
X4899101Y-736549D01*
G37*
G36*
X6758838Y-641045D02*
G01*
X6768388Y-639775D01*
X6777583Y-636981D01*
X6786219Y-632612D01*
X6793992Y-626872D01*
X6800646Y-619912D01*
X6806031Y-611936D01*
X6810044Y-603148D01*
X6812432Y-593801D01*
X6813296Y-584200D01*
X6812432Y-574598D01*
X6810044Y-565251D01*
X6806031Y-556463D01*
X6800646Y-548487D01*
X6797852Y-545541D01*
X6795719Y-542290D01*
X6795008Y-538480D01*
X6795008Y-134620D01*
X6795719Y-130810D01*
X6797852Y-127558D01*
X6800646Y-124612D01*
X6806031Y-116636D01*
X6810044Y-107848D01*
X6812432Y-98501D01*
X6813296Y-88900D01*
X6812432Y-79298D01*
X6810044Y-69951D01*
X6806031Y-61163D01*
X6800646Y-53187D01*
X6797852Y-50241D01*
X6795719Y-46990D01*
X6795008Y-43180D01*
X6795008Y703580D01*
X6795719Y707390D01*
X6797852Y710641D01*
X6800646Y713587D01*
X6806031Y721563D01*
X6810044Y730351D01*
X6812432Y739698D01*
X6813296Y749300D01*
X6812432Y758901D01*
X6810044Y768248D01*
X6806031Y777036D01*
X6800646Y785012D01*
X6793992Y791972D01*
X6786219Y797712D01*
X6777583Y802081D01*
X6768388Y804875D01*
X6758838Y806145D01*
X6749186Y805688D01*
X6739737Y803656D01*
X6730796Y800100D01*
X6722567Y795020D01*
X6715353Y788670D01*
X6709257Y781151D01*
X6704584Y772718D01*
X6701383Y763625D01*
X6699758Y754126D01*
X6699758Y744474D01*
X6701383Y734974D01*
X6704584Y725881D01*
X6709257Y717448D01*
X6715556Y709726D01*
X6717233Y706729D01*
X6717792Y703326D01*
X6717792Y-42926D01*
X6717233Y-46329D01*
X6715556Y-49326D01*
X6709257Y-57048D01*
X6704584Y-65481D01*
X6701383Y-74574D01*
X6699758Y-84074D01*
X6699758Y-93726D01*
X6701383Y-103225D01*
X6704584Y-112318D01*
X6709257Y-120751D01*
X6715556Y-128473D01*
X6717233Y-131470D01*
X6717792Y-134874D01*
X6717792Y-538226D01*
X6717233Y-541629D01*
X6715556Y-544626D01*
X6709257Y-552348D01*
X6704584Y-560781D01*
X6701383Y-569874D01*
X6699758Y-579374D01*
X6699758Y-589026D01*
X6701383Y-598525D01*
X6704584Y-607618D01*
X6709257Y-616051D01*
X6715353Y-623570D01*
X6722567Y-629920D01*
X6730796Y-635000D01*
X6739737Y-638556D01*
X6749186Y-640588D01*
G37*
G36*
X7874000Y-612648D02*
G01*
X7887665Y-611733D01*
X7901076Y-609041D01*
X7914030Y-604672D01*
X7926324Y-598627D01*
X7937703Y-591007D01*
X7947964Y-581964D01*
X7957007Y-571703D01*
X7964627Y-560324D01*
X7970672Y-548030D01*
X7975041Y-535076D01*
X7977733Y-521665D01*
X7978648Y-508000D01*
X7977733Y-494334D01*
X7975041Y-480923D01*
X7970672Y-467969D01*
X7964627Y-455676D01*
X7957007Y-444296D01*
X7947964Y-434035D01*
X7937703Y-424992D01*
X7926324Y-417372D01*
X7914030Y-411327D01*
X7901076Y-406958D01*
X7887665Y-404266D01*
X7874000Y-403352D01*
X7860334Y-404266D01*
X7846923Y-406958D01*
X7833969Y-411327D01*
X7821675Y-417372D01*
X7810296Y-424992D01*
X7800035Y-434035D01*
X7790992Y-444296D01*
X7783372Y-455676D01*
X7777327Y-467969D01*
X7772958Y-480923D01*
X7770266Y-494334D01*
X7769352Y-508000D01*
X7770266Y-521665D01*
X7772958Y-535076D01*
X7777327Y-548030D01*
X7783372Y-560324D01*
X7790992Y-571703D01*
X7800035Y-581964D01*
X7810296Y-591007D01*
X7821675Y-598627D01*
X7833969Y-604672D01*
X7846923Y-609041D01*
X7860334Y-611733D01*
G37*
G36*
X401726Y-610006D02*
G01*
X415290Y-608685D01*
X428548Y-605485D01*
X441299Y-600608D01*
X453237Y-594055D01*
X464210Y-585978D01*
X474014Y-576478D01*
X482447Y-565759D01*
X489407Y-554024D01*
X494741Y-541477D01*
X498348Y-528320D01*
X500176Y-514807D01*
X500176Y-501192D01*
X498348Y-487680D01*
X494741Y-474522D01*
X489407Y-461975D01*
X482447Y-450240D01*
X474014Y-439521D01*
X464210Y-430022D01*
X453237Y-421944D01*
X441299Y-415391D01*
X428548Y-410514D01*
X415290Y-407314D01*
X401726Y-405993D01*
X388112Y-406450D01*
X374650Y-408686D01*
X361594Y-412750D01*
X349250Y-418490D01*
X337769Y-425805D01*
X327355Y-434593D01*
X318211Y-444754D01*
X310489Y-455980D01*
X304342Y-468122D01*
X299872Y-481025D01*
X297129Y-494385D01*
X296214Y-508000D01*
X297129Y-521614D01*
X299872Y-534974D01*
X304342Y-547878D01*
X310489Y-560019D01*
X318211Y-571246D01*
X327355Y-581406D01*
X337769Y-590194D01*
X349250Y-597509D01*
X361594Y-603250D01*
X374650Y-607314D01*
X388112Y-609549D01*
G37*
G36*
X4912715Y-483006D02*
G01*
X4926279Y-481685D01*
X4939538Y-478485D01*
X4952288Y-473608D01*
X4964226Y-467055D01*
X4975199Y-458978D01*
X4985004Y-449478D01*
X4993487Y-438759D01*
X5000396Y-427024D01*
X5005730Y-414477D01*
X5009337Y-401320D01*
X5011166Y-387807D01*
X5011166Y-374192D01*
X5009337Y-360680D01*
X5005730Y-347522D01*
X5000396Y-334975D01*
X4993487Y-323240D01*
X4985004Y-312521D01*
X4975199Y-303022D01*
X4964226Y-294944D01*
X4952288Y-288391D01*
X4939538Y-283514D01*
X4926279Y-280314D01*
X4912715Y-278993D01*
X4899101Y-279450D01*
X4885639Y-281686D01*
X4872634Y-285750D01*
X4860239Y-291490D01*
X4848758Y-298805D01*
X4838344Y-307594D01*
X4829200Y-317754D01*
X4821478Y-328980D01*
X4815332Y-341122D01*
X4810861Y-354025D01*
X4808118Y-367385D01*
X4807204Y-381000D01*
X4808118Y-394614D01*
X4810861Y-407974D01*
X4815332Y-420878D01*
X4821478Y-433019D01*
X4829200Y-444246D01*
X4838344Y-454406D01*
X4848758Y-463194D01*
X4860239Y-470509D01*
X4872634Y-476250D01*
X4885639Y-480314D01*
X4899101Y-482549D01*
G37*
G36*
X7874000Y-358648D02*
G01*
X7887665Y-357733D01*
X7901076Y-355041D01*
X7914030Y-350672D01*
X7926324Y-344627D01*
X7937703Y-337007D01*
X7947964Y-327964D01*
X7957007Y-317703D01*
X7964627Y-306324D01*
X7970672Y-294030D01*
X7975041Y-281076D01*
X7977733Y-267665D01*
X7978648Y-254000D01*
X7977733Y-240334D01*
X7975041Y-226923D01*
X7970672Y-213969D01*
X7964627Y-201676D01*
X7957007Y-190296D01*
X7947964Y-180035D01*
X7937703Y-170992D01*
X7926324Y-163372D01*
X7914030Y-157327D01*
X7901076Y-152958D01*
X7887665Y-150266D01*
X7874000Y-149352D01*
X7860334Y-150266D01*
X7846923Y-152958D01*
X7833969Y-157327D01*
X7821675Y-163372D01*
X7810296Y-170992D01*
X7800035Y-180035D01*
X7790992Y-190296D01*
X7783372Y-201676D01*
X7777327Y-213969D01*
X7772958Y-226923D01*
X7770266Y-240334D01*
X7769352Y-254000D01*
X7770266Y-267665D01*
X7772958Y-281076D01*
X7777327Y-294030D01*
X7783372Y-306324D01*
X7790992Y-317703D01*
X7800035Y-327964D01*
X7810296Y-337007D01*
X7821675Y-344627D01*
X7833969Y-350672D01*
X7846923Y-355041D01*
X7860334Y-357733D01*
G37*
G36*
X401726Y-356006D02*
G01*
X415290Y-354685D01*
X428548Y-351485D01*
X441299Y-346608D01*
X453237Y-340055D01*
X464210Y-331978D01*
X474014Y-322478D01*
X482447Y-311759D01*
X489407Y-300024D01*
X494741Y-287477D01*
X498348Y-274320D01*
X500176Y-260807D01*
X500176Y-247192D01*
X498348Y-233679D01*
X494741Y-220522D01*
X489407Y-207975D01*
X482447Y-196240D01*
X474014Y-185521D01*
X464210Y-176022D01*
X453237Y-167944D01*
X441299Y-161391D01*
X428548Y-156514D01*
X415290Y-153314D01*
X401726Y-151993D01*
X388112Y-152450D01*
X374650Y-154686D01*
X361594Y-158750D01*
X349250Y-164490D01*
X337769Y-171805D01*
X327355Y-180594D01*
X318211Y-190754D01*
X310489Y-201980D01*
X304342Y-214121D01*
X299872Y-227025D01*
X297129Y-240385D01*
X296214Y-254000D01*
X297129Y-267614D01*
X299872Y-280974D01*
X304342Y-293878D01*
X310489Y-306019D01*
X318211Y-317246D01*
X327355Y-327406D01*
X337769Y-336194D01*
X349250Y-343509D01*
X361594Y-349250D01*
X374650Y-353314D01*
X388112Y-355549D01*
G37*
G36*
X1627733Y-354685D02*
G01*
X1640839Y-354685D01*
X1653793Y-352856D01*
X1666392Y-349351D01*
X1678432Y-344119D01*
X1689607Y-337312D01*
X1699768Y-329082D01*
X1708657Y-319532D01*
X1716227Y-308813D01*
X1722221Y-297180D01*
X1724710Y-290220D01*
X1726895Y-286715D01*
X1730248Y-284327D01*
X1734312Y-283464D01*
X1738325Y-284327D01*
X1741728Y-286715D01*
X1743862Y-290220D01*
X1746351Y-297180D01*
X1752396Y-308813D01*
X1759915Y-319532D01*
X1768856Y-329082D01*
X1779016Y-337312D01*
X1790192Y-344119D01*
X1802180Y-349351D01*
X1814779Y-352856D01*
X1827733Y-354685D01*
X1840839Y-354685D01*
X1853793Y-352856D01*
X1866392Y-349351D01*
X1878431Y-344119D01*
X1889607Y-337312D01*
X1899767Y-329082D01*
X1908657Y-319532D01*
X1916226Y-308813D01*
X1922221Y-297180D01*
X1926640Y-284886D01*
X1929282Y-272034D01*
X1930196Y-258978D01*
X1929282Y-245922D01*
X1926640Y-233121D01*
X1922221Y-220776D01*
X1916226Y-209194D01*
X1908657Y-198475D01*
X1899767Y-188925D01*
X1889607Y-180644D01*
X1878431Y-173888D01*
X1865579Y-168351D01*
X1862378Y-166116D01*
X1860194Y-162864D01*
X1859432Y-159004D01*
X1860194Y-155143D01*
X1862378Y-151892D01*
X1865579Y-149656D01*
X1878431Y-144119D01*
X1889607Y-137312D01*
X1899767Y-129082D01*
X1908657Y-119532D01*
X1916226Y-108813D01*
X1922221Y-97180D01*
X1926640Y-84886D01*
X1929282Y-72034D01*
X1930196Y-58978D01*
X1929282Y-45923D01*
X1926640Y-33121D01*
X1922221Y-20777D01*
X1916226Y-9194D01*
X1908657Y1524D01*
X1899767Y11074D01*
X1889607Y19354D01*
X1878431Y26111D01*
X1865579Y31699D01*
X1862378Y33883D01*
X1860194Y37134D01*
X1859483Y40995D01*
X1860194Y44856D01*
X1862378Y48107D01*
X1865579Y50342D01*
X1878431Y55880D01*
X1889607Y62687D01*
X1899767Y70916D01*
X1908657Y80467D01*
X1916226Y91186D01*
X1922221Y102819D01*
X1926640Y115112D01*
X1929282Y127965D01*
X1930196Y141020D01*
X1929282Y154076D01*
X1926640Y166878D01*
X1922221Y179222D01*
X1916226Y190804D01*
X1908657Y201523D01*
X1899767Y211074D01*
X1889607Y219354D01*
X1878431Y226110D01*
X1866392Y231343D01*
X1853793Y234899D01*
X1840839Y236677D01*
X1827733Y236677D01*
X1814779Y234899D01*
X1802180Y231343D01*
X1790192Y226110D01*
X1779016Y219354D01*
X1768856Y211074D01*
X1759915Y201523D01*
X1752396Y190804D01*
X1746351Y179222D01*
X1743862Y172212D01*
X1741728Y168706D01*
X1738325Y166319D01*
X1734312Y165455D01*
X1730248Y166319D01*
X1726895Y168706D01*
X1724710Y172212D01*
X1722221Y179222D01*
X1716227Y190804D01*
X1708657Y201523D01*
X1699768Y211074D01*
X1689607Y219354D01*
X1678432Y226110D01*
X1666392Y231343D01*
X1653793Y234899D01*
X1640839Y236677D01*
X1627733Y236677D01*
X1614779Y234899D01*
X1602181Y231343D01*
X1590192Y226110D01*
X1579016Y219354D01*
X1568856Y211074D01*
X1559915Y201523D01*
X1552397Y190804D01*
X1546352Y179222D01*
X1541983Y166878D01*
X1539290Y154076D01*
X1538427Y141020D01*
X1539290Y127965D01*
X1541983Y115112D01*
X1546352Y102819D01*
X1552397Y91186D01*
X1559915Y80467D01*
X1568856Y70916D01*
X1579016Y62687D01*
X1590192Y55880D01*
X1602994Y50342D01*
X1606245Y48107D01*
X1608378Y44856D01*
X1609140Y40995D01*
X1608378Y37134D01*
X1606245Y33883D01*
X1602994Y31699D01*
X1590192Y26111D01*
X1579016Y19354D01*
X1568856Y11074D01*
X1559915Y1524D01*
X1552397Y-9194D01*
X1546352Y-20777D01*
X1541983Y-33121D01*
X1539290Y-45923D01*
X1538427Y-58978D01*
X1539290Y-72034D01*
X1541983Y-84886D01*
X1546352Y-97180D01*
X1552397Y-108813D01*
X1559915Y-119532D01*
X1568856Y-129082D01*
X1579016Y-137312D01*
X1590192Y-144119D01*
X1602994Y-149656D01*
X1606245Y-151892D01*
X1608378Y-155143D01*
X1609140Y-159004D01*
X1608378Y-162864D01*
X1606245Y-166116D01*
X1602994Y-168351D01*
X1590192Y-173888D01*
X1579016Y-180644D01*
X1568856Y-188925D01*
X1559915Y-198475D01*
X1552397Y-209194D01*
X1546352Y-220776D01*
X1541983Y-233121D01*
X1539290Y-245922D01*
X1538427Y-258978D01*
X1539290Y-272034D01*
X1541983Y-284886D01*
X1546352Y-297180D01*
X1552397Y-308813D01*
X1559915Y-319532D01*
X1568856Y-329082D01*
X1579016Y-337312D01*
X1590192Y-344119D01*
X1602181Y-349351D01*
X1614779Y-352856D01*
G37*
G36*
X4912715Y-229006D02*
G01*
X4926279Y-227685D01*
X4939538Y-224485D01*
X4952288Y-219608D01*
X4964226Y-213055D01*
X4975199Y-204978D01*
X4985004Y-195478D01*
X4993487Y-184759D01*
X5000396Y-173024D01*
X5005730Y-160477D01*
X5009337Y-147320D01*
X5011166Y-133807D01*
X5011166Y-120192D01*
X5009337Y-106680D01*
X5005730Y-93522D01*
X5000396Y-80975D01*
X4993487Y-69240D01*
X4985004Y-58521D01*
X4975199Y-49022D01*
X4964226Y-40944D01*
X4952288Y-34391D01*
X4939538Y-29514D01*
X4926279Y-26314D01*
X4912715Y-24993D01*
X4899101Y-25450D01*
X4885639Y-27686D01*
X4872634Y-31750D01*
X4860239Y-37490D01*
X4848758Y-44805D01*
X4838344Y-53593D01*
X4829200Y-63754D01*
X4821478Y-74980D01*
X4815332Y-87122D01*
X4810861Y-100025D01*
X4808118Y-113385D01*
X4807204Y-127000D01*
X4808118Y-140614D01*
X4810861Y-153974D01*
X4815332Y-166878D01*
X4821478Y-179019D01*
X4829200Y-190246D01*
X4838344Y-200406D01*
X4848758Y-209194D01*
X4860239Y-216509D01*
X4872634Y-222250D01*
X4885639Y-226314D01*
X4899101Y-228549D01*
G37*
G36*
X594715Y24993D02*
G01*
X608279Y26314D01*
X621538Y29514D01*
X634288Y34391D01*
X646226Y40944D01*
X657199Y49022D01*
X667004Y58521D01*
X675487Y69240D01*
X682396Y80975D01*
X687730Y93522D01*
X691337Y106680D01*
X693166Y120192D01*
X693166Y133807D01*
X691337Y147320D01*
X687730Y160477D01*
X682396Y173024D01*
X675487Y184759D01*
X667004Y195478D01*
X657199Y204978D01*
X646226Y213055D01*
X634288Y219608D01*
X621538Y224485D01*
X608279Y227685D01*
X594715Y229006D01*
X581101Y228549D01*
X567639Y226314D01*
X554634Y222250D01*
X542239Y216509D01*
X530758Y209194D01*
X520344Y200406D01*
X511200Y190246D01*
X503478Y179019D01*
X497332Y166878D01*
X492861Y153974D01*
X490118Y140614D01*
X489204Y127000D01*
X490118Y113385D01*
X492861Y100025D01*
X497332Y87122D01*
X503478Y74980D01*
X511200Y63754D01*
X520344Y53593D01*
X530758Y44805D01*
X542239Y37490D01*
X554634Y31750D01*
X567639Y27686D01*
X581101Y25450D01*
G37*
G36*
X4912715Y24993D02*
G01*
X4926279Y26314D01*
X4939538Y29514D01*
X4952288Y34391D01*
X4964226Y40944D01*
X4975199Y49022D01*
X4985004Y58521D01*
X4993487Y69240D01*
X5000396Y80975D01*
X5005730Y93522D01*
X5009337Y106680D01*
X5011166Y120192D01*
X5011166Y133807D01*
X5009337Y147320D01*
X5005730Y160477D01*
X5000396Y173024D01*
X4993487Y184759D01*
X4985004Y195478D01*
X4975199Y204978D01*
X4964226Y213055D01*
X4952288Y219608D01*
X4939538Y224485D01*
X4926279Y227685D01*
X4912715Y229006D01*
X4899101Y228549D01*
X4885639Y226314D01*
X4872634Y222250D01*
X4860239Y216509D01*
X4848758Y209194D01*
X4838344Y200406D01*
X4829200Y190246D01*
X4821478Y179019D01*
X4815332Y166878D01*
X4810861Y153974D01*
X4808118Y140614D01*
X4807204Y127000D01*
X4808118Y113385D01*
X4810861Y100025D01*
X4815332Y87122D01*
X4821478Y74980D01*
X4829200Y63754D01*
X4838344Y53593D01*
X4848758Y44805D01*
X4860239Y37490D01*
X4872634Y31750D01*
X4885639Y27686D01*
X4899101Y25450D01*
G37*
G36*
X1102715Y278993D02*
G01*
X1116279Y280314D01*
X1129538Y283514D01*
X1142288Y288391D01*
X1154226Y294944D01*
X1165199Y303022D01*
X1175004Y312521D01*
X1183487Y323240D01*
X1190396Y334975D01*
X1195730Y347522D01*
X1199337Y360680D01*
X1201166Y374192D01*
X1201166Y387807D01*
X1199337Y401320D01*
X1195730Y414477D01*
X1190396Y427024D01*
X1183487Y438759D01*
X1175004Y449478D01*
X1165199Y458978D01*
X1154226Y467055D01*
X1142288Y473608D01*
X1129538Y478485D01*
X1116279Y481685D01*
X1102715Y483006D01*
X1089101Y482549D01*
X1075639Y480314D01*
X1062634Y476250D01*
X1050239Y470509D01*
X1038758Y463194D01*
X1028344Y454406D01*
X1019200Y444246D01*
X1011478Y433019D01*
X1005332Y420878D01*
X1000861Y407974D01*
X998118Y394614D01*
X997203Y381000D01*
X998118Y367385D01*
X1000861Y354025D01*
X1005332Y341122D01*
X1011478Y328980D01*
X1019200Y317754D01*
X1028344Y307594D01*
X1038758Y298805D01*
X1050239Y291490D01*
X1062634Y285750D01*
X1075639Y281686D01*
X1089101Y279450D01*
G37*
G36*
X848715Y278993D02*
G01*
X862279Y280314D01*
X875537Y283514D01*
X888288Y288391D01*
X900226Y294944D01*
X911199Y303022D01*
X921003Y312521D01*
X929487Y323240D01*
X936396Y334975D01*
X941730Y347522D01*
X945337Y360680D01*
X947166Y374192D01*
X947166Y387807D01*
X945337Y401320D01*
X941730Y414477D01*
X936396Y427024D01*
X929487Y438759D01*
X921003Y449478D01*
X911199Y458978D01*
X900226Y467055D01*
X888288Y473608D01*
X875537Y478485D01*
X862279Y481685D01*
X848715Y483006D01*
X835101Y482549D01*
X821639Y480314D01*
X808634Y476250D01*
X796239Y470509D01*
X784758Y463194D01*
X774344Y454406D01*
X765200Y444246D01*
X757478Y433019D01*
X751332Y420878D01*
X746861Y407974D01*
X744118Y394614D01*
X743204Y381000D01*
X744118Y367385D01*
X746861Y354025D01*
X751332Y341122D01*
X757478Y328980D01*
X765200Y317754D01*
X774344Y307594D01*
X784758Y298805D01*
X796239Y291490D01*
X808634Y285750D01*
X821639Y281686D01*
X835101Y279450D01*
G37*
G36*
X1356715Y278993D02*
G01*
X1370279Y280314D01*
X1383538Y283514D01*
X1396288Y288391D01*
X1408226Y294944D01*
X1419199Y303022D01*
X1429004Y312521D01*
X1437487Y323240D01*
X1444396Y334975D01*
X1449730Y347522D01*
X1453337Y360680D01*
X1455166Y374192D01*
X1455166Y387807D01*
X1453337Y401320D01*
X1449730Y414477D01*
X1444396Y427024D01*
X1437487Y438759D01*
X1429004Y449478D01*
X1419199Y458978D01*
X1408226Y467055D01*
X1396288Y473608D01*
X1383538Y478485D01*
X1370279Y481685D01*
X1356715Y483006D01*
X1343101Y482549D01*
X1329639Y480314D01*
X1316634Y476250D01*
X1304239Y470509D01*
X1292758Y463194D01*
X1282344Y454406D01*
X1273200Y444246D01*
X1265478Y433019D01*
X1259332Y420878D01*
X1254861Y407974D01*
X1252118Y394614D01*
X1251204Y381000D01*
X1252118Y367385D01*
X1254861Y354025D01*
X1259332Y341122D01*
X1265478Y328980D01*
X1273200Y317754D01*
X1282344Y307594D01*
X1292758Y298805D01*
X1304239Y291490D01*
X1316634Y285750D01*
X1329639Y281686D01*
X1343101Y279450D01*
G37*
G36*
X1610715Y278993D02*
G01*
X1624279Y280314D01*
X1637538Y283514D01*
X1650288Y288391D01*
X1662226Y294944D01*
X1673199Y303022D01*
X1683004Y312521D01*
X1691487Y323240D01*
X1698396Y334975D01*
X1703730Y347522D01*
X1707337Y360680D01*
X1709166Y374192D01*
X1709166Y387807D01*
X1707337Y401320D01*
X1703730Y414477D01*
X1698396Y427024D01*
X1691487Y438759D01*
X1683004Y449478D01*
X1673199Y458978D01*
X1662226Y467055D01*
X1650288Y473608D01*
X1637538Y478485D01*
X1624279Y481685D01*
X1610715Y483006D01*
X1597101Y482549D01*
X1583639Y480314D01*
X1570634Y476250D01*
X1558239Y470509D01*
X1546758Y463194D01*
X1536344Y454406D01*
X1527200Y444246D01*
X1519478Y433019D01*
X1513332Y420878D01*
X1508861Y407974D01*
X1506118Y394614D01*
X1505204Y381000D01*
X1506118Y367385D01*
X1508861Y354025D01*
X1513332Y341122D01*
X1519478Y328980D01*
X1527200Y317754D01*
X1536344Y307594D01*
X1546758Y298805D01*
X1558239Y291490D01*
X1570634Y285750D01*
X1583639Y281686D01*
X1597101Y279450D01*
G37*
G36*
X1864715Y278993D02*
G01*
X1878279Y280314D01*
X1891538Y283514D01*
X1904288Y288391D01*
X1916226Y294944D01*
X1927199Y303022D01*
X1937004Y312521D01*
X1945487Y323240D01*
X1952396Y334975D01*
X1957730Y347522D01*
X1961337Y360680D01*
X1963166Y374192D01*
X1963166Y387807D01*
X1961337Y401320D01*
X1957730Y414477D01*
X1952396Y427024D01*
X1945487Y438759D01*
X1937004Y449478D01*
X1927199Y458978D01*
X1916226Y467055D01*
X1904288Y473608D01*
X1891538Y478485D01*
X1878279Y481685D01*
X1864715Y483006D01*
X1851101Y482549D01*
X1837639Y480314D01*
X1824634Y476250D01*
X1812239Y470509D01*
X1800758Y463194D01*
X1790344Y454406D01*
X1781200Y444246D01*
X1773478Y433019D01*
X1767332Y420878D01*
X1762861Y407974D01*
X1760118Y394614D01*
X1759204Y381000D01*
X1760118Y367385D01*
X1762861Y354025D01*
X1767332Y341122D01*
X1773478Y328980D01*
X1781200Y317754D01*
X1790344Y307594D01*
X1800758Y298805D01*
X1812239Y291490D01*
X1824634Y285750D01*
X1837639Y281686D01*
X1851101Y279450D01*
G37*
G36*
X3134715Y278993D02*
G01*
X3148279Y280314D01*
X3161538Y283514D01*
X3174288Y288391D01*
X3186226Y294944D01*
X3197199Y303022D01*
X3207004Y312521D01*
X3215487Y323240D01*
X3222396Y334975D01*
X3227730Y347522D01*
X3231337Y360680D01*
X3233166Y374192D01*
X3233166Y387807D01*
X3231337Y401320D01*
X3227730Y414477D01*
X3222396Y427024D01*
X3215487Y438759D01*
X3207004Y449478D01*
X3197199Y458978D01*
X3186226Y467055D01*
X3174288Y473608D01*
X3161538Y478485D01*
X3148279Y481685D01*
X3134715Y483006D01*
X3121101Y482549D01*
X3107639Y480314D01*
X3094634Y476250D01*
X3082239Y470509D01*
X3070758Y463194D01*
X3060344Y454406D01*
X3051200Y444246D01*
X3043478Y433019D01*
X3037332Y420878D01*
X3032861Y407974D01*
X3030118Y394614D01*
X3029204Y381000D01*
X3030118Y367385D01*
X3032861Y354025D01*
X3037332Y341122D01*
X3043478Y328980D01*
X3051200Y317754D01*
X3060344Y307594D01*
X3070758Y298805D01*
X3082239Y291490D01*
X3094634Y285750D01*
X3107639Y281686D01*
X3121101Y279450D01*
G37*
G36*
X2118715Y278993D02*
G01*
X2132279Y280314D01*
X2145538Y283514D01*
X2158288Y288391D01*
X2170226Y294944D01*
X2181199Y303022D01*
X2191004Y312521D01*
X2199487Y323240D01*
X2206396Y334975D01*
X2211730Y347522D01*
X2215337Y360680D01*
X2217166Y374192D01*
X2217166Y387807D01*
X2215337Y401320D01*
X2211730Y414477D01*
X2206396Y427024D01*
X2199487Y438759D01*
X2191004Y449478D01*
X2181199Y458978D01*
X2170226Y467055D01*
X2158288Y473608D01*
X2145538Y478485D01*
X2132279Y481685D01*
X2118715Y483006D01*
X2105101Y482549D01*
X2091639Y480314D01*
X2078634Y476250D01*
X2066239Y470509D01*
X2054758Y463194D01*
X2044344Y454406D01*
X2035200Y444246D01*
X2027478Y433019D01*
X2021332Y420878D01*
X2016861Y407974D01*
X2014118Y394614D01*
X2013204Y381000D01*
X2014118Y367385D01*
X2016861Y354025D01*
X2021332Y341122D01*
X2027478Y328980D01*
X2035200Y317754D01*
X2044344Y307594D01*
X2054758Y298805D01*
X2066239Y291490D01*
X2078634Y285750D01*
X2091639Y281686D01*
X2105101Y279450D01*
G37*
G36*
X3388715Y278993D02*
G01*
X3402279Y280314D01*
X3415537Y283514D01*
X3428288Y288391D01*
X3440226Y294944D01*
X3451199Y303022D01*
X3461004Y312521D01*
X3469487Y323240D01*
X3476396Y334975D01*
X3481730Y347522D01*
X3485337Y360680D01*
X3487165Y374192D01*
X3487165Y387807D01*
X3485337Y401320D01*
X3481730Y414477D01*
X3476396Y427024D01*
X3469487Y438759D01*
X3461004Y449478D01*
X3451199Y458978D01*
X3440226Y467055D01*
X3428288Y473608D01*
X3415537Y478485D01*
X3402279Y481685D01*
X3388715Y483006D01*
X3375101Y482549D01*
X3361639Y480314D01*
X3348634Y476250D01*
X3336239Y470509D01*
X3324758Y463194D01*
X3314344Y454406D01*
X3305200Y444246D01*
X3297478Y433019D01*
X3291332Y420878D01*
X3286861Y407974D01*
X3284118Y394614D01*
X3283204Y381000D01*
X3284118Y367385D01*
X3286861Y354025D01*
X3291332Y341122D01*
X3297478Y328980D01*
X3305200Y317754D01*
X3314344Y307594D01*
X3324758Y298805D01*
X3336239Y291490D01*
X3348634Y285750D01*
X3361639Y281686D01*
X3375101Y279450D01*
G37*
G36*
X2372715Y278993D02*
G01*
X2386279Y280314D01*
X2399538Y283514D01*
X2412288Y288391D01*
X2424226Y294944D01*
X2435199Y303022D01*
X2445004Y312521D01*
X2453487Y323240D01*
X2460396Y334975D01*
X2465730Y347522D01*
X2469337Y360680D01*
X2471166Y374192D01*
X2471166Y387807D01*
X2469337Y401320D01*
X2465730Y414477D01*
X2460396Y427024D01*
X2453487Y438759D01*
X2445004Y449478D01*
X2435199Y458978D01*
X2424226Y467055D01*
X2412288Y473608D01*
X2399538Y478485D01*
X2386279Y481685D01*
X2372715Y483006D01*
X2359101Y482549D01*
X2345639Y480314D01*
X2332634Y476250D01*
X2320239Y470509D01*
X2308758Y463194D01*
X2298344Y454406D01*
X2289200Y444246D01*
X2281478Y433019D01*
X2275332Y420878D01*
X2270861Y407974D01*
X2268118Y394614D01*
X2267204Y381000D01*
X2268118Y367385D01*
X2270861Y354025D01*
X2275332Y341122D01*
X2281478Y328980D01*
X2289200Y317754D01*
X2298344Y307594D01*
X2308758Y298805D01*
X2320239Y291490D01*
X2332634Y285750D01*
X2345639Y281686D01*
X2359101Y279450D01*
G37*
G36*
X2880715Y278993D02*
G01*
X2894279Y280314D01*
X2907538Y283514D01*
X2920288Y288391D01*
X2932226Y294944D01*
X2943199Y303022D01*
X2953004Y312521D01*
X2961487Y323240D01*
X2968396Y334975D01*
X2973730Y347522D01*
X2977337Y360680D01*
X2979166Y374192D01*
X2979166Y387807D01*
X2977337Y401320D01*
X2973730Y414477D01*
X2968396Y427024D01*
X2961487Y438759D01*
X2953004Y449478D01*
X2943199Y458978D01*
X2932226Y467055D01*
X2920288Y473608D01*
X2907538Y478485D01*
X2894279Y481685D01*
X2880715Y483006D01*
X2867101Y482549D01*
X2853639Y480314D01*
X2840634Y476250D01*
X2828239Y470509D01*
X2816758Y463194D01*
X2806344Y454406D01*
X2797200Y444246D01*
X2789478Y433019D01*
X2783332Y420878D01*
X2778861Y407974D01*
X2776118Y394614D01*
X2775204Y381000D01*
X2776118Y367385D01*
X2778861Y354025D01*
X2783332Y341122D01*
X2789478Y328980D01*
X2797200Y317754D01*
X2806344Y307594D01*
X2816758Y298805D01*
X2828239Y291490D01*
X2840634Y285750D01*
X2853639Y281686D01*
X2867101Y279450D01*
G37*
G36*
X3642715Y278993D02*
G01*
X3656279Y280314D01*
X3669537Y283514D01*
X3682288Y288391D01*
X3694226Y294944D01*
X3705199Y303022D01*
X3715004Y312521D01*
X3723487Y323240D01*
X3730396Y334975D01*
X3735730Y347522D01*
X3739337Y360680D01*
X3741165Y374192D01*
X3741165Y387807D01*
X3739337Y401320D01*
X3735730Y414477D01*
X3730396Y427024D01*
X3723487Y438759D01*
X3715004Y449478D01*
X3705199Y458978D01*
X3694226Y467055D01*
X3682288Y473608D01*
X3669537Y478485D01*
X3656279Y481685D01*
X3642715Y483006D01*
X3629101Y482549D01*
X3615639Y480314D01*
X3602634Y476250D01*
X3590239Y470509D01*
X3578758Y463194D01*
X3568344Y454406D01*
X3559200Y444246D01*
X3551478Y433019D01*
X3545332Y420878D01*
X3540861Y407974D01*
X3538118Y394614D01*
X3537204Y381000D01*
X3538118Y367385D01*
X3540861Y354025D01*
X3545332Y341122D01*
X3551478Y328980D01*
X3559200Y317754D01*
X3568344Y307594D01*
X3578758Y298805D01*
X3590239Y291490D01*
X3602634Y285750D01*
X3615639Y281686D01*
X3629101Y279450D01*
G37*
G36*
X4150715Y278993D02*
G01*
X4164279Y280314D01*
X4177537Y283514D01*
X4190288Y288391D01*
X4202226Y294944D01*
X4213199Y303022D01*
X4223004Y312521D01*
X4231487Y323240D01*
X4238396Y334975D01*
X4243730Y347522D01*
X4247337Y360680D01*
X4249166Y374192D01*
X4249166Y387807D01*
X4247337Y401320D01*
X4243730Y414477D01*
X4238396Y427024D01*
X4231487Y438759D01*
X4223004Y449478D01*
X4213199Y458978D01*
X4202226Y467055D01*
X4190288Y473608D01*
X4177537Y478485D01*
X4164279Y481685D01*
X4150715Y483006D01*
X4137101Y482549D01*
X4123639Y480314D01*
X4110634Y476250D01*
X4098239Y470509D01*
X4086758Y463194D01*
X4076344Y454406D01*
X4067200Y444246D01*
X4059478Y433019D01*
X4053332Y420878D01*
X4048861Y407974D01*
X4046118Y394614D01*
X4045204Y381000D01*
X4046118Y367385D01*
X4048861Y354025D01*
X4053332Y341122D01*
X4059478Y328980D01*
X4067200Y317754D01*
X4076344Y307594D01*
X4086758Y298805D01*
X4098239Y291490D01*
X4110634Y285750D01*
X4123639Y281686D01*
X4137101Y279450D01*
G37*
G36*
X2626715Y278993D02*
G01*
X2640279Y280314D01*
X2653538Y283514D01*
X2666288Y288391D01*
X2678226Y294944D01*
X2689199Y303022D01*
X2699004Y312521D01*
X2707487Y323240D01*
X2714396Y334975D01*
X2719730Y347522D01*
X2723337Y360680D01*
X2725166Y374192D01*
X2725166Y387807D01*
X2723337Y401320D01*
X2719730Y414477D01*
X2714396Y427024D01*
X2707487Y438759D01*
X2699004Y449478D01*
X2689199Y458978D01*
X2678226Y467055D01*
X2666288Y473608D01*
X2653538Y478485D01*
X2640279Y481685D01*
X2626715Y483006D01*
X2613101Y482549D01*
X2599639Y480314D01*
X2586634Y476250D01*
X2574239Y470509D01*
X2562758Y463194D01*
X2552344Y454406D01*
X2543200Y444246D01*
X2535478Y433019D01*
X2529332Y420878D01*
X2524861Y407974D01*
X2522118Y394614D01*
X2521204Y381000D01*
X2522118Y367385D01*
X2524861Y354025D01*
X2529332Y341122D01*
X2535478Y328980D01*
X2543200Y317754D01*
X2552344Y307594D01*
X2562758Y298805D01*
X2574239Y291490D01*
X2586634Y285750D01*
X2599639Y281686D01*
X2613101Y279450D01*
G37*
G36*
X6182715Y278993D02*
G01*
X6196279Y280314D01*
X6209538Y283514D01*
X6222288Y288391D01*
X6234226Y294944D01*
X6245199Y303022D01*
X6255004Y312521D01*
X6263487Y323240D01*
X6270396Y334975D01*
X6275730Y347522D01*
X6279337Y360680D01*
X6281166Y374192D01*
X6281166Y387807D01*
X6279337Y401320D01*
X6275730Y414477D01*
X6270396Y427024D01*
X6263487Y438759D01*
X6255004Y449478D01*
X6245199Y458978D01*
X6234226Y467055D01*
X6222288Y473608D01*
X6209538Y478485D01*
X6196279Y481685D01*
X6182715Y483006D01*
X6169101Y482549D01*
X6155639Y480314D01*
X6142634Y476250D01*
X6130239Y470509D01*
X6118758Y463194D01*
X6108344Y454406D01*
X6099200Y444246D01*
X6091478Y433019D01*
X6085332Y420878D01*
X6080861Y407974D01*
X6078118Y394614D01*
X6077204Y381000D01*
X6078118Y367385D01*
X6080861Y354025D01*
X6085332Y341122D01*
X6091478Y328980D01*
X6099200Y317754D01*
X6108344Y307594D01*
X6118758Y298805D01*
X6130239Y291490D01*
X6142634Y285750D01*
X6155639Y281686D01*
X6169101Y279450D01*
G37*
G36*
X5674715Y278993D02*
G01*
X5688279Y280314D01*
X5701538Y283514D01*
X5714288Y288391D01*
X5726226Y294944D01*
X5737199Y303022D01*
X5747004Y312521D01*
X5755487Y323240D01*
X5762396Y334975D01*
X5767730Y347522D01*
X5771337Y360680D01*
X5773166Y374192D01*
X5773166Y387807D01*
X5771337Y401320D01*
X5767730Y414477D01*
X5762396Y427024D01*
X5755487Y438759D01*
X5747004Y449478D01*
X5737199Y458978D01*
X5726226Y467055D01*
X5714288Y473608D01*
X5701538Y478485D01*
X5688279Y481685D01*
X5674715Y483006D01*
X5661101Y482549D01*
X5647639Y480314D01*
X5634634Y476250D01*
X5622239Y470509D01*
X5610758Y463194D01*
X5600344Y454406D01*
X5591200Y444246D01*
X5583478Y433019D01*
X5577332Y420878D01*
X5572861Y407974D01*
X5570118Y394614D01*
X5569204Y381000D01*
X5570118Y367385D01*
X5572861Y354025D01*
X5577332Y341122D01*
X5583478Y328980D01*
X5591200Y317754D01*
X5600344Y307594D01*
X5610758Y298805D01*
X5622239Y291490D01*
X5634634Y285750D01*
X5647639Y281686D01*
X5661101Y279450D01*
G37*
G36*
X5166715Y278993D02*
G01*
X5180279Y280314D01*
X5193538Y283514D01*
X5206288Y288391D01*
X5218226Y294944D01*
X5229199Y303022D01*
X5239004Y312521D01*
X5247487Y323240D01*
X5254396Y334975D01*
X5259730Y347522D01*
X5263337Y360680D01*
X5265166Y374192D01*
X5265166Y387807D01*
X5263337Y401320D01*
X5259730Y414477D01*
X5254396Y427024D01*
X5247487Y438759D01*
X5239004Y449478D01*
X5229199Y458978D01*
X5218226Y467055D01*
X5206288Y473608D01*
X5193538Y478485D01*
X5180279Y481685D01*
X5166715Y483006D01*
X5153101Y482549D01*
X5139639Y480314D01*
X5126634Y476250D01*
X5114239Y470509D01*
X5102758Y463194D01*
X5092344Y454406D01*
X5083200Y444246D01*
X5075478Y433019D01*
X5069332Y420878D01*
X5064861Y407974D01*
X5062118Y394614D01*
X5061204Y381000D01*
X5062118Y367385D01*
X5064861Y354025D01*
X5069332Y341122D01*
X5075478Y328980D01*
X5083200Y317754D01*
X5092344Y307594D01*
X5102758Y298805D01*
X5114239Y291490D01*
X5126634Y285750D01*
X5139639Y281686D01*
X5153101Y279450D01*
G37*
G36*
X4404715Y278993D02*
G01*
X4418279Y280314D01*
X4431538Y283514D01*
X4444288Y288391D01*
X4456226Y294944D01*
X4467199Y303022D01*
X4477004Y312521D01*
X4485487Y323240D01*
X4492396Y334975D01*
X4497730Y347522D01*
X4501337Y360680D01*
X4503166Y374192D01*
X4503166Y387807D01*
X4501337Y401320D01*
X4497730Y414477D01*
X4492396Y427024D01*
X4485487Y438759D01*
X4477004Y449478D01*
X4467199Y458978D01*
X4456226Y467055D01*
X4444288Y473608D01*
X4431538Y478485D01*
X4418279Y481685D01*
X4404715Y483006D01*
X4391101Y482549D01*
X4377639Y480314D01*
X4364634Y476250D01*
X4352239Y470509D01*
X4340758Y463194D01*
X4330344Y454406D01*
X4321200Y444246D01*
X4313478Y433019D01*
X4307332Y420878D01*
X4302861Y407974D01*
X4300118Y394614D01*
X4299204Y381000D01*
X4300118Y367385D01*
X4302861Y354025D01*
X4307332Y341122D01*
X4313478Y328980D01*
X4321200Y317754D01*
X4330344Y307594D01*
X4340758Y298805D01*
X4352239Y291490D01*
X4364634Y285750D01*
X4377639Y281686D01*
X4391101Y279450D01*
G37*
G36*
X4658715Y278993D02*
G01*
X4672279Y280314D01*
X4685538Y283514D01*
X4698288Y288391D01*
X4710226Y294944D01*
X4721199Y303022D01*
X4731004Y312521D01*
X4739487Y323240D01*
X4746396Y334975D01*
X4751730Y347522D01*
X4755337Y360680D01*
X4757166Y374192D01*
X4757166Y387807D01*
X4755337Y401320D01*
X4751730Y414477D01*
X4746396Y427024D01*
X4739487Y438759D01*
X4731004Y449478D01*
X4721199Y458978D01*
X4710226Y467055D01*
X4698288Y473608D01*
X4685538Y478485D01*
X4672279Y481685D01*
X4658715Y483006D01*
X4645101Y482549D01*
X4631639Y480314D01*
X4618634Y476250D01*
X4606239Y470509D01*
X4594758Y463194D01*
X4584344Y454406D01*
X4575200Y444246D01*
X4567478Y433019D01*
X4561332Y420878D01*
X4556861Y407974D01*
X4554118Y394614D01*
X4553204Y381000D01*
X4554118Y367385D01*
X4556861Y354025D01*
X4561332Y341122D01*
X4567478Y328980D01*
X4575200Y317754D01*
X4584344Y307594D01*
X4594758Y298805D01*
X4606239Y291490D01*
X4618634Y285750D01*
X4631639Y281686D01*
X4645101Y279450D01*
G37*
G36*
X5420715Y278993D02*
G01*
X5434279Y280314D01*
X5447538Y283514D01*
X5460288Y288391D01*
X5472226Y294944D01*
X5483199Y303022D01*
X5493004Y312521D01*
X5501487Y323240D01*
X5508396Y334975D01*
X5513730Y347522D01*
X5517337Y360680D01*
X5519166Y374192D01*
X5519166Y387807D01*
X5517337Y401320D01*
X5513730Y414477D01*
X5508396Y427024D01*
X5501487Y438759D01*
X5493004Y449478D01*
X5483199Y458978D01*
X5472226Y467055D01*
X5460288Y473608D01*
X5447538Y478485D01*
X5434279Y481685D01*
X5420715Y483006D01*
X5407101Y482549D01*
X5393639Y480314D01*
X5380634Y476250D01*
X5368239Y470509D01*
X5356758Y463194D01*
X5346344Y454406D01*
X5337200Y444246D01*
X5329478Y433019D01*
X5323332Y420878D01*
X5318861Y407974D01*
X5316118Y394614D01*
X5315204Y381000D01*
X5316118Y367385D01*
X5318861Y354025D01*
X5323332Y341122D01*
X5329478Y328980D01*
X5337200Y317754D01*
X5346344Y307594D01*
X5356758Y298805D01*
X5368239Y291490D01*
X5380634Y285750D01*
X5393639Y281686D01*
X5407101Y279450D01*
G37*
G36*
X5928715Y278993D02*
G01*
X5942279Y280314D01*
X5955538Y283514D01*
X5968288Y288391D01*
X5980226Y294944D01*
X5991199Y303022D01*
X6001004Y312521D01*
X6009487Y323240D01*
X6016396Y334975D01*
X6021730Y347522D01*
X6025337Y360680D01*
X6027166Y374192D01*
X6027166Y387807D01*
X6025337Y401320D01*
X6021730Y414477D01*
X6016396Y427024D01*
X6009487Y438759D01*
X6001004Y449478D01*
X5991199Y458978D01*
X5980226Y467055D01*
X5968288Y473608D01*
X5955538Y478485D01*
X5942279Y481685D01*
X5928715Y483006D01*
X5915101Y482549D01*
X5901639Y480314D01*
X5888634Y476250D01*
X5876239Y470509D01*
X5864758Y463194D01*
X5854344Y454406D01*
X5845200Y444246D01*
X5837478Y433019D01*
X5831332Y420878D01*
X5826861Y407974D01*
X5824118Y394614D01*
X5823204Y381000D01*
X5824118Y367385D01*
X5826861Y354025D01*
X5831332Y341122D01*
X5837478Y328980D01*
X5845200Y317754D01*
X5854344Y307594D01*
X5864758Y298805D01*
X5876239Y291490D01*
X5888634Y285750D01*
X5901639Y281686D01*
X5915101Y279450D01*
G37*
G36*
X4912715Y278993D02*
G01*
X4926279Y280314D01*
X4939538Y283514D01*
X4952288Y288391D01*
X4964226Y294944D01*
X4975199Y303022D01*
X4985004Y312521D01*
X4993487Y323240D01*
X5000396Y334975D01*
X5005730Y347522D01*
X5009337Y360680D01*
X5011166Y374192D01*
X5011166Y387807D01*
X5009337Y401320D01*
X5005476Y415290D01*
X5005171Y418846D01*
X5006086Y422249D01*
X5008118Y425196D01*
X5633516Y1050594D01*
X5636818Y1052830D01*
X5640730Y1053592D01*
X6824980Y1053592D01*
X6828536Y1052931D01*
X6831685Y1051052D01*
X6836867Y1046480D01*
X6845096Y1041400D01*
X6854037Y1037844D01*
X6863486Y1035812D01*
X6873138Y1035354D01*
X6882688Y1036624D01*
X6891883Y1039418D01*
X6900519Y1043787D01*
X6908292Y1049528D01*
X6914946Y1056487D01*
X6920331Y1064463D01*
X6924344Y1073251D01*
X6926732Y1082598D01*
X6927596Y1092200D01*
X6926732Y1101801D01*
X6924344Y1111148D01*
X6920331Y1119936D01*
X6914946Y1127912D01*
X6908292Y1134872D01*
X6900519Y1140612D01*
X6891883Y1144981D01*
X6882688Y1147775D01*
X6873138Y1149045D01*
X6863486Y1148588D01*
X6854037Y1146556D01*
X6845096Y1143000D01*
X6836867Y1137920D01*
X6831685Y1133348D01*
X6828536Y1131468D01*
X6824980Y1130808D01*
X5621020Y1130808D01*
X5612993Y1129995D01*
X5605780Y1127810D01*
X5599074Y1124254D01*
X5592876Y1119124D01*
X4953355Y479653D01*
X4950155Y477469D01*
X4946345Y476656D01*
X4942535Y477367D01*
X4939538Y478485D01*
X4926279Y481685D01*
X4912715Y483006D01*
X4899101Y482549D01*
X4885639Y480314D01*
X4872634Y476250D01*
X4860239Y470509D01*
X4848758Y463194D01*
X4838344Y454406D01*
X4829200Y444246D01*
X4821478Y433019D01*
X4815332Y420878D01*
X4810861Y407974D01*
X4808118Y394614D01*
X4807204Y381000D01*
X4808118Y367385D01*
X4810861Y354025D01*
X4815332Y341122D01*
X4821478Y328980D01*
X4829200Y317754D01*
X4838344Y307594D01*
X4848758Y298805D01*
X4860239Y291490D01*
X4872634Y285750D01*
X4885639Y281686D01*
X4899101Y279450D01*
G37*
G36*
X340715Y278993D02*
G01*
X354279Y280314D01*
X367538Y283514D01*
X380288Y288391D01*
X392226Y294944D01*
X403199Y303022D01*
X413004Y312521D01*
X421487Y323240D01*
X428396Y334975D01*
X433730Y347522D01*
X437337Y360680D01*
X439166Y374192D01*
X439166Y387807D01*
X437235Y401675D01*
X436930Y405231D01*
X437845Y408635D01*
X439877Y411530D01*
X1219047Y1190701D01*
X1222298Y1192936D01*
X1226210Y1193698D01*
X5700420Y1193698D01*
X5704230Y1192936D01*
X5711037Y1190244D01*
X5720486Y1188212D01*
X5730138Y1187754D01*
X5739688Y1189024D01*
X5748883Y1191818D01*
X5757519Y1196187D01*
X5765292Y1201928D01*
X5771946Y1208887D01*
X5777331Y1216863D01*
X5781344Y1225651D01*
X5783732Y1234998D01*
X5784596Y1244600D01*
X5783732Y1254201D01*
X5781344Y1263548D01*
X5777331Y1272336D01*
X5771946Y1280312D01*
X5765292Y1287272D01*
X5757519Y1293012D01*
X5748883Y1297381D01*
X5739688Y1300175D01*
X5730138Y1301445D01*
X5720486Y1300988D01*
X5711037Y1298956D01*
X5704230Y1296263D01*
X5700420Y1295501D01*
X1201115Y1295501D01*
X1196492Y1295298D01*
X1192072Y1294739D01*
X1187754Y1293774D01*
X1183487Y1292453D01*
X1179423Y1290726D01*
X1175461Y1288694D01*
X1171702Y1286306D01*
X1168196Y1283614D01*
X1164742Y1280464D01*
X367741Y483412D01*
X364947Y481431D01*
X361645Y480517D01*
X358190Y480720D01*
X354279Y481685D01*
X340715Y483006D01*
X327101Y482549D01*
X313639Y480314D01*
X300634Y476250D01*
X288239Y470509D01*
X276758Y463194D01*
X266344Y454406D01*
X257200Y444246D01*
X249478Y433019D01*
X243332Y420878D01*
X238861Y407974D01*
X236118Y394614D01*
X235204Y381000D01*
X236118Y367385D01*
X238861Y354025D01*
X243332Y341122D01*
X249478Y328980D01*
X257200Y317754D01*
X266344Y307594D01*
X276758Y298805D01*
X288239Y291490D01*
X300634Y285750D01*
X313639Y281686D01*
X327101Y279450D01*
G37*
G36*
X635762Y289204D02*
G01*
X646226Y294944D01*
X657199Y303022D01*
X667004Y312521D01*
X675487Y323240D01*
X682396Y334975D01*
X683107Y336550D01*
X635762Y336550D01*
G37*
G36*
X3937762Y289204D02*
G01*
X3948226Y294944D01*
X3959199Y303022D01*
X3969004Y312521D01*
X3977487Y323240D01*
X3984396Y334975D01*
X3985107Y336550D01*
X3937762Y336550D01*
G37*
G36*
X3848862Y289356D02*
G01*
X3848862Y336550D01*
X3801618Y336550D01*
X3805478Y328980D01*
X3813200Y317754D01*
X3822344Y307594D01*
X3832758Y298805D01*
X3844239Y291490D01*
G37*
G36*
X546862Y289356D02*
G01*
X546862Y336550D01*
X499618Y336550D01*
X503478Y328980D01*
X511200Y317754D01*
X520344Y307594D01*
X530758Y298805D01*
X542239Y291490D01*
G37*
G36*
X7808518Y403352D02*
G01*
X7840980Y403352D01*
X7840980Y462280D01*
X7782052Y462280D01*
X7782052Y429818D01*
X7782763Y423519D01*
X7784693Y418033D01*
X7787741Y413156D01*
X7791856Y409041D01*
X7796733Y405993D01*
X7802219Y404063D01*
G37*
G36*
X7932420Y403352D02*
G01*
X7964881Y403352D01*
X7971180Y404063D01*
X7976666Y405993D01*
X7981543Y409041D01*
X7985658Y413156D01*
X7988706Y418033D01*
X7990636Y423519D01*
X7991348Y429818D01*
X7991348Y462280D01*
X7932420Y462280D01*
G37*
G36*
X3801618Y425450D02*
G01*
X3848862Y425450D01*
X3848862Y472643D01*
X3844239Y470509D01*
X3832758Y463194D01*
X3822344Y454406D01*
X3813200Y444246D01*
X3805478Y433019D01*
G37*
G36*
X499618Y425450D02*
G01*
X546862Y425450D01*
X546862Y472643D01*
X542239Y470509D01*
X530758Y463194D01*
X520344Y454406D01*
X511200Y444246D01*
X503478Y433019D01*
G37*
G36*
X635762Y425450D02*
G01*
X683107Y425450D01*
X682396Y427024D01*
X675487Y438759D01*
X667004Y449478D01*
X657199Y458978D01*
X646226Y467055D01*
X635762Y472795D01*
G37*
G36*
X3937762Y425450D02*
G01*
X3985107Y425450D01*
X3984396Y427024D01*
X3977487Y438759D01*
X3969004Y449478D01*
X3959199Y458978D01*
X3948226Y467055D01*
X3937762Y472795D01*
G37*
G36*
X7932420Y553720D02*
G01*
X7991348Y553720D01*
X7991348Y586181D01*
X7990636Y592480D01*
X7988706Y597966D01*
X7985658Y602843D01*
X7981543Y606958D01*
X7976666Y610006D01*
X7971180Y611936D01*
X7964881Y612648D01*
X7932420Y612648D01*
G37*
G36*
X7782052Y553720D02*
G01*
X7840980Y553720D01*
X7840980Y612648D01*
X7808518Y612648D01*
X7802219Y611936D01*
X7796733Y610006D01*
X7791856Y606958D01*
X7787741Y602843D01*
X7784693Y597966D01*
X7782763Y592480D01*
X7782052Y586181D01*
G37*
G36*
X7886700Y657352D02*
G01*
X7900365Y658266D01*
X7913776Y660958D01*
X7926730Y665327D01*
X7939024Y671372D01*
X7950403Y678992D01*
X7960664Y688035D01*
X7969707Y698296D01*
X7977327Y709676D01*
X7983372Y721969D01*
X7987741Y734923D01*
X7990433Y748334D01*
X7991348Y762000D01*
X7990433Y775665D01*
X7987741Y789076D01*
X7983372Y802030D01*
X7977327Y814324D01*
X7969707Y825703D01*
X7960664Y835964D01*
X7950403Y845007D01*
X7939024Y852627D01*
X7926730Y858672D01*
X7913776Y863041D01*
X7900365Y865733D01*
X7886700Y866648D01*
X7873034Y865733D01*
X7859623Y863041D01*
X7846669Y858672D01*
X7834375Y852627D01*
X7822996Y845007D01*
X7812735Y835964D01*
X7803692Y825703D01*
X7796072Y814324D01*
X7790027Y802030D01*
X7785658Y789076D01*
X7782966Y775665D01*
X7782052Y762000D01*
X7782966Y748334D01*
X7785658Y734923D01*
X7790027Y721969D01*
X7796072Y709676D01*
X7803692Y698296D01*
X7812735Y688035D01*
X7822996Y678992D01*
X7834375Y671372D01*
X7846669Y665327D01*
X7859623Y660958D01*
X7873034Y658266D01*
G37*
G36*
X7886700Y911352D02*
G01*
X7900365Y912266D01*
X7913776Y914958D01*
X7926730Y919327D01*
X7939024Y925372D01*
X7950403Y932992D01*
X7960664Y942035D01*
X7969707Y952296D01*
X7977327Y963676D01*
X7983372Y975969D01*
X7987741Y988923D01*
X7990433Y1002334D01*
X7991348Y1016000D01*
X7990433Y1029665D01*
X7987741Y1043076D01*
X7983372Y1056030D01*
X7977327Y1068324D01*
X7969707Y1079703D01*
X7960664Y1089964D01*
X7950403Y1099007D01*
X7939024Y1106627D01*
X7926730Y1112672D01*
X7913776Y1117041D01*
X7900365Y1119733D01*
X7886700Y1120648D01*
X7873034Y1119733D01*
X7859623Y1117041D01*
X7846669Y1112672D01*
X7834375Y1106627D01*
X7822996Y1099007D01*
X7812735Y1089964D01*
X7803692Y1079703D01*
X7796072Y1068324D01*
X7790027Y1056030D01*
X7785658Y1043076D01*
X7782966Y1029665D01*
X7782052Y1016000D01*
X7782966Y1002334D01*
X7785658Y988923D01*
X7790027Y975969D01*
X7796072Y963676D01*
X7803692Y952296D01*
X7812735Y942035D01*
X7822996Y932992D01*
X7834375Y925372D01*
X7846669Y919327D01*
X7859623Y914958D01*
X7873034Y912266D01*
G37*
G36*
X853338Y1136954D02*
G01*
X862888Y1138224D01*
X872083Y1141018D01*
X880719Y1145387D01*
X888492Y1151128D01*
X895146Y1158087D01*
X900531Y1166063D01*
X904240Y1174191D01*
X906322Y1177188D01*
X1110335Y1381201D01*
X1113586Y1383436D01*
X1117498Y1384198D01*
X1560220Y1384198D01*
X1564030Y1383436D01*
X1570837Y1380744D01*
X1580286Y1378712D01*
X1589938Y1378254D01*
X1599488Y1379524D01*
X1608683Y1382318D01*
X1617319Y1386687D01*
X1625092Y1392428D01*
X1631746Y1399387D01*
X1637131Y1407363D01*
X1641144Y1416151D01*
X1643532Y1425498D01*
X1644396Y1435100D01*
X1643532Y1444701D01*
X1641144Y1454048D01*
X1637131Y1462836D01*
X1631746Y1470812D01*
X1625092Y1477772D01*
X1617319Y1483512D01*
X1608683Y1487881D01*
X1599488Y1490675D01*
X1589938Y1491945D01*
X1580286Y1491488D01*
X1570837Y1489456D01*
X1564030Y1486763D01*
X1560220Y1486001D01*
X1092403Y1486001D01*
X1087780Y1485798D01*
X1083360Y1485239D01*
X1079042Y1484274D01*
X1074775Y1482953D01*
X1070711Y1481226D01*
X1066749Y1479194D01*
X1062990Y1476806D01*
X1059484Y1474114D01*
X1056030Y1470964D01*
X834085Y1249019D01*
X830732Y1246733D01*
X825296Y1244600D01*
X817067Y1239520D01*
X809853Y1233170D01*
X803757Y1225651D01*
X799084Y1217218D01*
X795883Y1208125D01*
X794258Y1198626D01*
X794258Y1188974D01*
X795883Y1179474D01*
X799084Y1170381D01*
X803757Y1161948D01*
X809853Y1154430D01*
X817067Y1148080D01*
X825296Y1143000D01*
X834237Y1139444D01*
X843686Y1137412D01*
G37*
G36*
X227533Y1153871D02*
G01*
X245567Y1155242D01*
X263398Y1158494D01*
X280771Y1163574D01*
X297586Y1170381D01*
X313537Y1178915D01*
X328574Y1189024D01*
X342493Y1200607D01*
X355142Y1213561D01*
X366369Y1227785D01*
X376072Y1243076D01*
X384149Y1259281D01*
X390550Y1276197D01*
X395173Y1293723D01*
X397967Y1311605D01*
X398881Y1329690D01*
X397967Y1347774D01*
X395173Y1365656D01*
X390550Y1383182D01*
X384149Y1400149D01*
X376072Y1416354D01*
X366369Y1431594D01*
X355142Y1445818D01*
X342493Y1458772D01*
X328574Y1470406D01*
X313537Y1480515D01*
X297586Y1488998D01*
X280771Y1495806D01*
X263398Y1500886D01*
X245567Y1504137D01*
X227533Y1505508D01*
X209448Y1505051D01*
X191465Y1502765D01*
X173837Y1498600D01*
X156718Y1492656D01*
X140309Y1484934D01*
X124815Y1475638D01*
X110337Y1464767D01*
X97028Y1452473D01*
X85090Y1438859D01*
X74574Y1424076D01*
X65684Y1408328D01*
X58419Y1391767D01*
X52882Y1374495D01*
X49225Y1356766D01*
X47345Y1338732D01*
X47345Y1320647D01*
X49225Y1302613D01*
X52882Y1284884D01*
X58419Y1267663D01*
X65684Y1251051D01*
X74574Y1235303D01*
X85090Y1220520D01*
X97028Y1206957D01*
X110337Y1194612D01*
X124815Y1183741D01*
X140309Y1174445D01*
X156718Y1166774D01*
X173837Y1160830D01*
X191465Y1156665D01*
X209448Y1154328D01*
G37*
G36*
X7886700Y1165352D02*
G01*
X7900365Y1166266D01*
X7913776Y1168958D01*
X7926730Y1173327D01*
X7939024Y1179372D01*
X7950403Y1186992D01*
X7960664Y1196035D01*
X7969707Y1206296D01*
X7977327Y1217676D01*
X7983372Y1229969D01*
X7987741Y1242923D01*
X7990433Y1256334D01*
X7991348Y1270000D01*
X7990433Y1283665D01*
X7987741Y1297076D01*
X7983372Y1310030D01*
X7977327Y1322324D01*
X7969707Y1333703D01*
X7960664Y1343964D01*
X7950403Y1353007D01*
X7939024Y1360627D01*
X7926730Y1366672D01*
X7913776Y1371041D01*
X7900365Y1373733D01*
X7886700Y1374648D01*
X7873034Y1373733D01*
X7859623Y1371041D01*
X7846669Y1366672D01*
X7834375Y1360627D01*
X7822996Y1353007D01*
X7812735Y1343964D01*
X7803692Y1333703D01*
X7796072Y1322324D01*
X7790027Y1310030D01*
X7785658Y1297076D01*
X7782966Y1283665D01*
X7782052Y1270000D01*
X7782966Y1256334D01*
X7785658Y1242923D01*
X7790027Y1229969D01*
X7796072Y1217676D01*
X7803692Y1206296D01*
X7812735Y1196035D01*
X7822996Y1186992D01*
X7834375Y1179372D01*
X7846669Y1173327D01*
X7859623Y1168958D01*
X7873034Y1166266D01*
G37*
G36*
X7886700Y1419352D02*
G01*
X7900365Y1420266D01*
X7913776Y1422958D01*
X7926730Y1427327D01*
X7939024Y1433372D01*
X7950403Y1440992D01*
X7960664Y1450035D01*
X7969707Y1460296D01*
X7977327Y1471676D01*
X7983372Y1483969D01*
X7987741Y1496923D01*
X7990433Y1510334D01*
X7991348Y1524000D01*
X7990433Y1537665D01*
X7987741Y1551076D01*
X7983372Y1564030D01*
X7977327Y1576324D01*
X7969707Y1587703D01*
X7960664Y1597964D01*
X7950403Y1607007D01*
X7939024Y1614627D01*
X7926730Y1620672D01*
X7913776Y1625041D01*
X7900365Y1627733D01*
X7886700Y1628648D01*
X7873034Y1627733D01*
X7859623Y1625041D01*
X7846669Y1620672D01*
X7834375Y1614627D01*
X7822996Y1607007D01*
X7812735Y1597964D01*
X7803692Y1587703D01*
X7796072Y1576324D01*
X7790027Y1564030D01*
X7785658Y1551076D01*
X7782966Y1537665D01*
X7782052Y1524000D01*
X7782966Y1510334D01*
X7785658Y1496923D01*
X7790027Y1483969D01*
X7796072Y1471676D01*
X7803692Y1460296D01*
X7812735Y1450035D01*
X7822996Y1440992D01*
X7834375Y1433372D01*
X7846669Y1427327D01*
X7859623Y1422958D01*
X7873034Y1420266D01*
G37*
G36*
X2286000Y1927352D02*
G01*
X2299665Y1928266D01*
X2313076Y1930958D01*
X2326030Y1935327D01*
X2338324Y1941372D01*
X2349703Y1948992D01*
X2359964Y1958035D01*
X2369007Y1968296D01*
X2376627Y1979675D01*
X2382672Y1991969D01*
X2387041Y2004923D01*
X2389733Y2018334D01*
X2390648Y2032000D01*
X2389733Y2045665D01*
X2387041Y2059076D01*
X2382672Y2072030D01*
X2376627Y2084324D01*
X2369007Y2095703D01*
X2359964Y2105964D01*
X2349703Y2115007D01*
X2338324Y2122627D01*
X2326030Y2128672D01*
X2313076Y2133041D01*
X2299665Y2135733D01*
X2286000Y2136648D01*
X2272334Y2135733D01*
X2258923Y2133041D01*
X2245969Y2128672D01*
X2233676Y2122627D01*
X2222296Y2115007D01*
X2212035Y2105964D01*
X2202992Y2095703D01*
X2195372Y2084324D01*
X2189327Y2072030D01*
X2184958Y2059076D01*
X2182266Y2045665D01*
X2181352Y2032000D01*
X2182266Y2018334D01*
X2184958Y2004923D01*
X2189327Y1991969D01*
X2195372Y1979675D01*
X2202992Y1968296D01*
X2212035Y1958035D01*
X2222296Y1948992D01*
X2233676Y1941372D01*
X2245969Y1935327D01*
X2258923Y1930958D01*
X2272334Y1928266D01*
G37*
G36*
X3315563Y1927352D02*
G01*
X3329228Y1928266D01*
X3342640Y1930958D01*
X3355594Y1935327D01*
X3367887Y1941372D01*
X3379266Y1948992D01*
X3389528Y1958035D01*
X3398570Y1968296D01*
X3406190Y1979675D01*
X3412236Y1991969D01*
X3416604Y2004923D01*
X3419297Y2018334D01*
X3420211Y2032000D01*
X3419297Y2045665D01*
X3416604Y2059076D01*
X3412236Y2072030D01*
X3406190Y2084324D01*
X3398570Y2095703D01*
X3389528Y2105964D01*
X3379266Y2115007D01*
X3367887Y2122627D01*
X3355594Y2128672D01*
X3342640Y2133041D01*
X3329228Y2135733D01*
X3315563Y2136648D01*
X3301898Y2135733D01*
X3288487Y2133041D01*
X3275533Y2128672D01*
X3263239Y2122627D01*
X3251860Y2115007D01*
X3241598Y2105964D01*
X3232556Y2095703D01*
X3224936Y2084324D01*
X3218891Y2072030D01*
X3214522Y2059076D01*
X3211830Y2045665D01*
X3210915Y2032000D01*
X3211830Y2018334D01*
X3214522Y2004923D01*
X3218891Y1991969D01*
X3224936Y1979675D01*
X3232556Y1968296D01*
X3241598Y1958035D01*
X3251860Y1948992D01*
X3263239Y1941372D01*
X3275533Y1935327D01*
X3288487Y1930958D01*
X3301898Y1928266D01*
G37*
G36*
X227533Y2153869D02*
G01*
X245567Y2155240D01*
X263398Y2158492D01*
X280771Y2163572D01*
X297586Y2170379D01*
X313537Y2178913D01*
X328574Y2189022D01*
X342493Y2200605D01*
X355142Y2213559D01*
X366369Y2227783D01*
X376072Y2243074D01*
X384149Y2259279D01*
X390550Y2276195D01*
X395173Y2293721D01*
X397967Y2311603D01*
X398881Y2329688D01*
X397967Y2347772D01*
X395173Y2365654D01*
X390550Y2383180D01*
X384149Y2400147D01*
X376072Y2416352D01*
X366369Y2431592D01*
X355142Y2445816D01*
X342493Y2458770D01*
X328574Y2470404D01*
X313537Y2480513D01*
X297586Y2488996D01*
X280771Y2495804D01*
X263398Y2500884D01*
X245567Y2504135D01*
X227533Y2505506D01*
X209448Y2505049D01*
X191465Y2502763D01*
X173837Y2498598D01*
X156718Y2492654D01*
X140309Y2484932D01*
X124815Y2475636D01*
X110337Y2464765D01*
X97028Y2452471D01*
X85090Y2438857D01*
X74574Y2424074D01*
X65684Y2408326D01*
X58419Y2391765D01*
X52882Y2374493D01*
X49225Y2356764D01*
X47345Y2338730D01*
X47345Y2320645D01*
X49225Y2302611D01*
X52882Y2284882D01*
X58419Y2267661D01*
X65684Y2251049D01*
X74574Y2235301D01*
X85090Y2220518D01*
X97028Y2206955D01*
X110337Y2194610D01*
X124815Y2183739D01*
X140309Y2174443D01*
X156718Y2166772D01*
X173837Y2160828D01*
X191465Y2156663D01*
X209448Y2154326D01*
G37*
G36*
X6027521Y2153869D02*
G01*
X6045606Y2155240D01*
X6063386Y2158492D01*
X6080810Y2163572D01*
X6097574Y2170379D01*
X6113526Y2178913D01*
X6128562Y2189022D01*
X6142482Y2200605D01*
X6155131Y2213559D01*
X6166358Y2227783D01*
X6176060Y2243074D01*
X6184188Y2259228D01*
X6190538Y2276195D01*
X6195161Y2293721D01*
X6197955Y2311603D01*
X6198870Y2329688D01*
X6197955Y2347772D01*
X6195161Y2365654D01*
X6190538Y2383180D01*
X6184188Y2400147D01*
X6176060Y2416302D01*
X6166358Y2431592D01*
X6155131Y2445816D01*
X6142482Y2458770D01*
X6128562Y2470353D01*
X6113526Y2480462D01*
X6097574Y2488996D01*
X6080810Y2495804D01*
X6063386Y2500884D01*
X6045606Y2504135D01*
X6027521Y2505506D01*
X6009436Y2505049D01*
X5991453Y2502712D01*
X5973826Y2498598D01*
X5956757Y2492603D01*
X5940348Y2484932D01*
X5924804Y2475636D01*
X5910326Y2464765D01*
X5897016Y2452471D01*
X5885078Y2438857D01*
X5874562Y2424074D01*
X5865672Y2408326D01*
X5858408Y2391714D01*
X5852922Y2374493D01*
X5849213Y2356764D01*
X5847334Y2338730D01*
X5847334Y2320645D01*
X5849213Y2302611D01*
X5852922Y2284882D01*
X5858408Y2267661D01*
X5865672Y2251049D01*
X5874562Y2235301D01*
X5885078Y2220518D01*
X5897016Y2206904D01*
X5910326Y2194610D01*
X5924804Y2183739D01*
X5940348Y2174443D01*
X5956757Y2166772D01*
X5973826Y2160778D01*
X5991453Y2156663D01*
X6009436Y2154326D01*
G37*
G36*
X8027517Y2153869D02*
G01*
X8045551Y2155240D01*
X8063382Y2158492D01*
X8080756Y2163572D01*
X8097570Y2170379D01*
X8113522Y2178913D01*
X8128558Y2189022D01*
X8142478Y2200605D01*
X8155127Y2213559D01*
X8166353Y2227783D01*
X8176056Y2243074D01*
X8184134Y2259279D01*
X8190534Y2276195D01*
X8195157Y2293721D01*
X8197951Y2311603D01*
X8198866Y2329688D01*
X8197951Y2347772D01*
X8195157Y2365654D01*
X8190534Y2383180D01*
X8184134Y2400147D01*
X8176056Y2416352D01*
X8166353Y2431592D01*
X8155127Y2445816D01*
X8142478Y2458770D01*
X8128558Y2470404D01*
X8113522Y2480513D01*
X8097570Y2488996D01*
X8080756Y2495804D01*
X8063382Y2500884D01*
X8045551Y2504135D01*
X8027517Y2505506D01*
X8009432Y2505049D01*
X7991449Y2502763D01*
X7973822Y2498598D01*
X7956702Y2492654D01*
X7940294Y2484932D01*
X7924800Y2475636D01*
X7910322Y2464765D01*
X7897012Y2452471D01*
X7885074Y2438857D01*
X7874558Y2424074D01*
X7865668Y2408326D01*
X7858404Y2391765D01*
X7852867Y2374493D01*
X7849209Y2356764D01*
X7847330Y2338730D01*
X7847330Y2320645D01*
X7849209Y2302611D01*
X7852867Y2284882D01*
X7858404Y2267661D01*
X7865668Y2251049D01*
X7874558Y2235301D01*
X7885074Y2220518D01*
X7897012Y2206955D01*
X7910322Y2194610D01*
X7924800Y2183739D01*
X7940294Y2174443D01*
X7956702Y2166772D01*
X7973822Y2160828D01*
X7991449Y2156663D01*
X8009432Y2154326D01*
G37*
G36*
X3237382Y2181352D02*
G01*
X3393744Y2181352D01*
X3400044Y2182063D01*
X3405530Y2183993D01*
X3410407Y2187041D01*
X3414522Y2191156D01*
X3417570Y2196033D01*
X3419500Y2201519D01*
X3420211Y2207818D01*
X3420211Y2364181D01*
X3419500Y2370480D01*
X3417570Y2375966D01*
X3414522Y2380843D01*
X3410407Y2384958D01*
X3405530Y2388006D01*
X3400044Y2389936D01*
X3393744Y2390648D01*
X3237382Y2390648D01*
X3231083Y2389936D01*
X3225596Y2388006D01*
X3220720Y2384958D01*
X3216605Y2380843D01*
X3213557Y2375966D01*
X3211626Y2370480D01*
X3210915Y2364181D01*
X3210915Y2207818D01*
X3211626Y2201519D01*
X3213557Y2196033D01*
X3216605Y2191156D01*
X3220720Y2187041D01*
X3225596Y2183993D01*
X3231083Y2182063D01*
G37*
G36*
X2207818Y2181352D02*
G01*
X2364181Y2181352D01*
X2370480Y2182063D01*
X2375966Y2183993D01*
X2380843Y2187041D01*
X2384958Y2191156D01*
X2388006Y2196033D01*
X2389936Y2201519D01*
X2390648Y2207818D01*
X2390648Y2364181D01*
X2389936Y2370480D01*
X2388006Y2375966D01*
X2384958Y2380843D01*
X2380843Y2384958D01*
X2375966Y2388006D01*
X2370480Y2389936D01*
X2364181Y2390648D01*
X2207818Y2390648D01*
X2201519Y2389936D01*
X2196033Y2388006D01*
X2191156Y2384958D01*
X2187041Y2380843D01*
X2183993Y2375966D01*
X2182063Y2370480D01*
X2181352Y2364181D01*
X2181352Y2207818D01*
X2182063Y2201519D01*
X2183993Y2196033D01*
X2187041Y2191156D01*
X2191156Y2187041D01*
X2196033Y2183993D01*
X2201519Y2182063D01*
G37*

%LPD*%
D10*
X7416800Y-622300D02*
G01*
X7467600Y-673100D01*
X7467600Y-1016000D01*
D11*
X337312Y381000D02*
G01*
X1200912Y1244600D01*
X5727700Y1244600D01*
D10*
X6756400Y-88900D02*
G01*
X6756400Y749300D01*
X6756400Y-584200D02*
G01*
X6756400Y-88900D01*
X6870700Y1092200D02*
G01*
X5620511Y1092200D01*
X4909311Y381000D01*
X3175000Y-2082800D02*
G01*
X2286000Y-2082800D01*
D11*
X850900Y1193800D02*
G01*
X1092200Y1435100D01*
X1587500Y1435100D01*
D10*
X3898900Y-2159000D02*
G01*
X4419600Y-2679700D01*
D12*
G01*
X7823200Y-2908300D03*
D13*
G01*
X7823200Y-3162300D03*
D12*
G01*
X7810500Y-1943100D03*
D13*
G01*
X7810500Y-2197100D03*
D12*
G01*
X2286000Y2286000D03*
D13*
G01*
X2286000Y2032000D03*
D12*
G01*
X3315563Y2286000D03*
D13*
G01*
X3315563Y2032000D03*
G01*
X7874000Y-254000D03*
G01*
X7874000Y-508000D03*
G01*
X7874000Y-762000D03*
G01*
X7874000Y-1016000D03*
D12*
G01*
X7874000Y-1270000D03*
D13*
G01*
X7886700Y1524000D03*
G01*
X7886700Y1270000D03*
G01*
X7886700Y1016000D03*
G01*
X7886700Y762000D03*
D12*
G01*
X7886700Y508000D03*
D14*
G01*
X1181100Y-3810000D03*
G01*
X1181100Y-5334000D03*
G01*
X3721100Y-5334000D03*
G01*
X3721100Y-3810000D03*
G01*
X4521200Y-3822700D03*
G01*
X4521200Y-5346700D03*
G01*
X7061200Y-5346700D03*
G01*
X7061200Y-3822700D03*
D15*
G01*
X6179311Y-1143000D03*
G01*
X5671311Y-1143000D03*
G01*
X5417311Y-1143000D03*
G01*
X5925311Y-1143000D03*
G01*
X5163311Y-1143000D03*
G01*
X5925311Y381000D03*
G01*
X6179311Y381000D03*
G01*
X4909311Y-1143000D03*
G01*
X4909311Y-889000D03*
G01*
X4909311Y-635000D03*
G01*
X4909311Y-381000D03*
G01*
X4909311Y-127000D03*
G01*
X4909311Y127000D03*
G01*
X4909311Y381000D03*
G01*
X5163311Y381000D03*
G01*
X5417311Y381000D03*
G01*
X5671311Y381000D03*
G01*
X4655311Y-1143000D03*
G01*
X4147286Y-1143000D03*
G01*
X3893286Y-1143000D03*
G01*
X3639286Y-1143000D03*
G01*
X3385286Y-1143000D03*
G01*
X3131286Y-1143000D03*
G01*
X2877286Y-1143000D03*
G01*
X2623286Y-1143000D03*
G01*
X2369286Y-1143000D03*
G01*
X2115286Y-1143000D03*
G01*
X1861286Y-1143000D03*
G01*
X1607312Y-1143000D03*
G01*
X1353312Y-1143000D03*
G01*
X1099312Y-1143000D03*
G01*
X845312Y-1143000D03*
G01*
X591312Y-1143000D03*
G01*
X337312Y-1143000D03*
G01*
X337312Y381000D03*
G01*
X591312Y381000D03*
G01*
X845312Y381000D03*
G01*
X1099312Y381000D03*
G01*
X1353312Y381000D03*
G01*
X1607312Y381000D03*
G01*
X1861286Y381000D03*
G01*
X2115286Y381000D03*
G01*
X2369286Y381000D03*
G01*
X2623286Y381000D03*
G01*
X2877286Y381000D03*
G01*
X3131286Y381000D03*
G01*
X3385286Y381000D03*
G01*
X3639286Y381000D03*
G01*
X3893286Y381000D03*
G01*
X4147286Y381000D03*
G01*
X4655311Y381000D03*
G01*
X591312Y127000D03*
D16*
G01*
X1634312Y-59004D03*
G01*
X1834311Y140995D03*
G01*
X1634312Y140995D03*
D15*
G01*
X4401311Y381000D03*
G01*
X4401311Y-1143000D03*
G01*
X398322Y-508000D03*
G01*
X398322Y-254000D03*
G01*
X972312Y-843000D03*
G01*
X1226312Y-843000D03*
G01*
X1480312Y-843000D03*
G01*
X1734312Y-843000D03*
G01*
X1988286Y-843000D03*
D16*
G01*
X1634312Y-259003D03*
G01*
X1834311Y-59004D03*
G01*
X1834311Y-259003D03*
D17*
G01*
X342900Y-5329986D03*
G01*
X342900Y-4829987D03*
G01*
X7899400Y-4842687D03*
G01*
X7899400Y-5342686D03*
G01*
X7899400Y-3801287D03*
G01*
X7899400Y-4301286D03*
D18*
G01*
X3175000Y-2082800D03*
G01*
X2286000Y-2082800D03*
G01*
X5168900Y-2413000D03*
G01*
X4762500Y-2552700D03*
G01*
X3898900Y-2159000D03*
G01*
X4419600Y-2679700D03*
G01*
X3174669Y-1545640D03*
G01*
X1217371Y2327859D03*
G01*
X4087799Y-2159000D03*
G01*
X3467100Y1524000D03*
G01*
X2133600Y1625600D03*
G01*
X850900Y1193800D03*
G01*
X1587500Y1435100D03*
G01*
X4495800Y-3238500D03*
G01*
X3505200Y-3225800D03*
G01*
X6870700Y1092200D03*
G01*
X5727700Y1244600D03*
G01*
X7416800Y-622300D03*
G01*
X6756400Y-584200D03*
G01*
X6756400Y-88900D03*
G01*
X6756400Y749300D03*
G01*
X7467600Y-1016000D03*
M02*
