G04 Layer: TopPasteMaskLayer*
G04 EasyEDA v6.5.39, 2024-01-10 21:05:38*
G04 9cfd073529b94999841d5e3d22f50bd2,208856bd7ad64deca1bfdec547b981c7,10*
G04 Gerber Generator version 0.2*
G04 Scale: 100 percent, Rotated: No, Reflected: No *
G04 Dimensions in millimeters *
G04 leading zeros omitted , absolute positions ,4 integer and 5 decimal *
%FSLAX45Y45*%
%MOMM*%

%ADD10R,0.8000X0.8000*%
%ADD11O,1.3240004X0.30800039999999995*%
%ADD12R,1.0000X0.8000*%
%ADD13R,2.8000X1.1000*%

%LPD*%
G36*
X1716887Y1938477D02*
G01*
X1712874Y1934464D01*
X1712874Y1884375D01*
X1716887Y1880412D01*
X1762912Y1880412D01*
X1766925Y1884375D01*
X1766925Y1934464D01*
X1762912Y1938477D01*
G37*
G36*
X1716887Y1853387D02*
G01*
X1712874Y1849424D01*
X1712874Y1799336D01*
X1716887Y1795322D01*
X1762912Y1795322D01*
X1766925Y1799336D01*
X1766925Y1849424D01*
X1762912Y1853387D01*
G37*
G36*
X3825290Y-2087981D02*
G01*
X3820312Y-2093010D01*
X3820312Y-2220976D01*
X3825290Y-2226005D01*
X3940301Y-2226005D01*
X3945280Y-2220976D01*
X3944823Y-2179015D01*
X3900779Y-2179015D01*
X3900779Y-2134006D01*
X3945788Y-2134006D01*
X3945280Y-2093010D01*
X3940301Y-2087981D01*
G37*
G36*
X4040276Y-2087981D02*
G01*
X4035298Y-2093010D01*
X4035806Y-2134006D01*
X4079798Y-2134006D01*
X4079798Y-2179015D01*
X4035298Y-2179015D01*
X4035298Y-2220976D01*
X4040276Y-2226005D01*
X4155287Y-2226005D01*
X4160316Y-2220976D01*
X4160316Y-2093010D01*
X4155287Y-2087981D01*
G37*
G36*
X3654298Y-3158794D02*
G01*
X3649319Y-3163824D01*
X3649776Y-3205784D01*
X3693820Y-3205784D01*
X3693820Y-3250793D01*
X3648811Y-3250793D01*
X3649319Y-3291789D01*
X3654298Y-3296818D01*
X3769309Y-3296818D01*
X3774287Y-3291789D01*
X3774287Y-3163824D01*
X3769309Y-3158794D01*
G37*
G36*
X3439312Y-3158794D02*
G01*
X3434283Y-3163824D01*
X3434283Y-3291789D01*
X3439312Y-3296818D01*
X3554323Y-3296818D01*
X3559301Y-3291789D01*
X3558794Y-3250793D01*
X3514801Y-3250793D01*
X3514801Y-3205784D01*
X3559301Y-3205784D01*
X3559301Y-3163824D01*
X3554323Y-3158794D01*
G37*
G36*
X6843420Y727506D02*
G01*
X6838391Y722477D01*
X6838391Y642518D01*
X6843420Y637489D01*
X6923379Y637489D01*
X6928408Y642518D01*
X6928408Y722477D01*
X6923379Y727506D01*
X6900621Y727506D01*
X6900621Y690473D01*
X6867601Y690473D01*
X6867601Y727506D01*
G37*
G36*
X6843420Y886510D02*
G01*
X6838391Y881481D01*
X6838391Y802487D01*
X6843420Y797509D01*
X6867601Y797509D01*
X6867601Y835507D01*
X6900621Y835507D01*
X6900621Y797509D01*
X6923379Y797509D01*
X6928408Y802487D01*
X6928408Y881481D01*
X6923379Y886510D01*
G37*
G36*
X7351420Y645210D02*
G01*
X7346391Y640181D01*
X7346391Y560222D01*
X7351420Y555193D01*
X7374178Y555193D01*
X7374178Y592226D01*
X7407198Y592226D01*
X7407198Y555193D01*
X7431379Y555193D01*
X7436408Y560222D01*
X7436408Y640181D01*
X7431379Y645210D01*
G37*
G36*
X7351420Y485190D02*
G01*
X7346391Y480212D01*
X7346391Y401218D01*
X7351420Y396189D01*
X7431379Y396189D01*
X7436408Y401218D01*
X7436408Y480212D01*
X7431379Y485190D01*
X7407198Y485190D01*
X7407198Y447192D01*
X7374178Y447192D01*
X7374178Y485190D01*
G37*
G36*
X6665620Y1248206D02*
G01*
X6660591Y1243177D01*
X6660591Y1163218D01*
X6665620Y1158189D01*
X6745579Y1158189D01*
X6750608Y1163218D01*
X6750608Y1243177D01*
X6745579Y1248206D01*
X6722821Y1248206D01*
X6722821Y1211173D01*
X6689801Y1211173D01*
X6689801Y1248206D01*
G37*
G36*
X6665620Y1407210D02*
G01*
X6660591Y1402181D01*
X6660591Y1323187D01*
X6665620Y1318209D01*
X6689801Y1318209D01*
X6689801Y1356207D01*
X6722821Y1356207D01*
X6722821Y1318209D01*
X6745579Y1318209D01*
X6750608Y1323187D01*
X6750608Y1402181D01*
X6745579Y1407210D01*
G37*
G36*
X6208420Y981506D02*
G01*
X6203391Y976477D01*
X6203391Y896518D01*
X6208420Y891489D01*
X6288379Y891489D01*
X6293408Y896518D01*
X6293408Y976477D01*
X6288379Y981506D01*
X6265621Y981506D01*
X6265621Y944473D01*
X6232601Y944473D01*
X6232601Y981506D01*
G37*
G36*
X6208420Y1140510D02*
G01*
X6203391Y1135481D01*
X6203391Y1056487D01*
X6208420Y1051509D01*
X6232601Y1051509D01*
X6232601Y1089507D01*
X6265621Y1089507D01*
X6265621Y1051509D01*
X6288379Y1051509D01*
X6293408Y1056487D01*
X6293408Y1135481D01*
X6288379Y1140510D01*
G37*
G36*
X7351420Y1476806D02*
G01*
X7346391Y1471777D01*
X7346391Y1391818D01*
X7351420Y1386789D01*
X7431379Y1386789D01*
X7436408Y1391818D01*
X7436408Y1471777D01*
X7431379Y1476806D01*
X7408621Y1476806D01*
X7408621Y1439773D01*
X7375601Y1439773D01*
X7375601Y1476806D01*
G37*
G36*
X7351420Y1635810D02*
G01*
X7346391Y1630781D01*
X7346391Y1551787D01*
X7351420Y1546809D01*
X7375601Y1546809D01*
X7375601Y1584807D01*
X7408621Y1584807D01*
X7408621Y1546809D01*
X7431379Y1546809D01*
X7436408Y1551787D01*
X7436408Y1630781D01*
X7431379Y1635810D01*
G37*
G36*
X6843420Y1248206D02*
G01*
X6838391Y1243177D01*
X6838391Y1163218D01*
X6843420Y1158189D01*
X6923379Y1158189D01*
X6928408Y1163218D01*
X6928408Y1243177D01*
X6923379Y1248206D01*
X6900621Y1248206D01*
X6900621Y1211173D01*
X6867601Y1211173D01*
X6867601Y1248206D01*
G37*
G36*
X6843420Y1407210D02*
G01*
X6838391Y1402181D01*
X6838391Y1323187D01*
X6843420Y1318209D01*
X6867601Y1318209D01*
X6867601Y1356207D01*
X6900621Y1356207D01*
X6900621Y1318209D01*
X6923379Y1318209D01*
X6928408Y1323187D01*
X6928408Y1402181D01*
X6923379Y1407210D01*
G37*
G36*
X6805320Y-288493D02*
G01*
X6800291Y-293522D01*
X6800291Y-373481D01*
X6805320Y-378510D01*
X6885279Y-378510D01*
X6890308Y-373481D01*
X6890308Y-293522D01*
X6885279Y-288493D01*
X6862521Y-288493D01*
X6862521Y-325526D01*
X6829501Y-325526D01*
X6829501Y-288493D01*
G37*
G36*
X6805320Y-129489D02*
G01*
X6800291Y-134518D01*
X6800291Y-213512D01*
X6805320Y-218490D01*
X6829501Y-218490D01*
X6829501Y-180492D01*
X6862521Y-180492D01*
X6862521Y-218490D01*
X6885279Y-218490D01*
X6890308Y-213512D01*
X6890308Y-134518D01*
X6885279Y-129489D01*
G37*
G36*
X7402220Y-351993D02*
G01*
X7397191Y-357022D01*
X7397191Y-436981D01*
X7402220Y-442010D01*
X7482179Y-442010D01*
X7487208Y-436981D01*
X7487208Y-357022D01*
X7482179Y-351993D01*
X7459421Y-351993D01*
X7459421Y-389026D01*
X7426401Y-389026D01*
X7426401Y-351993D01*
G37*
G36*
X7402220Y-192989D02*
G01*
X7397191Y-198018D01*
X7397191Y-277012D01*
X7402220Y-281990D01*
X7426401Y-281990D01*
X7426401Y-243992D01*
X7459421Y-243992D01*
X7459421Y-281990D01*
X7482179Y-281990D01*
X7487208Y-277012D01*
X7487208Y-198018D01*
X7482179Y-192989D01*
G37*
G36*
X6500520Y-809193D02*
G01*
X6495491Y-814222D01*
X6495491Y-894181D01*
X6500520Y-899210D01*
X6580479Y-899210D01*
X6585508Y-894181D01*
X6585508Y-814222D01*
X6580479Y-809193D01*
X6557721Y-809193D01*
X6557721Y-846226D01*
X6524701Y-846226D01*
X6524701Y-809193D01*
G37*
G36*
X6500520Y-650189D02*
G01*
X6495491Y-655218D01*
X6495491Y-734212D01*
X6500520Y-739190D01*
X6524701Y-739190D01*
X6524701Y-701192D01*
X6557721Y-701192D01*
X6557721Y-739190D01*
X6580479Y-739190D01*
X6585508Y-734212D01*
X6585508Y-655218D01*
X6580479Y-650189D01*
G37*
G36*
X7148220Y-732993D02*
G01*
X7143191Y-738022D01*
X7143191Y-817981D01*
X7148220Y-823010D01*
X7228179Y-823010D01*
X7233208Y-817981D01*
X7233208Y-738022D01*
X7228179Y-732993D01*
X7205421Y-732993D01*
X7205421Y-770026D01*
X7172401Y-770026D01*
X7172401Y-732993D01*
G37*
G36*
X7148220Y-573989D02*
G01*
X7143191Y-579018D01*
X7143191Y-658012D01*
X7148220Y-662990D01*
X7172401Y-662990D01*
X7172401Y-624992D01*
X7205421Y-624992D01*
X7205421Y-662990D01*
X7228179Y-662990D01*
X7233208Y-658012D01*
X7233208Y-579018D01*
X7228179Y-573989D01*
G37*
G36*
X7414920Y-1228293D02*
G01*
X7409891Y-1233322D01*
X7409891Y-1313281D01*
X7414920Y-1318310D01*
X7494879Y-1318310D01*
X7499908Y-1313281D01*
X7499908Y-1233322D01*
X7494879Y-1228293D01*
X7472121Y-1228293D01*
X7472121Y-1265326D01*
X7439101Y-1265326D01*
X7439101Y-1228293D01*
G37*
G36*
X7414920Y-1069289D02*
G01*
X7409891Y-1074318D01*
X7409891Y-1153312D01*
X7414920Y-1158290D01*
X7439101Y-1158290D01*
X7439101Y-1120292D01*
X7472121Y-1120292D01*
X7472121Y-1158290D01*
X7494879Y-1158290D01*
X7499908Y-1153312D01*
X7499908Y-1074318D01*
X7494879Y-1069289D01*
G37*
G36*
X6830720Y-1304493D02*
G01*
X6825691Y-1309522D01*
X6825691Y-1389481D01*
X6830720Y-1394510D01*
X6910679Y-1394510D01*
X6915708Y-1389481D01*
X6915708Y-1309522D01*
X6910679Y-1304493D01*
X6887921Y-1304493D01*
X6887921Y-1341526D01*
X6854901Y-1341526D01*
X6854901Y-1304493D01*
G37*
G36*
X6830720Y-1145489D02*
G01*
X6825691Y-1150518D01*
X6825691Y-1229512D01*
X6830720Y-1234490D01*
X6854901Y-1234490D01*
X6854901Y-1196492D01*
X6887921Y-1196492D01*
X6887921Y-1234490D01*
X6910679Y-1234490D01*
X6915708Y-1229512D01*
X6915708Y-1150518D01*
X6910679Y-1145489D01*
G37*
G36*
X2090318Y1670608D02*
G01*
X2085289Y1665579D01*
X2085289Y1585620D01*
X2090318Y1580591D01*
X2170277Y1580591D01*
X2175306Y1585620D01*
X2175306Y1608378D01*
X2138324Y1608378D01*
X2138324Y1641398D01*
X2175306Y1641398D01*
X2175306Y1665579D01*
X2170277Y1670608D01*
G37*
G36*
X2250287Y1670608D02*
G01*
X2245309Y1665579D01*
X2245309Y1641398D01*
X2283307Y1641398D01*
X2283307Y1608378D01*
X2245309Y1608378D01*
X2245309Y1585620D01*
X2250287Y1580591D01*
X2329281Y1580591D01*
X2334310Y1585620D01*
X2334310Y1665579D01*
X2329281Y1670608D01*
G37*
G36*
X3430422Y1569008D02*
G01*
X3425393Y1563979D01*
X3425393Y1541221D01*
X3462375Y1541221D01*
X3462375Y1508201D01*
X3425393Y1508201D01*
X3425393Y1484020D01*
X3430422Y1478991D01*
X3510381Y1478991D01*
X3515410Y1484020D01*
X3515410Y1563979D01*
X3510381Y1569008D01*
G37*
G36*
X3271418Y1569008D02*
G01*
X3266389Y1563979D01*
X3266389Y1484020D01*
X3271418Y1478991D01*
X3350412Y1478991D01*
X3355390Y1484020D01*
X3355390Y1508201D01*
X3317392Y1508201D01*
X3317392Y1541221D01*
X3355390Y1541221D01*
X3355390Y1563979D01*
X3350412Y1569008D01*
G37*
G36*
X1069187Y1938477D02*
G01*
X1065174Y1934464D01*
X1065174Y1884375D01*
X1069187Y1880412D01*
X1115212Y1880412D01*
X1119225Y1884375D01*
X1119225Y1934464D01*
X1115212Y1938477D01*
G37*
G36*
X1069187Y1853387D02*
G01*
X1065174Y1849424D01*
X1065174Y1799336D01*
X1069187Y1795322D01*
X1115212Y1795322D01*
X1119225Y1799336D01*
X1119225Y1849424D01*
X1115212Y1853387D01*
G37*
G36*
X1335887Y1938477D02*
G01*
X1331874Y1934464D01*
X1331874Y1884375D01*
X1335887Y1880412D01*
X1381912Y1880412D01*
X1385925Y1884375D01*
X1385925Y1934464D01*
X1381912Y1938477D01*
G37*
G36*
X1335887Y1853387D02*
G01*
X1331874Y1849424D01*
X1331874Y1799336D01*
X1335887Y1795322D01*
X1381912Y1795322D01*
X1385925Y1799336D01*
X1385925Y1849424D01*
X1381912Y1853387D01*
G37*
G36*
X3151987Y-1846122D02*
G01*
X3147974Y-1850136D01*
X3147974Y-1900224D01*
X3151987Y-1904187D01*
X3198012Y-1904187D01*
X3202025Y-1900224D01*
X3202025Y-1850136D01*
X3198012Y-1846122D01*
G37*
G36*
X3151987Y-1931212D02*
G01*
X3147974Y-1935175D01*
X3147974Y-1985264D01*
X3151987Y-1989277D01*
X3198012Y-1989277D01*
X3202025Y-1985264D01*
X3202025Y-1935175D01*
X3198012Y-1931212D01*
G37*
D10*
G01*
X1739544Y2327859D03*
G01*
X1740255Y2167966D03*
G01*
X1091844Y2327859D03*
G01*
X1092555Y2167966D03*
G01*
X1358544Y2327859D03*
G01*
X1359255Y2167966D03*
G01*
X3187344Y-1532940D03*
G01*
X3188055Y-1692833D03*
D11*
G01*
X5321909Y-2935604D03*
G01*
X5321909Y-2870606D03*
G01*
X5321909Y-2805607D03*
G01*
X5321909Y-2740609D03*
G01*
X5321909Y-2675610D03*
G01*
X5321909Y-2610586D03*
G01*
X5321909Y-2545587D03*
G01*
X5321909Y-2480589D03*
G01*
X5321909Y-2415590D03*
G01*
X5321909Y-2350592D03*
G01*
X5321909Y-2285593D03*
G01*
X5321909Y-2220595D03*
G01*
X4609490Y-2935604D03*
G01*
X4609490Y-2870606D03*
G01*
X4609490Y-2805607D03*
G01*
X4609490Y-2740609D03*
G01*
X4609490Y-2675610D03*
G01*
X4609490Y-2610586D03*
G01*
X4609490Y-2545587D03*
G01*
X4609490Y-2480589D03*
G01*
X4609490Y-2415590D03*
G01*
X4609490Y-2350592D03*
G01*
X4609490Y-2285593D03*
G01*
X4609490Y-2220595D03*
D12*
G01*
X6438188Y921004D03*
G01*
X6668211Y1016000D03*
G01*
X6438214Y1110995D03*
G01*
X7085888Y1175004D03*
G01*
X7315911Y1270000D03*
G01*
X7085914Y1364995D03*
G01*
X7060488Y-348995D03*
G01*
X7290511Y-254000D03*
G01*
X7060514Y-159004D03*
G01*
X6755688Y-869695D03*
G01*
X6985711Y-774700D03*
G01*
X6755714Y-679704D03*
G01*
X7060488Y-1364995D03*
G01*
X7290511Y-1270000D03*
G01*
X7060514Y-1175004D03*
G01*
X7073188Y667004D03*
G01*
X7303211Y762000D03*
G01*
X7073214Y856995D03*
D13*
G01*
X4164634Y-3225800D03*
G01*
X4496765Y-3225800D03*
M02*
