M48
METRIC,LZ,000.000
;FILE_FORMAT=3:3
;TYPE=PLATED
;Layer: PTH_Through_Via
;EasyEDA v6.5.39, 2024-01-10 21:05:38
;9cfd073529b94999841d5e3d22f50bd2,208856bd7ad64deca1bfdec547b981c7,10
;Gerber Generator version 0.2
;Holesize 1 = 0.310 mm
T01C0.310
%
G05
G90
T01
X031750Y-020828
X022860Y-020828
X051689Y-024130
X047625Y-025527
X038989Y-021590
X044196Y-026797
X031747Y-015456
X012174Y023279
X040878Y-021590
X034671Y015240
X021336Y016256
X008509Y011938
X015875Y014351
X044958Y-032385
X035052Y-032258
X068707Y010922
X057277Y012446
X074168Y-006223
X067564Y-005842
X067564Y-000889
X067564Y007493
X074676Y-010160
M30
