M48
METRIC,LZ,000.000
;FILE_FORMAT=3:3
;TYPE=PLATED
;Layer: PTH_Through
;EasyEDA v6.5.39, 2024-01-10 21:05:38
;9cfd073529b94999841d5e3d22f50bd2,208856bd7ad64deca1bfdec547b981c7,10
;Gerber Generator version 0.2
;Holesize 1 = 0.310 mm
T01C0.310
;Holesize 2 = 0.850 mm
T02C0.850
;Holesize 3 = 0.889 mm
T03C0.889
;Holesize 4 = 0.951 mm
T04C0.951
;Holesize 5 = 0.991 mm
T05C0.991
;Holesize 6 = 1.501 mm
T06C1.501
%
G05
G90
T01
X031750Y-020828
X022860Y-020828
X051689Y-024130
X047625Y-025527
X038989Y-021590
X044196Y-026797
X031747Y-015456
X012174Y023279
X040878Y-021590
X034671Y015240
X021336Y016256
X008509Y011938
X015875Y014351
X044958Y-032385
X035052Y-032258
X068707Y010922
X057277Y012446
X074168Y-006223
X067564Y-005842
X067564Y-000889
X067564Y007493
X074676Y-010160
T02
X016343Y-000590
X018343Y001410
X016343Y001410
X016343Y-002590
X018343Y-000590
X018343Y-002590
T03
X078232Y-029083
X078232Y-031623
X078105Y-019431
X078105Y-021971
X022860Y022860
X022860Y020320
X033156Y022860
X033156Y020320
X078740Y-002540
X078740Y-005080
X078740Y-007620
X078740Y-010160
X078740Y-012700
X078867Y015240
X078867Y012700
X078867Y010160
X078867Y007620
X078867Y005080
T04
X061793Y-011430
X056713Y-011430
X054173Y-011430
X059253Y-011430
X051633Y-011430
X059253Y003810
X061793Y003810
X049093Y-011430
X049093Y-008890
X049093Y-006350
X049093Y-003810
X049093Y-001270
X049093Y001270
X049093Y003810
X051633Y003810
X054173Y003810
X056713Y003810
X046553Y-011430
X041473Y-011430
X038933Y-011430
X036393Y-011430
X033853Y-011430
X031313Y-011430
X028773Y-011430
X026233Y-011430
X023693Y-011430
X021153Y-011430
X018613Y-011430
X016073Y-011430
X013533Y-011430
X010993Y-011430
X008453Y-011430
X005913Y-011430
X003373Y-011430
X003373Y003810
X005913Y003810
X008453Y003810
X010993Y003810
X013533Y003810
X016073Y003810
X018613Y003810
X021153Y003810
X023693Y003810
X026233Y003810
X028773Y003810
X031313Y003810
X033853Y003810
X036393Y003810
X038933Y003810
X041473Y003810
X046553Y003810
X005913Y001270
X044013Y003810
X044013Y-011430
X003983Y-005080
X003983Y-002540
X009723Y-008430
X012263Y-008430
X014803Y-008430
X017343Y-008430
X019883Y-008430
T05
X011811Y-038100
X011811Y-053340
X037211Y-053340
X037211Y-038100
X045212Y-038227
X045212Y-053467
X070612Y-053467
X070612Y-038227
T06
X003429Y-053300
X003429Y-048300
X078994Y-048427
X078994Y-053427
X078994Y-038013
X078994Y-043013
M30
