G04 Layer: BottomSolderMaskLayer*
G04 EasyEDA v6.5.39, 2024-01-10 21:05:38*
G04 9cfd073529b94999841d5e3d22f50bd2,208856bd7ad64deca1bfdec547b981c7,10*
G04 Gerber Generator version 0.2*
G04 Scale: 100 percent, Rotated: No, Reflected: No *
G04 Dimensions in millimeters *
G04 leading zeros omitted , absolute positions ,4 integer and 5 decimal *
%FSLAX45Y45*%
%MOMM*%

%AMMACRO1*1,1,$1,$2,$3*1,1,$1,$4,$5*1,1,$1,0-$2,0-$3*1,1,$1,0-$4,0-$5*20,1,$1,$2,$3,$4,$5,0*20,1,$1,$4,$5,0-$2,0-$3,0*20,1,$1,0-$2,0-$3,0-$4,0-$5,0*20,1,$1,0-$4,0-$5,$2,$3,0*4,1,4,$2,$3,$4,$5,0-$2,0-$3,0-$4,0-$5,$2,$3,0*%
%ADD10MACRO1,0.1016X0.7874X-0.7874X-0.7874X-0.7874*%
%ADD11C,1.6764*%
%ADD12R,1.6764X1.6764*%
%ADD13C,1.7780*%
%ADD14C,1.7272*%
%ADD15C,1.6032*%
%ADD16C,2.4016*%

%LPD*%
D10*
G01*
X7823200Y-2908300D03*
D11*
G01*
X7823200Y-3162300D03*
D10*
G01*
X7810500Y-1943100D03*
D11*
G01*
X7810500Y-2197100D03*
D10*
G01*
X2286000Y2286000D03*
D11*
G01*
X2286000Y2032000D03*
D10*
G01*
X3315563Y2286000D03*
D11*
G01*
X3315563Y2032000D03*
G01*
X7874000Y-254000D03*
G01*
X7874000Y-508000D03*
G01*
X7874000Y-762000D03*
G01*
X7874000Y-1016000D03*
D12*
G01*
X7874000Y-1270000D03*
D11*
G01*
X7886700Y1524000D03*
G01*
X7886700Y1270000D03*
G01*
X7886700Y1016000D03*
G01*
X7886700Y762000D03*
D12*
G01*
X7886700Y508000D03*
D13*
G01*
X1181100Y-3810000D03*
G01*
X1181100Y-5334000D03*
G01*
X3721100Y-5334000D03*
G01*
X3721100Y-3810000D03*
G01*
X4521200Y-3822700D03*
G01*
X4521200Y-5346700D03*
G01*
X7061200Y-5346700D03*
G01*
X7061200Y-3822700D03*
D14*
G01*
X6179311Y-1143000D03*
G01*
X5671311Y-1143000D03*
G01*
X5417311Y-1143000D03*
G01*
X5925311Y-1143000D03*
G01*
X5163311Y-1143000D03*
G01*
X5925311Y381000D03*
G01*
X6179311Y381000D03*
G01*
X4909311Y-1143000D03*
G01*
X4909311Y-889000D03*
G01*
X4909311Y-635000D03*
G01*
X4909311Y-381000D03*
G01*
X4909311Y-127000D03*
G01*
X4909311Y127000D03*
G01*
X4909311Y381000D03*
G01*
X5163311Y381000D03*
G01*
X5417311Y381000D03*
G01*
X5671311Y381000D03*
G01*
X4655311Y-1143000D03*
G01*
X4147286Y-1143000D03*
G01*
X3893286Y-1143000D03*
G01*
X3639286Y-1143000D03*
G01*
X3385286Y-1143000D03*
G01*
X3131286Y-1143000D03*
G01*
X2877286Y-1143000D03*
G01*
X2623286Y-1143000D03*
G01*
X2369286Y-1143000D03*
G01*
X2115286Y-1143000D03*
G01*
X1861286Y-1143000D03*
G01*
X1607312Y-1143000D03*
G01*
X1353312Y-1143000D03*
G01*
X1099312Y-1143000D03*
G01*
X845312Y-1143000D03*
G01*
X591312Y-1143000D03*
G01*
X337312Y-1143000D03*
G01*
X337312Y381000D03*
G01*
X591312Y381000D03*
G01*
X845312Y381000D03*
G01*
X1099312Y381000D03*
G01*
X1353312Y381000D03*
G01*
X1607312Y381000D03*
G01*
X1861286Y381000D03*
G01*
X2115286Y381000D03*
G01*
X2369286Y381000D03*
G01*
X2623286Y381000D03*
G01*
X2877286Y381000D03*
G01*
X3131286Y381000D03*
G01*
X3385286Y381000D03*
G01*
X3639286Y381000D03*
G01*
X3893286Y381000D03*
G01*
X4147286Y381000D03*
G01*
X4655311Y381000D03*
G01*
X591312Y127000D03*
D15*
G01*
X1634312Y-59004D03*
G01*
X1834311Y140995D03*
G01*
X1634312Y140995D03*
D14*
G01*
X4401311Y381000D03*
G01*
X4401311Y-1143000D03*
G01*
X398322Y-508000D03*
G01*
X398322Y-254000D03*
G01*
X972312Y-843000D03*
G01*
X1226312Y-843000D03*
G01*
X1480312Y-843000D03*
G01*
X1734312Y-843000D03*
G01*
X1988286Y-843000D03*
D15*
G01*
X1634312Y-259003D03*
G01*
X1834311Y-59004D03*
G01*
X1834311Y-259003D03*
D16*
G01*
X342900Y-5329986D03*
G01*
X342900Y-4829987D03*
G01*
X7899400Y-4842687D03*
G01*
X7899400Y-5342686D03*
G01*
X7899400Y-3801287D03*
G01*
X7899400Y-4301286D03*
M02*
